<svg xmlns="http://www.w3.org/2000/svg" xmlns:xlink="http://www.w3.org/1999/xlink" contentStyleType="text/css" height="672px" preserveAspectRatio="none" style="width:1847px;height:672px;background:#FFFFFF;" version="1.1" viewBox="0 0 1847 672" width="1847px" zoomAndPan="magnify"><defs/><g><!--cluster shared--><g id="cluster_shared"><path d="M8.5,6 L58.6846,6 A3.75,3.75 0 0 1 61.1846,8.5 L68.1846,28.4883 L313.5,28.4883 A2.5,2.5 0 0 1 316,30.9883 L316,441.34 A2.5,2.5 0 0 1 313.5,443.84 L8.5,443.84 A2.5,2.5 0 0 1 6,441.34 L6,8.5 A2.5,2.5 0 0 1 8.5,6 " fill="none" style="stroke:#000000;stroke-width:1.5;"/><line style="stroke:#000000;stroke-width:1.5;" x1="6" x2="68.1846" y1="28.4883" y2="28.4883"/><text fill="#000000" font-family="sans-serif" font-size="14" font-weight="bold" lengthAdjust="spacing" textLength="49.1846" x="10" y="21.5352">shared</text></g><!--cluster service--><g id="cluster_service"><path d="M342.5,229.42 L394.4961,229.42 A3.75,3.75 0 0 1 396.9961,231.92 L403.9961,251.9083 L1340.5,251.9083 A2.5,2.5 0 0 1 1343,254.4083 L1343,391.88 A2.5,2.5 0 0 1 1340.5,394.38 L342.5,394.38 A2.5,2.5 0 0 1 340,391.88 L340,231.92 A2.5,2.5 0 0 1 342.5,229.42 " fill="none" style="stroke:#000000;stroke-width:1.5;"/><line style="stroke:#000000;stroke-width:1.5;" x1="340" x2="403.9961" y1="251.9083" y2="251.9083"/><text fill="#000000" font-family="sans-serif" font-size="14" font-weight="bold" lengthAdjust="spacing" textLength="50.9961" x="344" y="244.9552">service</text></g><!--cluster repository--><g id="cluster_repository"><path d="M9.5,484.33 L84.8955,484.33 A3.75,3.75 0 0 1 87.3955,486.83 L94.3955,506.8183 L850.5,506.8183 A2.5,2.5 0 0 1 853,509.3183 L853,646.78 A2.5,2.5 0 0 1 850.5,649.28 L9.5,649.28 A2.5,2.5 0 0 1 7,646.78 L7,486.83 A2.5,2.5 0 0 1 9.5,484.33 " fill="none" style="stroke:#000000;stroke-width:1.5;"/><line style="stroke:#000000;stroke-width:1.5;" x1="7" x2="94.3955" y1="506.8183" y2="506.8183"/><text fill="#000000" font-family="sans-serif" font-size="14" font-weight="bold" lengthAdjust="spacing" textLength="74.3955" x="11" y="499.8652">repository</text></g><!--cluster suppliers--><g id="cluster_suppliers"><path d="M879.5,467.84 L947.752,467.84 A3.75,3.75 0 0 1 950.252,470.34 L957.252,490.3283 L1837.5,490.3283 A2.5,2.5 0 0 1 1840,492.8283 L1840,663.27 A2.5,2.5 0 0 1 1837.5,665.77 L879.5,665.77 A2.5,2.5 0 0 1 877,663.27 L877,470.34 A2.5,2.5 0 0 1 879.5,467.84 " fill="none" style="stroke:#000000;stroke-width:1.5;"/><line style="stroke:#000000;stroke-width:1.5;" x1="877" x2="957.252" y1="490.3283" y2="490.3283"/><text fill="#000000" font-family="sans-serif" font-size="14" font-weight="bold" lengthAdjust="spacing" textLength="67.252" x="881" y="483.3752">suppliers</text></g><!--class AppContainer--><g id="elem_AppContainer"><rect codeLine="2" fill="#F1F1F1" height="113.9531" id="AppContainer" rx="2.5" ry="2.5" style="stroke:#181818;stroke-width:0.5;" width="277.3027" x="22.35" y="41"/><ellipse cx="110.0072" cy="57" fill="#ADD1B2" rx="11" ry="11" style="stroke:#181818;stroke-width:1.0;"/><path d="M112.4804,63.1431 Q111.8993,63.4419 111.2602,63.5913 Q110.621,63.7407 109.9154,63.7407 Q107.4086,63.7407 106.0888,62.0889 Q104.7689,60.437 104.7689,57.3159 Q104.7689,54.1865 106.0888,52.5347 Q107.4086,50.8828 109.9154,50.8828 Q110.621,50.8828 111.2685,51.0322 Q111.9159,51.1816 112.4804,51.4805 L112.4804,54.2031 Q111.8495,53.6221 111.256,53.3523 Q110.6625,53.0825 110.0316,53.0825 Q108.6869,53.0825 108.0021,54.1492 Q107.3173,55.2158 107.3173,57.3159 Q107.3173,59.4077 108.0021,60.4744 Q108.6869,61.541 110.0316,61.541 Q110.6625,61.541 111.256,61.2712 Q111.8495,61.0015 112.4804,60.4204 Z " fill="#000000"/><text fill="#000000" font-family="sans-serif" font-size="14" lengthAdjust="spacing" textLength="93.4883" x="130.5072" y="62.291">AppContainer</text><line style="stroke:#181818;stroke-width:0.5;" x1="23.35" x2="298.6527" y1="73" y2="73"/><ellipse cx="33.35" cy="86.7441" fill="none" rx="3" ry="3" style="stroke:#038048;stroke-width:1.0;"/><text fill="#000000" font-family="sans-serif" font-size="14" lengthAdjust="spacing" textLength="172.252" x="42.35" y="90.5352">AppSettings: AppSettings</text><ellipse cx="33.35" cy="103.2324" fill="none" rx="3" ry="3" style="stroke:#038048;stroke-width:1.0;"/><text fill="#000000" font-family="sans-serif" font-size="14" lengthAdjust="spacing" textLength="238.8203" x="42.35" y="107.0234">TelemetryService: TelemetryService</text><ellipse cx="33.35" cy="119.7207" fill="none" rx="3" ry="3" style="stroke:#038048;stroke-width:1.0;"/><text fill="#000000" font-family="sans-serif" font-size="14" lengthAdjust="spacing" textLength="251.3027" x="42.35" y="123.5117">EmergencyService: EmergencyService</text><ellipse cx="33.35" cy="136.209" fill="none" rx="3" ry="3" style="stroke:#038048;stroke-width:1.0;"/><text fill="#000000" font-family="sans-serif" font-size="14" lengthAdjust="spacing" textLength="232.5586" x="42.35" y="140">InitHouseService: InitHouseService</text><line style="stroke:#181818;stroke-width:0.5;" x1="23.35" x2="298.6527" y1="146.9531" y2="146.9531"/></g><!--class AppSettings--><g id="elem_AppSettings"><rect codeLine="9" fill="#F1F1F1" height="212.8828" id="AppSettings" rx="2.5" ry="2.5" style="stroke:#181818;stroke-width:0.5;" width="255.8311" x="33.08" y="214.96"/><ellipse cx="115.8974" cy="230.96" fill="#ADD1B2" rx="11" ry="11" style="stroke:#181818;stroke-width:1.0;"/><path d="M118.3705,237.1031 Q117.7895,237.4019 117.1503,237.5513 Q116.5112,237.7007 115.8056,237.7007 Q113.2988,237.7007 111.9789,236.0489 Q110.6591,234.397 110.6591,231.2759 Q110.6591,228.1465 111.9789,226.4947 Q113.2988,224.8428 115.8056,224.8428 Q116.5112,224.8428 117.1586,224.9922 Q117.8061,225.1416 118.3705,225.4405 L118.3705,228.1631 Q117.7397,227.5821 117.1462,227.3123 Q116.5527,227.0425 115.9218,227.0425 Q114.5771,227.0425 113.8923,228.1092 Q113.2074,229.1758 113.2074,231.2759 Q113.2074,233.3677 113.8923,234.4344 Q114.5771,235.501 115.9218,235.501 Q116.5527,235.501 117.1462,235.2312 Q117.7397,234.9615 118.3705,234.3804 Z " fill="#000000"/><text fill="#000000" font-family="sans-serif" font-size="14" lengthAdjust="spacing" textLength="81.6963" x="136.3974" y="236.251">AppSettings</text><line style="stroke:#181818;stroke-width:0.5;" x1="34.08" x2="287.9111" y1="246.96" y2="246.96"/><ellipse cx="44.08" cy="260.7041" fill="none" rx="3" ry="3" style="stroke:#038048;stroke-width:1.0;"/><text fill="#000000" font-family="sans-serif" font-size="14" lengthAdjust="spacing" textLength="130.4502" x="53.08" y="264.4952">KafkaBroker: string</text><ellipse cx="44.08" cy="277.1924" fill="none" rx="3" ry="3" style="stroke:#038048;stroke-width:1.0;"/><text fill="#000000" font-family="sans-serif" font-size="14" lengthAdjust="spacing" textLength="189.9844" x="53.08" y="280.9834">EmergencyStopTopic: string</text><ellipse cx="44.08" cy="293.6807" fill="none" rx="3" ry="3" style="stroke:#038048;stroke-width:1.0;"/><text fill="#000000" font-family="sans-serif" font-size="14" lengthAdjust="spacing" textLength="229.8311" x="53.08" y="297.4717">NewHouseConnectedTopic: string</text><ellipse cx="44.08" cy="310.169" fill="none" rx="3" ry="3" style="stroke:#038048;stroke-width:1.0;"/><text fill="#000000" font-family="sans-serif" font-size="14" lengthAdjust="spacing" textLength="153.5557" x="53.08" y="313.96">TelemetryTopic: string</text><ellipse cx="44.08" cy="326.6573" fill="none" rx="3" ry="3" style="stroke:#038048;stroke-width:1.0;"/><text fill="#000000" font-family="sans-serif" font-size="14" lengthAdjust="spacing" textLength="104.8906" x="53.08" y="330.4483">GroupID: string</text><ellipse cx="44.08" cy="343.1455" fill="none" rx="3" ry="3" style="stroke:#038048;stroke-width:1.0;"/><text fill="#000000" font-family="sans-serif" font-size="14" lengthAdjust="spacing" textLength="117.6875" x="53.08" y="346.9366">MongoURI: string</text><ellipse cx="44.08" cy="359.6338" fill="none" rx="3" ry="3" style="stroke:#038048;stroke-width:1.0;"/><text fill="#000000" font-family="sans-serif" font-size="14" lengthAdjust="spacing" textLength="150.0352" x="53.08" y="363.4248">DatabaseName: string</text><ellipse cx="44.08" cy="376.1221" fill="none" rx="3" ry="3" style="stroke:#038048;stroke-width:1.0;"/><text fill="#000000" font-family="sans-serif" font-size="14" lengthAdjust="spacing" textLength="183.9961" x="53.08" y="379.9131">TelemetryCollection: string</text><ellipse cx="44.08" cy="392.6104" fill="none" rx="3" ry="3" style="stroke:#038048;stroke-width:1.0;"/><text fill="#000000" font-family="sans-serif" font-size="14" lengthAdjust="spacing" textLength="158.8604" x="53.08" y="396.4014">HouseCollection: string</text><ellipse cx="44.08" cy="409.0987" fill="none" rx="3" ry="3" style="stroke:#038048;stroke-width:1.0;"/><text fill="#000000" font-family="sans-serif" font-size="14" lengthAdjust="spacing" textLength="159.7832" x="53.08" y="412.8897">DeviceServiceUrl: string</text><line style="stroke:#181818;stroke-width:0.5;" x1="34.08" x2="287.9111" y1="419.8428" y2="419.8428"/></g><!--class TelemetryService--><g id="elem_TelemetryService"><rect codeLine="26" fill="#F1F1F1" height="97.4648" id="TelemetryService" rx="2.5" ry="2.5" style="stroke:#181818;stroke-width:0.5;" width="310.792" x="355.6" y="272.67"/><ellipse cx="449.2558" cy="288.67" fill="#ADD1B2" rx="11" ry="11" style="stroke:#181818;stroke-width:1.0;"/><path d="M451.7289,294.8131 Q451.1479,295.1119 450.5087,295.2613 Q449.8695,295.4107 449.164,295.4107 Q446.6571,295.4107 445.3373,293.7589 Q444.0175,292.107 444.0175,288.9859 Q444.0175,285.8565 445.3373,284.2047 Q446.6571,282.5528 449.164,282.5528 Q449.8695,282.5528 450.517,282.7022 Q451.1645,282.8516 451.7289,283.1505 L451.7289,285.8731 Q451.098,285.2921 450.5045,285.0223 Q449.911,284.7525 449.2802,284.7525 Q447.9354,284.7525 447.2506,285.8192 Q446.5658,286.8858 446.5658,288.9859 Q446.5658,291.0777 447.2506,292.1444 Q447.9354,293.211 449.2802,293.211 Q449.911,293.211 450.5045,292.9412 Q451.098,292.6715 451.7289,292.0904 Z " fill="#000000"/><text fill="#000000" font-family="sans-serif" font-size="14" lengthAdjust="spacing" textLength="114.9805" x="469.7558" y="293.961">TelemetryService</text><line style="stroke:#181818;stroke-width:0.5;" x1="356.6" x2="665.392" y1="304.67" y2="304.67"/><rect fill="none" height="6" style="stroke:#C82930;stroke-width:1.0;" width="6" x="363.6" y="315.4141"/><text fill="#000000" font-family="sans-serif" font-size="14" lengthAdjust="spacing" textLength="284.792" x="375.6" y="322.2052">telemetryRepository: TelemetryRepository</text><rect fill="none" height="6" style="stroke:#C82930;stroke-width:1.0;" width="6" x="363.6" y="331.9024"/><text fill="#000000" font-family="sans-serif" font-size="14" lengthAdjust="spacing" textLength="194.7148" x="375.6" y="338.6934">kafkaSupplier: KafkaSupplier</text><line style="stroke:#181818;stroke-width:0.5;" x1="356.6" x2="665.392" y1="345.6466" y2="345.6466"/><ellipse cx="366.6" cy="359.3907" fill="#84BE84" rx="3" ry="3" style="stroke:#038048;stroke-width:1.0;"/><text fill="#000000" font-family="sans-serif" font-size="14" lengthAdjust="spacing" textLength="278.3594" x="375.6" y="363.1817">ProcessTelemetryEvent(event: Any): error</text></g><!--class EmergencyService--><g id="elem_EmergencyService"><rect codeLine="33" fill="#F1F1F1" height="113.9531" id="EmergencyService" rx="2.5" ry="2.5" style="stroke:#181818;stroke-width:0.5;" width="327.8955" x="999.05" y="264.42"/><ellipse cx="1098.1369" cy="280.42" fill="#ADD1B2" rx="11" ry="11" style="stroke:#181818;stroke-width:1.0;"/><path d="M1100.6101,286.5631 Q1100.029,286.8619 1099.3898,287.0113 Q1098.7507,287.1607 1098.0451,287.1607 Q1095.5383,287.1607 1094.2185,285.5089 Q1092.8986,283.857 1092.8986,280.7359 Q1092.8986,277.6065 1094.2185,275.9547 Q1095.5383,274.3028 1098.0451,274.3028 Q1098.7507,274.3028 1099.3981,274.4522 Q1100.0456,274.6016 1100.6101,274.9005 L1100.6101,277.6231 Q1099.9792,277.0421 1099.3857,276.7723 Q1098.7922,276.5025 1098.1613,276.5025 Q1096.8166,276.5025 1096.1318,277.5692 Q1095.447,278.6358 1095.447,280.7359 Q1095.447,282.8277 1096.1318,283.8944 Q1096.8166,284.961 1098.1613,284.961 Q1098.7922,284.961 1099.3857,284.6912 Q1099.9792,284.4215 1100.6101,283.8404 Z " fill="#000000"/><text fill="#000000" font-family="sans-serif" font-size="14" lengthAdjust="spacing" textLength="121.2217" x="1118.6369" y="285.711">EmergencyService</text><line style="stroke:#181818;stroke-width:0.5;" x1="1000.05" x2="1325.9455" y1="296.42" y2="296.42"/><rect fill="none" height="6" style="stroke:#C82930;stroke-width:1.0;" width="6" x="1007.05" y="307.1641"/><text fill="#000000" font-family="sans-serif" font-size="14" lengthAdjust="spacing" textLength="301.8955" x="1019.05" y="313.9552">deviceServiceSupplier: DeviceServiceSupplier</text><rect fill="none" height="6" style="stroke:#C82930;stroke-width:1.0;" width="6" x="1007.05" y="323.6524"/><text fill="#000000" font-family="sans-serif" font-size="14" lengthAdjust="spacing" textLength="301.1025" x="1019.05" y="330.4434">emergencyRepository: EmergencyRepository</text><rect fill="none" height="6" style="stroke:#C82930;stroke-width:1.0;" width="6" x="1007.05" y="340.1407"/><text fill="#000000" font-family="sans-serif" font-size="14" lengthAdjust="spacing" textLength="194.7148" x="1019.05" y="346.9317">kafkaSupplier: KafkaSupplier</text><line style="stroke:#181818;stroke-width:0.5;" x1="1000.05" x2="1325.9455" y1="353.8848" y2="353.8848"/><ellipse cx="1010.05" cy="367.629" fill="#84BE84" rx="3" ry="3" style="stroke:#038048;stroke-width:1.0;"/><text fill="#000000" font-family="sans-serif" font-size="14" lengthAdjust="spacing" textLength="284.6006" x="1019.05" y="371.42">ProcessEmergencyEvent(event: Any): error</text></g><!--class InitHouseService--><g id="elem_InitHouseService"><rect codeLine="41" fill="#F1F1F1" height="97.4648" id="InitHouseService" rx="2.5" ry="2.5" style="stroke:#181818;stroke-width:0.5;" width="262.5371" x="701.73" y="272.67"/><ellipse cx="772.8238" cy="288.67" fill="#ADD1B2" rx="11" ry="11" style="stroke:#181818;stroke-width:1.0;"/><path d="M775.2969,294.8131 Q774.7158,295.1119 774.0767,295.2613 Q773.4375,295.4107 772.732,295.4107 Q770.2251,295.4107 768.9053,293.7589 Q767.5855,292.107 767.5855,288.9859 Q767.5855,285.8565 768.9053,284.2047 Q770.2251,282.5528 772.732,282.5528 Q773.4375,282.5528 774.085,282.7022 Q774.7324,282.8516 775.2969,283.1505 L775.2969,285.8731 Q774.666,285.2921 774.0725,285.0223 Q773.479,284.7525 772.8482,284.7525 Q771.5034,284.7525 770.8186,285.8192 Q770.1338,286.8858 770.1338,288.9859 Q770.1338,291.0777 770.8186,292.1444 Q771.5034,293.211 772.8482,293.211 Q773.479,293.211 774.0725,292.9412 Q774.666,292.6715 775.2969,292.0904 Z " fill="#000000"/><text fill="#000000" font-family="sans-serif" font-size="14" lengthAdjust="spacing" textLength="111.8496" x="793.3238" y="293.961">InitHouseService</text><line style="stroke:#181818;stroke-width:0.5;" x1="702.73" x2="963.2671" y1="304.67" y2="304.67"/><rect fill="none" height="6" style="stroke:#C82930;stroke-width:1.0;" width="6" x="709.73" y="315.4141"/><text fill="#000000" font-family="sans-serif" font-size="14" lengthAdjust="spacing" textLength="236.5371" x="721.73" y="322.2052">houseRepository: HouseRepository</text><rect fill="none" height="6" style="stroke:#C82930;stroke-width:1.0;" width="6" x="709.73" y="331.9024"/><text fill="#000000" font-family="sans-serif" font-size="14" lengthAdjust="spacing" textLength="194.7148" x="721.73" y="338.6934">kafkaSupplier: KafkaSupplier</text><line style="stroke:#181818;stroke-width:0.5;" x1="702.73" x2="963.2671" y1="345.6466" y2="345.6466"/><ellipse cx="712.73" cy="359.3907" fill="#84BE84" rx="3" ry="3" style="stroke:#038048;stroke-width:1.0;"/><text fill="#000000" font-family="sans-serif" font-size="14" lengthAdjust="spacing" textLength="223.0566" x="721.73" y="363.1817">InitializeHouse(event: Any): error</text></g><!--class TelemetryRepository--><g id="elem_TelemetryRepository"><rect codeLine="54" fill="#F1F1F1" height="113.9531" id="TelemetryRepository" rx="2.5" ry="2.5" style="stroke:#181818;stroke-width:0.5;" width="224.0234" x="22.99" y="519.33"/><ellipse cx="61.5021" cy="535.33" fill="#ADD1B2" rx="11" ry="11" style="stroke:#181818;stroke-width:1.0;"/><path d="M63.9752,541.4731 Q63.3942,541.7719 62.755,541.9213 Q62.1158,542.0707 61.4103,542.0707 Q58.9034,542.0707 57.5836,540.4189 Q56.2638,538.767 56.2638,535.6459 Q56.2638,532.5165 57.5836,530.8647 Q58.9034,529.2128 61.4103,529.2128 Q62.1158,529.2128 62.7633,529.3622 Q63.4108,529.5116 63.9752,529.8105 L63.9752,532.5331 Q63.3443,531.9521 62.7508,531.6823 Q62.1573,531.4125 61.5265,531.4125 Q60.1817,531.4125 59.4969,532.4792 Q58.8121,533.5458 58.8121,535.6459 Q58.8121,537.7377 59.4969,538.8044 Q60.1817,539.871 61.5265,539.871 Q62.1573,539.871 62.7508,539.6012 Q63.3443,539.3315 63.9752,538.7504 Z " fill="#000000"/><text fill="#000000" font-family="sans-serif" font-size="14" lengthAdjust="spacing" textLength="139.7744" x="80.727" y="540.621">TelemetryRepository</text><line style="stroke:#181818;stroke-width:0.5;" x1="23.99" x2="246.0134" y1="551.33" y2="551.33"/><rect fill="none" height="6" style="stroke:#C82930;stroke-width:1.0;" width="6" x="30.99" y="562.0741"/><text fill="#000000" font-family="sans-serif" font-size="14" lengthAdjust="spacing" textLength="137.4707" x="42.99" y="568.8652">client: mongo.Client</text><rect fill="none" height="6" style="stroke:#C82930;stroke-width:1.0;" width="6" x="30.99" y="578.5624"/><text fill="#000000" font-family="sans-serif" font-size="14" lengthAdjust="spacing" textLength="194.3047" x="42.99" y="585.3534">collection: mongo.Collection</text><line style="stroke:#181818;stroke-width:0.5;" x1="23.99" x2="246.0134" y1="592.3066" y2="592.3066"/><ellipse cx="33.99" cy="606.0507" fill="#84BE84" rx="3" ry="3" style="stroke:#038048;stroke-width:1.0;"/><text fill="#000000" font-family="sans-serif" font-size="14" lengthAdjust="spacing" textLength="198.0234" x="42.99" y="609.8417">InsertEvent(event: Any): error</text><ellipse cx="33.99" cy="622.539" fill="#84BE84" rx="3" ry="3" style="stroke:#038048;stroke-width:1.0;"/><text fill="#000000" font-family="sans-serif" font-size="14" lengthAdjust="spacing" textLength="83.9385" x="42.99" y="626.33">Close(): void</text></g><!--class EmergencyRepository--><g id="elem_EmergencyRepository"><rect codeLine="62" fill="#F1F1F1" height="97.4648" id="EmergencyRepository" rx="2.5" ry="2.5" style="stroke:#181818;stroke-width:0.5;" width="289.6074" x="547.2" y="527.57"/><ellipse cx="614.7459" cy="543.57" fill="#ADD1B2" rx="11" ry="11" style="stroke:#181818;stroke-width:1.0;"/><path d="M617.219,549.7131 Q616.638,550.0119 615.9988,550.1613 Q615.3597,550.3107 614.6541,550.3107 Q612.1473,550.3107 610.8274,548.6589 Q609.5076,547.007 609.5076,543.8859 Q609.5076,540.7565 610.8274,539.1047 Q612.1473,537.4528 614.6541,537.4528 Q615.3597,537.4528 616.0071,537.6022 Q616.6546,537.7516 617.219,538.0505 L617.219,540.7731 Q616.5882,540.1921 615.9947,539.9223 Q615.4012,539.6525 614.7703,539.6525 Q613.4256,539.6525 612.7408,540.7192 Q612.056,541.7858 612.056,543.8859 Q612.056,545.9777 612.7408,547.0444 Q613.4256,548.111 614.7703,548.111 Q615.4012,548.111 615.9947,547.8412 Q616.5882,547.5715 617.219,546.9904 Z " fill="#000000"/><text fill="#000000" font-family="sans-serif" font-size="14" lengthAdjust="spacing" textLength="146.0156" x="635.2459" y="548.861">EmergencyRepository</text><line style="stroke:#181818;stroke-width:0.5;" x1="548.2" x2="835.8074" y1="559.57" y2="559.57"/><rect fill="none" height="6" style="stroke:#C82930;stroke-width:1.0;" width="6" x="555.2" y="570.3141"/><text fill="#000000" font-family="sans-serif" font-size="14" lengthAdjust="spacing" textLength="137.4707" x="567.2" y="577.1052">client: mongo.Client</text><rect fill="none" height="6" style="stroke:#C82930;stroke-width:1.0;" width="6" x="555.2" y="586.8024"/><text fill="#000000" font-family="sans-serif" font-size="14" lengthAdjust="spacing" textLength="194.3047" x="567.2" y="593.5934">collection: mongo.Collection</text><line style="stroke:#181818;stroke-width:0.5;" x1="548.2" x2="835.8074" y1="600.5466" y2="600.5466"/><ellipse cx="558.2" cy="614.2907" fill="#84BE84" rx="3" ry="3" style="stroke:#038048;stroke-width:1.0;"/><text fill="#000000" font-family="sans-serif" font-size="14" lengthAdjust="spacing" textLength="263.6074" x="567.2" y="618.0817">SaveEmergencyEvent(event: Any): error</text></g><!--class HouseRepository--><g id="elem_HouseRepository"><rect codeLine="69" fill="#F1F1F1" height="97.4648" id="HouseRepository" rx="2.5" ry="2.5" style="stroke:#181818;stroke-width:0.5;" width="229.9775" x="282.01" y="527.57"/><ellipse cx="335.4294" cy="543.57" fill="#ADD1B2" rx="11" ry="11" style="stroke:#181818;stroke-width:1.0;"/><path d="M337.9026,549.7131 Q337.3215,550.0119 336.6824,550.1613 Q336.0432,550.3107 335.3376,550.3107 Q332.8308,550.3107 331.511,548.6589 Q330.1912,547.007 330.1912,543.8859 Q330.1912,540.7565 331.511,539.1047 Q332.8308,537.4528 335.3376,537.4528 Q336.0432,537.4528 336.6907,537.6022 Q337.3381,537.7516 337.9026,538.0505 L337.9026,540.7731 Q337.2717,540.1921 336.6782,539.9223 Q336.0847,539.6525 335.4538,539.6525 Q334.1091,539.6525 333.4243,540.7192 Q332.7395,541.7858 332.7395,543.8859 Q332.7395,545.9777 333.4243,547.0444 Q334.1091,548.111 335.4538,548.111 Q336.0847,548.111 336.6782,547.8412 Q337.2717,547.5715 337.9026,546.9904 Z " fill="#000000"/><text fill="#000000" font-family="sans-serif" font-size="14" lengthAdjust="spacing" textLength="114.6387" x="355.9294" y="548.861">HouseRepository</text><line style="stroke:#181818;stroke-width:0.5;" x1="283.01" x2="510.9875" y1="559.57" y2="559.57"/><rect fill="none" height="6" style="stroke:#C82930;stroke-width:1.0;" width="6" x="290.01" y="570.3141"/><text fill="#000000" font-family="sans-serif" font-size="14" lengthAdjust="spacing" textLength="137.4707" x="302.01" y="577.1052">client: mongo.Client</text><rect fill="none" height="6" style="stroke:#C82930;stroke-width:1.0;" width="6" x="290.01" y="586.8024"/><text fill="#000000" font-family="sans-serif" font-size="14" lengthAdjust="spacing" textLength="194.3047" x="302.01" y="593.5934">collection: mongo.Collection</text><line style="stroke:#181818;stroke-width:0.5;" x1="283.01" x2="510.9875" y1="600.5466" y2="600.5466"/><ellipse cx="293.01" cy="614.2907" fill="#84BE84" rx="3" ry="3" style="stroke:#038048;stroke-width:1.0;"/><text fill="#000000" font-family="sans-serif" font-size="14" lengthAdjust="spacing" textLength="203.9775" x="302.01" y="618.0817">InsertHouse(event: Any): error</text></g><!--class KafkaSupplier--><g id="elem_KafkaSupplier"><rect codeLine="82" fill="#F1F1F1" height="146.9297" id="KafkaSupplier" rx="2.5" ry="2.5" style="stroke:#181818;stroke-width:0.5;" width="540.4863" x="892.76" y="502.84"/><ellipse cx="1112.05" cy="518.84" fill="#ADD1B2" rx="11" ry="11" style="stroke:#181818;stroke-width:1.0;"/><path d="M1114.5232,524.9831 Q1113.9421,525.2819 1113.303,525.4313 Q1112.6638,525.5807 1111.9582,525.5807 Q1109.4514,525.5807 1108.1316,523.9289 Q1106.8118,522.277 1106.8118,519.1559 Q1106.8118,516.0265 1108.1316,514.3747 Q1109.4514,512.7228 1111.9582,512.7228 Q1112.6638,512.7228 1113.3113,512.8722 Q1113.9587,513.0216 1114.5232,513.3205 L1114.5232,516.0431 Q1113.8923,515.4621 1113.2988,515.1923 Q1112.7053,514.9225 1112.0745,514.9225 Q1110.7297,514.9225 1110.0449,515.9892 Q1109.3601,517.0558 1109.3601,519.1559 Q1109.3601,521.2477 1110.0449,522.3144 Q1110.7297,523.381 1112.0745,523.381 Q1112.7053,523.381 1113.2988,523.1112 Q1113.8923,522.8415 1114.5232,522.2604 Z " fill="#000000"/><text fill="#000000" font-family="sans-serif" font-size="14" lengthAdjust="spacing" textLength="93.4063" x="1132.55" y="524.131">KafkaSupplier</text><line style="stroke:#181818;stroke-width:0.5;" x1="893.76" x2="1432.2463" y1="534.84" y2="534.84"/><ellipse cx="903.76" cy="548.5841" fill="none" rx="3" ry="3" style="stroke:#038048;stroke-width:1.0;"/><text fill="#000000" font-family="sans-serif" font-size="14" lengthAdjust="spacing" textLength="189.9844" x="912.76" y="552.3752">EmergencyStopTopic: string</text><ellipse cx="903.76" cy="565.0724" fill="none" rx="3" ry="3" style="stroke:#038048;stroke-width:1.0;"/><text fill="#000000" font-family="sans-serif" font-size="14" lengthAdjust="spacing" textLength="229.8311" x="912.76" y="568.8634">NewHouseConnectedTopic: string</text><ellipse cx="903.76" cy="581.5607" fill="none" rx="3" ry="3" style="stroke:#038048;stroke-width:1.0;"/><text fill="#000000" font-family="sans-serif" font-size="14" lengthAdjust="spacing" textLength="153.5557" x="912.76" y="585.3517">TelemetryTopic: string</text><line style="stroke:#181818;stroke-width:0.5;" x1="893.76" x2="1432.2463" y1="592.3048" y2="592.3048"/><ellipse cx="903.76" cy="606.049" fill="#84BE84" rx="3" ry="3" style="stroke:#038048;stroke-width:1.0;"/><text fill="#000000" font-family="sans-serif" font-size="14" lengthAdjust="spacing" textLength="474.6396" x="912.76" y="609.84">ReadEmergencyStopTopic(ctx context.Context) (kafka.Message, error)</text><ellipse cx="903.76" cy="622.5373" fill="#84BE84" rx="3" ry="3" style="stroke:#038048;stroke-width:1.0;"/><text fill="#000000" font-family="sans-serif" font-size="14" lengthAdjust="spacing" textLength="514.4863" x="912.76" y="626.3283">ReadNewHouseConnectedTopic(ctx context.Context) (kafka.Message, error)</text><ellipse cx="903.76" cy="639.0255" fill="#84BE84" rx="3" ry="3" style="stroke:#038048;stroke-width:1.0;"/><text fill="#000000" font-family="sans-serif" font-size="14" lengthAdjust="spacing" textLength="438.2109" x="912.76" y="642.8166">ReadTelemetryTopic(ctx context.Context) (kafka.Message, error)</text></g><!--class DeviceServiceSupplier--><g id="elem_DeviceServiceSupplier"><rect codeLine="92" fill="#F1F1F1" height="80.9766" id="DeviceServiceSupplier" rx="2.5" ry="2.5" style="stroke:#181818;stroke-width:0.5;" width="356.0596" x="1467.97" y="535.82"/><ellipse cx="1568.0721" cy="551.82" fill="#ADD1B2" rx="11" ry="11" style="stroke:#181818;stroke-width:1.0;"/><path d="M1570.5452,557.9631 Q1569.9641,558.2619 1569.325,558.4113 Q1568.6858,558.5607 1567.9803,558.5607 Q1565.4734,558.5607 1564.1536,556.9089 Q1562.8338,555.257 1562.8338,552.1359 Q1562.8338,549.0065 1564.1536,547.3547 Q1565.4734,545.7028 1567.9803,545.7028 Q1568.6858,545.7028 1569.3333,545.8522 Q1569.9807,546.0016 1570.5452,546.3005 L1570.5452,549.0231 Q1569.9143,548.4421 1569.3208,548.1723 Q1568.7273,547.9025 1568.0965,547.9025 Q1566.7517,547.9025 1566.0669,548.9692 Q1565.3821,550.0358 1565.3821,552.1359 Q1565.3821,554.2277 1566.0669,555.2944 Q1566.7517,556.361 1568.0965,556.361 Q1568.7273,556.361 1569.3208,556.0912 Q1569.9143,555.8215 1570.5452,555.2404 Z " fill="#000000"/><text fill="#000000" font-family="sans-serif" font-size="14" lengthAdjust="spacing" textLength="147.3555" x="1588.5721" y="557.111">DeviceServiceSupplier</text><line style="stroke:#181818;stroke-width:0.5;" x1="1468.97" x2="1823.0296" y1="567.82" y2="567.82"/><ellipse cx="1478.97" cy="581.5641" fill="none" rx="3" ry="3" style="stroke:#038048;stroke-width:1.0;"/><text fill="#000000" font-family="sans-serif" font-size="14" lengthAdjust="spacing" textLength="105.1641" x="1487.97" y="585.3552">BaseURL: string</text><line style="stroke:#181818;stroke-width:0.5;" x1="1468.97" x2="1823.0296" y1="592.3083" y2="592.3083"/><ellipse cx="1478.97" cy="606.0524" fill="#84BE84" rx="3" ry="3" style="stroke:#038048;stroke-width:1.0;"/><text fill="#000000" font-family="sans-serif" font-size="14" lengthAdjust="spacing" textLength="330.0596" x="1487.97" y="609.8434">TurnOffModule(houseID string, moduleID string)</text></g><!--link AppContainer to AppSettings--><g id="link_AppContainer_AppSettings"><path codeLine="22" d="M161,155.43 C161,173.49 161,188.12 161,208.53 " fill="none" id="AppContainer-to-AppSettings" style="stroke:#181818;stroke-width:1.0;"/><polygon fill="#181818" points="161,214.53,165,205.53,161,209.53,157,205.53,161,214.53" style="stroke:#181818;stroke-width:1.0;"/></g><!--link AppContainer to TelemetryService--><g id="link_AppContainer_TelemetryService"><path codeLine="48" d="M250.23,155.43 C307.34,191.56 375.5799,234.7216 429.9099,269.1016 " fill="none" id="AppContainer-to-TelemetryService" style="stroke:#181818;stroke-width:1.0;"/><polygon fill="#181818" points="434.98,272.31,429.5137,264.1173,430.7549,269.6363,425.2359,270.8775,434.98,272.31" style="stroke:#181818;stroke-width:1.0;"/></g><!--link AppContainer to EmergencyService--><g id="link_AppContainer_EmergencyService"><path codeLine="49" d="M299.9,102.37 C466.3,110.07 751.48,134.99 982,214.96 C1016.36,226.88 1046.3696,242.4425 1076.4296,260.8025 " fill="none" id="AppContainer-to-EmergencyService" style="stroke:#181818;stroke-width:1.0;"/><polygon fill="#181818" points="1081.55,263.93,1075.9543,255.8252,1077.283,261.3238,1071.7844,262.6524,1081.55,263.93" style="stroke:#181818;stroke-width:1.0;"/></g><!--link AppContainer to InitHouseService--><g id="link_AppContainer_InitHouseService"><path codeLine="50" d="M300.05,114.51 C408.25,130.18 560.28,160.15 684,214.96 C716.89,229.53 745.1416,248.2452 771.7016,268.6452 " fill="none" id="AppContainer-to-InitHouseService" style="stroke:#181818;stroke-width:1.0;"/><polygon fill="#181818" points="776.46,272.3,771.7589,263.6455,772.4947,269.2543,766.8859,269.9901,776.46,272.3" style="stroke:#181818;stroke-width:1.0;"/></g><!--link TelemetryService to TelemetryRepository--><g id="link_TelemetryService_TelemetryRepository"><path codeLine="76" d="M453.26,370.41 C416.27,398.6 365.99,432.4 316,451.84 C294.62,460.15 285.75,450.05 265,459.84 C235.11,473.95 211.2884,492.9136 188.9184,514.8036 " fill="none" id="TelemetryService-to-TelemetryRepository" style="stroke:#181818;stroke-width:1.0;"/><polygon fill="#181818" points="184.63,519,193.8602,515.5644,188.2037,515.503,188.265,509.8465,184.63,519" style="stroke:#181818;stroke-width:1.0;"/></g><!--link EmergencyService to EmergencyRepository--><g id="link_EmergencyService_EmergencyRepository"><path codeLine="77" d="M1102.15,378.77 C1069.13,405.84 1026.12,435.81 982,451.84 C938.01,467.82 921.47,445.25 877,459.84 C832.03,474.59 791.7484,498.9769 757.3084,523.6369 " fill="none" id="EmergencyService-to-EmergencyRepository" style="stroke:#181818;stroke-width:1.0;"/><polygon fill="#181818" points="752.43,527.13,762.0763,525.1427,756.4953,524.2191,757.4189,518.6382,752.43,527.13" style="stroke:#181818;stroke-width:1.0;"/></g><!--link InitHouseService to HouseRepository--><g id="link_InitHouseService_HouseRepository"><path codeLine="78" d="M793.05,370.54 C765.7,399.74 726.74,434.59 684,451.84 C652.22,464.67 561.78,447.02 530,459.84 C494.41,474.2 465.9235,497.9194 441.8735,522.7594 " fill="none" id="InitHouseService-to-HouseRepository" style="stroke:#181818;stroke-width:1.0;"/><polygon fill="#181818" points="437.7,527.07,446.8341,523.3864,441.178,523.4778,441.0866,517.8217,437.7,527.07" style="stroke:#181818;stroke-width:1.0;"/></g><!--link TelemetryService to KafkaSupplier--><g id="link_TelemetryService_KafkaSupplier"><path codeLine="98" d="M558.47,370.34 C590.84,399.66 636.34,434.72 684,451.84 C719.38,464.55 816.17,452.3 853,459.84 C900.54,469.57 944.8554,483.3711 990.4154,500.2911 " fill="none" id="TelemetryService-to-KafkaSupplier" style="stroke:#181818;stroke-width:1.0;"/><polygon fill="#181818" points="996.04,502.38,988.9956,495.4969,991.3528,500.6393,986.2105,502.9965,996.04,502.38" style="stroke:#181818;stroke-width:1.0;"/></g><!--link EmergencyService to KafkaSupplier--><g id="link_EmergencyService_KafkaSupplier"><path codeLine="99" d="M1163,378.84 C1163,415.38 1163,457.31 1163,496.68 " fill="none" id="EmergencyService-to-KafkaSupplier" style="stroke:#181818;stroke-width:1.0;"/><polygon fill="#181818" points="1163,502.68,1167,493.68,1163,497.68,1159,493.68,1163,502.68" style="stroke:#181818;stroke-width:1.0;"/></g><!--link EmergencyService to DeviceServiceSupplier--><g id="link_EmergencyService_DeviceServiceSupplier"><path codeLine="100" d="M1287.54,378.86 C1338.7,402.82 1398.2,431.68 1451,459.84 C1495.44,483.54 1539.0671,509.2765 1576.7071,532.2265 " fill="none" id="EmergencyService-to-DeviceServiceSupplier" style="stroke:#181818;stroke-width:1.0;"/><polygon fill="#181818" points="1581.83,535.35,1576.2281,527.2495,1577.561,532.7471,1572.0634,534.0799,1581.83,535.35" style="stroke:#181818;stroke-width:1.0;"/></g><!--link InitHouseService to KafkaSupplier--><g id="link_InitHouseService_KafkaSupplier"><path codeLine="101" d="M885.18,370.37 C913.22,395.46 948.76,426.21 982,451.84 C1004.14,468.91 1023.5528,482.9507 1047.0128,499.1507 " fill="none" id="InitHouseService-to-KafkaSupplier" style="stroke:#181818;stroke-width:1.0;"/><polygon fill="#181818" points="1051.95,502.56,1046.817,494.1545,1047.8356,499.7189,1042.2712,500.7375,1051.95,502.56" style="stroke:#181818;stroke-width:1.0;"/></g><!--SRC=[lLNRSjem47tdApnvWcdW0tZeJ6EOX4b8Erm-GBKNei586accePtyUoLZZ5QI2QMJ-C4UxHwlzgpEhWJ9DcGDoOrw8HBoc-HF9p5FLX2bacz2f9nfGXd8sc6VBzOn1wqfMwkXkt0W2oXW2rhkvo1tD8DXO770uot8DR3i1FOj3dZ2g7xWfO86x5igy5i7CpdcY8WyajM6t4c-0JbCb9O644rBSx7WWcOHq3FyglOsbMAGQSZRW0t_Di2zvAMOZ2AUAMThlfnD8guHqUGdKV1Cjd1kqvGNXKcFSXP1rGJE84PW2rlNToaB1AbBZUJIxtz5oZ0OqMZj40QBpPU7SqxzH1-TCn1SKStbtX7KoUZyih57Eo-5AAWzt4TtsN6O_P0y0wMQOECTCDq5-pRQPllUC04fkGn5vMiKPPox1JkbCOgPdT_W6DCbEWwDrnDjWbrErEylHFJ5Ejni7x3XYapjVfGKz3TKiTx9CP1TTD04gEY42L31Q75rB1kIBL8-LG6LB3E4BQ6jRUj1MgrSjzE8DQInu3APHj9dZ_40J0jkgcWSEqxpCph-s7JdP0TNYC-JqySLyXAj1KCAwSqJVJ0VaEmySD1Z5kot4XgYTUCeh3tKLEYk-vJRp47CWEJXdjrClvg3OHfUzI0zV7j9jneDWwcPJuRSxQ7mFIzOFBV_28Wv_7CW9DFeO4VrlpEtz7Bs52lLefJi-servNbPGBUQg9DHZRirqhNcnj1xLv1uiBPAyK9O-vKLrIoE-jRv2m00]--></g></svg>