<svg xmlns="http://www.w3.org/2000/svg" xmlns:xlink="http://www.w3.org/1999/xlink" contentStyleType="text/css" height="799px" preserveAspectRatio="none" style="width:850px;height:799px;background:#FFFFFF;" version="1.1" viewBox="0 0 850 799" width="850px" zoomAndPan="magnify"><defs/><g><!--class User--><g id="elem_User"><rect codeLine="1" fill="#F1F1F1" height="146.9297" id="User" rx="2.5" ry="2.5" style="stroke:#181818;stroke-width:0.5;" width="164.8379" x="7" y="7"/><ellipse cx="69.9863" cy="23" fill="#ADD1B2" rx="11" ry="11" style="stroke:#181818;stroke-width:1.0;"/><path d="M73.6006,29.5 L65.8809,29.5 L65.8809,17.1069 L73.6006,17.1069 L73.6006,19.2651 L68.3296,19.2651 L68.3296,21.938 L73.1025,21.938 L73.1025,24.0962 L68.3296,24.0962 L68.3296,27.3418 L73.6006,27.3418 Z " fill="#000000"/><text fill="#000000" font-family="sans-serif" font-size="14" lengthAdjust="spacing" textLength="30.3652" x="90.4863" y="28.291">User</text><line style="stroke:#181818;stroke-width:0.5;" x1="8" x2="170.8379" y1="39" y2="39"/><ellipse cx="18" cy="52.7441" fill="#000000" rx="3" ry="3" style="stroke:#000000;stroke-width:1.0;"/><text fill="#000000" font-family="sans-serif" font-size="14" lengthAdjust="spacing" textLength="64.4902" x="27" y="56.5352">id: UUID4</text><ellipse cx="18" cy="69.2324" fill="#000000" rx="3" ry="3" style="stroke:#000000;stroke-width:1.0;"/><text fill="#000000" font-family="sans-serif" font-size="14" lengthAdjust="spacing" textLength="125.5283" x="27" y="73.0234">username: varchar</text><ellipse cx="18" cy="85.7207" fill="#000000" rx="3" ry="3" style="stroke:#000000;stroke-width:1.0;"/><text fill="#000000" font-family="sans-serif" font-size="14" lengthAdjust="spacing" textLength="130.4707" x="27" y="89.5117">first_name: varchar</text><ellipse cx="18" cy="102.209" fill="#000000" rx="3" ry="3" style="stroke:#000000;stroke-width:1.0;"/><text fill="#000000" font-family="sans-serif" font-size="14" lengthAdjust="spacing" textLength="127.3262" x="27" y="106">last_name: varchar</text><ellipse cx="18" cy="118.6973" fill="#000000" rx="3" ry="3" style="stroke:#000000;stroke-width:1.0;"/><text fill="#000000" font-family="sans-serif" font-size="14" lengthAdjust="spacing" textLength="123.6279" x="27" y="122.4883">password: varchar</text><ellipse cx="18" cy="135.1855" fill="#000000" rx="3" ry="3" style="stroke:#000000;stroke-width:1.0;"/><text fill="#000000" font-family="sans-serif" font-size="14" lengthAdjust="spacing" textLength="138.8379" x="27" y="138.9766">created_at: datetime</text><line style="stroke:#181818;stroke-width:0.5;" x1="8" x2="170.8379" y1="145.9297" y2="145.9297"/></g><!--class House--><g id="elem_House"><rect codeLine="10" fill="#F1F1F1" height="130.4414" id="House" rx="2.5" ry="2.5" style="stroke:#181818;stroke-width:0.5;" width="164.8379" x="7" y="230.93"/><ellipse cx="63.9126" cy="246.93" fill="#ADD1B2" rx="11" ry="11" style="stroke:#181818;stroke-width:1.0;"/><path d="M67.5269,253.43 L59.8071,253.43 L59.8071,241.0369 L67.5269,241.0369 L67.5269,243.1951 L62.2559,243.1951 L62.2559,245.868 L67.0288,245.868 L67.0288,248.0262 L62.2559,248.0262 L62.2559,251.2718 L67.5269,251.2718 Z " fill="#000000"/><text fill="#000000" font-family="sans-serif" font-size="14" lengthAdjust="spacing" textLength="42.5127" x="84.4126" y="252.221">House</text><line style="stroke:#181818;stroke-width:0.5;" x1="8" x2="170.8379" y1="262.93" y2="262.93"/><ellipse cx="18" cy="276.6741" fill="#000000" rx="3" ry="3" style="stroke:#000000;stroke-width:1.0;"/><text fill="#000000" font-family="sans-serif" font-size="14" lengthAdjust="spacing" textLength="64.4902" x="27" y="280.4652">id: UUID4</text><ellipse cx="18" cy="293.1624" fill="#000000" rx="3" ry="3" style="stroke:#000000;stroke-width:1.0;"/><text fill="#000000" font-family="sans-serif" font-size="14" lengthAdjust="spacing" textLength="138.8379" x="27" y="296.9534">created_at: datetime</text><ellipse cx="18" cy="309.6507" fill="#000000" rx="3" ry="3" style="stroke:#000000;stroke-width:1.0;"/><text fill="#000000" font-family="sans-serif" font-size="14" lengthAdjust="spacing" textLength="112.041" x="27" y="313.4417">address: varchar</text><ellipse cx="18" cy="326.139" fill="#000000" rx="3" ry="3" style="stroke:#000000;stroke-width:1.0;"/><text fill="#000000" font-family="sans-serif" font-size="14" lengthAdjust="spacing" textLength="107.4336" x="27" y="329.93">square: decimal</text><ellipse cx="18" cy="342.6273" fill="#000000" rx="3" ry="3" style="stroke:#000000;stroke-width:1.0;"/><text fill="#000000" font-family="sans-serif" font-size="14" lengthAdjust="spacing" textLength="100.8438" x="27" y="346.4183">user_id: UUID4</text><line style="stroke:#181818;stroke-width:0.5;" x1="8" x2="170.8379" y1="353.3714" y2="353.3714"/></g><!--class Module--><g id="elem_Module"><rect codeLine="18" fill="#F1F1F1" height="113.9531" id="Module" rx="2.5" ry="2.5" style="stroke:#181818;stroke-width:0.5;" width="291.4873" x="206.68" y="239.17"/><ellipse cx="323.1712" cy="255.17" fill="#ADD1B2" rx="11" ry="11" style="stroke:#181818;stroke-width:1.0;"/><path d="M326.7855,261.67 L319.0657,261.67 L319.0657,249.2769 L326.7855,249.2769 L326.7855,251.4351 L321.5145,251.4351 L321.5145,254.108 L326.2874,254.108 L326.2874,256.2662 L321.5145,256.2662 L321.5145,259.5118 L326.7855,259.5118 Z " fill="#000000"/><text fill="#000000" font-family="sans-serif" font-size="14" lengthAdjust="spacing" textLength="50.0049" x="343.6712" y="260.461">Module</text><line style="stroke:#181818;stroke-width:0.5;" x1="207.68" x2="497.1673" y1="271.17" y2="271.17"/><ellipse cx="217.68" cy="284.9141" fill="#000000" rx="3" ry="3" style="stroke:#000000;stroke-width:1.0;"/><text fill="#000000" font-family="sans-serif" font-size="14" lengthAdjust="spacing" textLength="64.4902" x="226.68" y="288.7052">id: UUID4</text><ellipse cx="217.68" cy="301.4024" fill="#000000" rx="3" ry="3" style="stroke:#000000;stroke-width:1.0;"/><text fill="#000000" font-family="sans-serif" font-size="14" lengthAdjust="spacing" textLength="138.8379" x="226.68" y="305.1934">created_at: datetime</text><ellipse cx="217.68" cy="317.8907" fill="#000000" rx="3" ry="3" style="stroke:#000000;stroke-width:1.0;"/><text fill="#000000" font-family="sans-serif" font-size="14" lengthAdjust="spacing" textLength="265.4873" x="226.68" y="321.6817">type: Heating || Watcher || Gates || etc.</text><ellipse cx="217.68" cy="334.379" fill="#000000" rx="3" ry="3" style="stroke:#000000;stroke-width:1.0;"/><text fill="#000000" font-family="sans-serif" font-size="14" lengthAdjust="spacing" textLength="111.7949" x="226.68" y="338.17">description: text</text><line style="stroke:#181818;stroke-width:0.5;" x1="207.68" x2="497.1673" y1="345.1231" y2="345.1231"/></g><!--class HouseModule--><g id="elem_HouseModule"><rect codeLine="25" fill="#F1F1F1" height="113.9531" id="HouseModule" rx="2.5" ry="2.5" style="stroke:#181818;stroke-width:0.5;" width="148.5068" x="81.17" y="454.86"/><ellipse cx="106.9652" cy="470.86" fill="#ADD1B2" rx="11" ry="11" style="stroke:#181818;stroke-width:1.0;"/><path d="M110.5794,477.36 L102.8597,477.36 L102.8597,464.9669 L110.5794,464.9669 L110.5794,467.1251 L105.3084,467.1251 L105.3084,469.798 L110.0814,469.798 L110.0814,471.9562 L105.3084,471.9562 L105.3084,475.2018 L110.5794,475.2018 Z " fill="#000000"/><text fill="#000000" font-family="sans-serif" font-size="14" lengthAdjust="spacing" textLength="92.5176" x="123.3641" y="476.151">HouseModule</text><line style="stroke:#181818;stroke-width:0.5;" x1="82.17" x2="228.6768" y1="486.86" y2="486.86"/><ellipse cx="92.17" cy="500.6041" fill="#000000" rx="3" ry="3" style="stroke:#000000;stroke-width:1.0;"/><text fill="#000000" font-family="sans-serif" font-size="14" lengthAdjust="spacing" textLength="64.4902" x="101.17" y="504.3952">id: UUID4</text><ellipse cx="92.17" cy="517.0924" fill="#000000" rx="3" ry="3" style="stroke:#000000;stroke-width:1.0;"/><text fill="#000000" font-family="sans-serif" font-size="14" lengthAdjust="spacing" textLength="112.4033" x="101.17" y="520.8834">house_id: UUID4</text><ellipse cx="92.17" cy="533.5807" fill="#000000" rx="3" ry="3" style="stroke:#000000;stroke-width:1.0;"/><text fill="#000000" font-family="sans-serif" font-size="14" lengthAdjust="spacing" textLength="122.5068" x="101.17" y="537.3717">module_id: UUID4</text><ellipse cx="92.17" cy="550.069" fill="#000000" rx="3" ry="3" style="stroke:#000000;stroke-width:1.0;"/><text fill="#000000" font-family="sans-serif" font-size="14" lengthAdjust="spacing" textLength="115.7666" x="101.17" y="553.86">turn_on: boolean</text><line style="stroke:#181818;stroke-width:0.5;" x1="82.17" x2="228.6768" y1="560.8131" y2="560.8131"/></g><!--class SensorModule--><g id="elem_SensorModule"><rect codeLine="32" fill="#F1F1F1" height="113.9531" id="SensorModule" rx="2.5" ry="2.5" style="stroke:#181818;stroke-width:0.5;" width="148.5068" x="475.17" y="454.86"/><ellipse cx="499.624" cy="470.86" fill="#ADD1B2" rx="11" ry="11" style="stroke:#181818;stroke-width:1.0;"/><path d="M503.2382,477.36 L495.5185,477.36 L495.5185,464.9669 L503.2382,464.9669 L503.2382,467.1251 L497.9672,467.1251 L497.9672,469.798 L502.7402,469.798 L502.7402,471.9562 L497.9672,471.9562 L497.9672,475.2018 L503.2382,475.2018 Z " fill="#000000"/><text fill="#000000" font-family="sans-serif" font-size="14" lengthAdjust="spacing" textLength="95.498" x="515.7248" y="476.151">SensorModule</text><line style="stroke:#181818;stroke-width:0.5;" x1="476.17" x2="622.6768" y1="486.86" y2="486.86"/><ellipse cx="486.17" cy="500.6041" fill="#000000" rx="3" ry="3" style="stroke:#000000;stroke-width:1.0;"/><text fill="#000000" font-family="sans-serif" font-size="14" lengthAdjust="spacing" textLength="64.4902" x="495.17" y="504.3952">id: UUID4</text><ellipse cx="486.17" cy="517.0924" fill="#000000" rx="3" ry="3" style="stroke:#000000;stroke-width:1.0;"/><text fill="#000000" font-family="sans-serif" font-size="14" lengthAdjust="spacing" textLength="122.5068" x="495.17" y="520.8834">module_id: UUID4</text><ellipse cx="486.17" cy="533.5807" fill="#000000" rx="3" ry="3" style="stroke:#000000;stroke-width:1.0;"/><text fill="#000000" font-family="sans-serif" font-size="14" lengthAdjust="spacing" textLength="116.5801" x="495.17" y="537.3717">sensor_id: UUID4</text><ellipse cx="486.17" cy="550.069" fill="#000000" rx="3" ry="3" style="stroke:#000000;stroke-width:1.0;"/><text fill="#000000" font-family="sans-serif" font-size="14" lengthAdjust="spacing" textLength="115.7666" x="495.17" y="553.86">turn_on: boolean</text><line style="stroke:#181818;stroke-width:0.5;" x1="476.17" x2="622.6768" y1="560.8131" y2="560.8131"/></g><!--class Device--><g id="elem_Device"><rect codeLine="39" fill="#F1F1F1" height="146.9297" id="Device" rx="2.5" ry="2.5" style="stroke:#181818;stroke-width:0.5;" width="176.0488" x="264.39" y="438.37"/><ellipse cx="325.8895" cy="454.37" fill="#ADD1B2" rx="11" ry="11" style="stroke:#181818;stroke-width:1.0;"/><path d="M329.5038,460.87 L321.784,460.87 L321.784,448.4769 L329.5038,448.4769 L329.5038,450.6351 L324.2328,450.6351 L324.2328,453.308 L329.0057,453.308 L329.0057,455.4662 L324.2328,455.4662 L324.2328,458.7118 L329.5038,458.7118 Z " fill="#000000"/><text fill="#000000" font-family="sans-serif" font-size="14" lengthAdjust="spacing" textLength="44.5498" x="346.3895" y="459.661">Device</text><line style="stroke:#181818;stroke-width:0.5;" x1="265.39" x2="439.4388" y1="470.37" y2="470.37"/><ellipse cx="275.39" cy="484.1141" fill="#000000" rx="3" ry="3" style="stroke:#000000;stroke-width:1.0;"/><text fill="#000000" font-family="sans-serif" font-size="14" lengthAdjust="spacing" textLength="64.4902" x="284.39" y="487.9052">id: UUID4</text><ellipse cx="275.39" cy="500.6024" fill="#000000" rx="3" ry="3" style="stroke:#000000;stroke-width:1.0;"/><text fill="#000000" font-family="sans-serif" font-size="14" lengthAdjust="spacing" textLength="138.8379" x="284.39" y="504.3934">created_at: datetime</text><ellipse cx="275.39" cy="517.0907" fill="#000000" rx="3" ry="3" style="stroke:#000000;stroke-width:1.0;"/><text fill="#000000" font-family="sans-serif" font-size="14" lengthAdjust="spacing" textLength="96.1748" x="284.39" y="520.8817">name: varchar</text><ellipse cx="275.39" cy="533.579" fill="#000000" rx="3" ry="3" style="stroke:#000000;stroke-width:1.0;"/><text fill="#000000" font-family="sans-serif" font-size="14" lengthAdjust="spacing" textLength="150.0488" x="284.39" y="537.37">vendor_name: varchar</text><ellipse cx="275.39" cy="550.0673" fill="#000000" rx="3" ry="3" style="stroke:#000000;stroke-width:1.0;"/><text fill="#000000" font-family="sans-serif" font-size="14" lengthAdjust="spacing" textLength="111.7949" x="284.39" y="553.8583">description: text</text><ellipse cx="275.39" cy="566.5555" fill="#000000" rx="3" ry="3" style="stroke:#000000;stroke-width:1.0;"/><text fill="#000000" font-family="sans-serif" font-size="14" lengthAdjust="spacing" textLength="122.5068" x="284.39" y="570.3466">module_id: UUID4</text><line style="stroke:#181818;stroke-width:0.5;" x1="265.39" x2="439.4388" y1="577.2997" y2="577.2997"/></g><!--class Sensor--><g id="elem_Sensor"><rect codeLine="48" fill="#F1F1F1" height="113.9531" id="Sensor" rx="2.5" ry="2.5" style="stroke:#181818;stroke-width:0.5;" width="311.0176" x="532.91" y="239.17"/><ellipse cx="661.4222" cy="255.17" fill="#ADD1B2" rx="11" ry="11" style="stroke:#181818;stroke-width:1.0;"/><path d="M665.0365,261.67 L657.3167,261.67 L657.3167,249.2769 L665.0365,249.2769 L665.0365,251.4351 L659.7655,251.4351 L659.7655,254.108 L664.5384,254.108 L664.5384,256.2662 L659.7655,256.2662 L659.7655,259.5118 L665.0365,259.5118 Z " fill="#000000"/><text fill="#000000" font-family="sans-serif" font-size="14" lengthAdjust="spacing" textLength="45.4932" x="681.9222" y="260.461">Sensor</text><line style="stroke:#181818;stroke-width:0.5;" x1="533.91" x2="842.9276" y1="271.17" y2="271.17"/><ellipse cx="543.91" cy="284.9141" fill="#000000" rx="3" ry="3" style="stroke:#000000;stroke-width:1.0;"/><text fill="#000000" font-family="sans-serif" font-size="14" lengthAdjust="spacing" textLength="64.4902" x="552.91" y="288.7052">id: UUID4</text><ellipse cx="543.91" cy="301.4024" fill="#000000" rx="3" ry="3" style="stroke:#000000;stroke-width:1.0;"/><text fill="#000000" font-family="sans-serif" font-size="14" lengthAdjust="spacing" textLength="138.8379" x="552.91" y="305.1934">created_at: datetime</text><ellipse cx="543.91" cy="317.8907" fill="#000000" rx="3" ry="3" style="stroke:#000000;stroke-width:1.0;"/><text fill="#000000" font-family="sans-serif" font-size="14" lengthAdjust="spacing" textLength="285.0176" x="552.91" y="321.6817">type: enum: Temperature || Moving || etc.</text><ellipse cx="543.91" cy="334.379" fill="#000000" rx="3" ry="3" style="stroke:#000000;stroke-width:1.0;"/><text fill="#000000" font-family="sans-serif" font-size="14" lengthAdjust="spacing" textLength="150.0488" x="552.91" y="338.17">vendor_name: varchar</text><line style="stroke:#181818;stroke-width:0.5;" x1="533.91" x2="842.9276" y1="345.1231" y2="345.1231"/></g><!--class TelemetryData--><g id="elem_TelemetryData"><rect codeLine="55" fill="#F1F1F1" height="130.4414" id="TelemetryData" rx="2.5" ry="2.5" style="stroke:#181818;stroke-width:0.5;" width="370.5859" x="166.13" y="662.3"/><ellipse cx="297.756" cy="678.3" fill="#ADD1B2" rx="11" ry="11" style="stroke:#181818;stroke-width:1.0;"/><path d="M301.3702,684.8 L293.6505,684.8 L293.6505,672.4069 L301.3702,672.4069 L301.3702,674.5651 L296.0992,674.5651 L296.0992,677.238 L300.8722,677.238 L300.8722,679.3962 L296.0992,679.3962 L296.0992,682.6418 L301.3702,682.6418 Z " fill="#000000"/><text fill="#000000" font-family="sans-serif" font-size="14" lengthAdjust="spacing" textLength="98.834" x="318.256" y="683.591">TelemetryData</text><line style="stroke:#181818;stroke-width:0.5;" x1="167.13" x2="535.7159" y1="694.3" y2="694.3"/><ellipse cx="177.13" cy="708.0441" fill="#000000" rx="3" ry="3" style="stroke:#000000;stroke-width:1.0;"/><text fill="#000000" font-family="sans-serif" font-size="14" lengthAdjust="spacing" textLength="64.4902" x="186.13" y="711.8352">id: UUID4</text><ellipse cx="177.13" cy="724.5324" fill="#000000" rx="3" ry="3" style="stroke:#000000;stroke-width:1.0;"/><text fill="#000000" font-family="sans-serif" font-size="14" lengthAdjust="spacing" textLength="138.8379" x="186.13" y="728.3234">created_at: datetime</text><ellipse cx="177.13" cy="741.0207" fill="#000000" rx="3" ry="3" style="stroke:#000000;stroke-width:1.0;"/><text fill="#000000" font-family="sans-serif" font-size="14" lengthAdjust="spacing" textLength="116.6143" x="186.13" y="744.8117">source_id: UUID4</text><ellipse cx="177.13" cy="757.509" fill="#000000" rx="3" ry="3" style="stroke:#000000;stroke-width:1.0;"/><text fill="#000000" font-family="sans-serif" font-size="14" lengthAdjust="spacing" textLength="344.5859" x="186.13" y="761.3">source_type: enum: HouseModule || SensorModule</text><ellipse cx="177.13" cy="773.9973" fill="#000000" rx="3" ry="3" style="stroke:#000000;stroke-width:1.0;"/><text fill="#000000" font-family="sans-serif" font-size="14" lengthAdjust="spacing" textLength="115.2539" x="186.13" y="777.7883">event_data: JSON</text><line style="stroke:#181818;stroke-width:0.5;" x1="167.13" x2="535.7159" y1="784.7414" y2="784.7414"/></g><!--link User to House--><g id="link_User_House"><path codeLine="63" d="M89.42,162.4 C89.42,187.19 89.42,188.69 89.42,212.76 " fill="none" id="User-House" style="stroke:#181818;stroke-width:1.0;"/><line style="stroke:#181818;stroke-width:1.0;" x1="85.42" x2="93.42" y1="158.4" y2="158.4"/><line style="stroke:#181818;stroke-width:1.0;" x1="85.42" x2="93.42" y1="161.4" y2="161.4"/><line style="stroke:#181818;stroke-width:1.0;" x1="89.42" x2="89.42" y1="162.4" y2="154.4"/><line style="stroke:#181818;stroke-width:1.0;" x1="89.42" x2="95.42" y1="222.76" y2="230.76"/><line style="stroke:#181818;stroke-width:1.0;" x1="89.42" x2="83.42" y1="222.76" y2="230.76"/><line style="stroke:#181818;stroke-width:1.0;" x1="89.42" x2="89.42" y1="222.76" y2="230.76"/><ellipse cx="89.42" cy="216.76" fill="none" rx="4" ry="4" style="stroke:#181818;stroke-width:1.0;"/><text fill="#000000" font-family="sans-serif" font-size="13" lengthAdjust="spacing" textLength="23.5308" x="90.42" y="197.4984">1:M</text></g><!--link House to HouseModule--><g id="link_House_HouseModule"><path codeLine="64" d="M111.7603,369.4839 C120.9003,399.0839 123.9733,408.99 132.7633,437.48 " fill="none" id="House-HouseModule" style="stroke:#181818;stroke-width:1.0;"/><line style="stroke:#181818;stroke-width:1.0;" x1="106.7582" x2="114.4021" y1="366.8421" y2="364.4818"/><line style="stroke:#181818;stroke-width:1.0;" x1="107.6433" x2="115.2872" y1="369.7086" y2="367.3482"/><line style="stroke:#181818;stroke-width:1.0;" x1="111.7603" x2="109.4" y1="369.4839" y2="361.84"/><line style="stroke:#181818;stroke-width:1.0;" x1="135.7115" x2="143.8033" y1="447.0356" y2="452.9111"/><line style="stroke:#181818;stroke-width:1.0;" x1="135.7115" x2="132.3367" y1="447.0356" y2="456.4489"/><line style="stroke:#181818;stroke-width:1.0;" x1="135.7115" x2="138.07" y1="447.0356" y2="454.68"/><ellipse cx="133.9426" cy="441.3022" fill="none" rx="4" ry="4" style="stroke:#181818;stroke-width:1.0;"/><text fill="#000000" font-family="sans-serif" font-size="13" lengthAdjust="spacing" textLength="23.5308" x="123.42" y="404.9384">1:M</text></g><!--link Module to HouseModule--><g id="link_Module_HouseModule"><path codeLine="65" d="M294.9782,359.4525 C266.2582,390.6125 248.2969,410.0723 219.5869,441.2323 " fill="none" id="Module-HouseModule" style="stroke:#181818;stroke-width:1.0;"/><line style="stroke:#181818;stroke-width:1.0;" x1="294.7478" x2="300.6303" y1="353.8003" y2="359.2222"/><line style="stroke:#181818;stroke-width:1.0;" x1="292.7146" x2="298.5971" y1="356.0062" y2="361.4281"/><line style="stroke:#181818;stroke-width:1.0;" x1="294.9782" x2="300.4" y1="359.4525" y2="353.57"/><line style="stroke:#181818;stroke-width:1.0;" x1="212.8108" x2="211.8026" y1="448.5866" y2="458.5356"/><line style="stroke:#181818;stroke-width:1.0;" x1="212.8108" x2="202.9774" y1="448.5866" y2="450.4044"/><line style="stroke:#181818;stroke-width:1.0;" x1="212.8108" x2="207.39" y1="448.5866" y2="454.47"/><ellipse cx="216.8764" cy="444.174" fill="none" rx="4" ry="4" style="stroke:#181818;stroke-width:1.0;"/><text fill="#000000" font-family="sans-serif" font-size="13" lengthAdjust="spacing" textLength="23.5308" x="260.83" y="404.9384">1:M</text></g><!--link Module to Device--><g id="link_Module_Device"><path codeLine="66" d="M352.42,361.57 C352.42,387.41 352.42,392.36 352.42,419.94 " fill="none" id="Module-Device" style="stroke:#181818;stroke-width:1.0;"/><line style="stroke:#181818;stroke-width:1.0;" x1="348.42" x2="356.42" y1="357.57" y2="357.57"/><line style="stroke:#181818;stroke-width:1.0;" x1="348.42" x2="356.42" y1="360.57" y2="360.57"/><line style="stroke:#181818;stroke-width:1.0;" x1="352.42" x2="352.42" y1="361.57" y2="353.57"/><line style="stroke:#181818;stroke-width:1.0;" x1="352.42" x2="358.42" y1="429.94" y2="437.94"/><line style="stroke:#181818;stroke-width:1.0;" x1="352.42" x2="346.42" y1="429.94" y2="437.94"/><line style="stroke:#181818;stroke-width:1.0;" x1="352.42" x2="352.42" y1="429.94" y2="437.94"/><ellipse cx="352.42" cy="423.94" fill="none" rx="4" ry="4" style="stroke:#181818;stroke-width:1.0;"/><text fill="#000000" font-family="sans-serif" font-size="13" lengthAdjust="spacing" textLength="23.5308" x="353.42" y="404.9384">1:M</text></g><!--link Module to SensorModule--><g id="link_Module_SensorModule"><path codeLine="68" d="M409.8618,359.4525 C438.5818,390.6125 456.5308,410.0744 485.2508,441.2344 " fill="none" id="Module-SensorModule" style="stroke:#181818;stroke-width:1.0;"/><line style="stroke:#181818;stroke-width:1.0;" x1="404.2097" x2="410.0922" y1="359.2222" y2="353.8003"/><line style="stroke:#181818;stroke-width:1.0;" x1="406.2429" x2="412.1254" y1="361.4281" y2="356.0062"/><line style="stroke:#181818;stroke-width:1.0;" x1="409.8618" x2="404.44" y1="359.4525" y2="353.57"/><line style="stroke:#181818;stroke-width:1.0;" x1="492.0282" x2="501.8619" y1="448.5875" y2="450.4036"/><line style="stroke:#181818;stroke-width:1.0;" x1="492.0282" x2="493.0381" y1="448.5875" y2="458.5364"/><line style="stroke:#181818;stroke-width:1.0;" x1="492.0282" x2="497.45" y1="448.5875" y2="454.47"/><ellipse cx="487.9618" cy="444.1757" fill="none" rx="4" ry="4" style="stroke:#181818;stroke-width:1.0;"/><text fill="#000000" font-family="sans-serif" font-size="13" lengthAdjust="spacing" textLength="23.5308" x="451.92" y="404.9384">1:M</text></g><!--link Sensor to SensorModule--><g id="link_Sensor_SensorModule"><path codeLine="69" d="M647.3577,360.276 C627.0877,391.436 616.1618,408.2193 595.9018,439.3793 " fill="none" id="Sensor-SensorModule" style="stroke:#181818;stroke-width:1.0;"/><line style="stroke:#181818;stroke-width:1.0;" x1="646.1858" x2="652.8918" y1="354.7418" y2="359.1042"/><line style="stroke:#181818;stroke-width:1.0;" x1="644.55" x2="651.256" y1="357.2566" y2="361.6189"/><line style="stroke:#181818;stroke-width:1.0;" x1="647.3577" x2="651.72" y1="360.276" y2="353.57"/><line style="stroke:#181818;stroke-width:1.0;" x1="590.4508" x2="591.1202" y1="447.763" y2="457.7406"/><line style="stroke:#181818;stroke-width:1.0;" x1="590.4508" x2="581.0598" y1="447.763" y2="451.1994"/><line style="stroke:#181818;stroke-width:1.0;" x1="590.4508" x2="586.09" y1="447.763" y2="454.47"/><ellipse cx="593.7214" cy="442.7328" fill="none" rx="4" ry="4" style="stroke:#181818;stroke-width:1.0;"/><text fill="#000000" font-family="sans-serif" font-size="13" lengthAdjust="spacing" textLength="23.5308" x="624.09" y="404.9384">1:M</text></g><!--link SensorModule to TelemetryData--><g id="link_SensorModule_TelemetryData"><path codeLine="71" d="M491.7029,575.1284 C465.3529,603.5684 450.9332,619.1159 423.5932,648.6259 " fill="none" id="SensorModule-TelemetryData" style="stroke:#181818;stroke-width:1.0;"/><line style="stroke:#181818;stroke-width:1.0;" x1="491.4873" x2="497.3556" y1="569.4756" y2="574.9127"/><line style="stroke:#181818;stroke-width:1.0;" x1="489.4483" x2="495.3167" y1="571.6763" y2="577.1134"/><line style="stroke:#181818;stroke-width:1.0;" x1="491.7029" x2="497.14" y1="575.1284" y2="569.26"/><line style="stroke:#181818;stroke-width:1.0;" x1="416.797" x2="415.7614" y1="655.9615" y2="665.9077"/><line style="stroke:#181818;stroke-width:1.0;" x1="416.797" x2="406.9586" y1="655.9615" y2="657.7523"/><line style="stroke:#181818;stroke-width:1.0;" x1="416.797" x2="411.36" y1="655.9615" y2="661.83"/><ellipse cx="420.8747" cy="651.5601" fill="none" rx="4" ry="4" style="stroke:#181818;stroke-width:1.0;"/><text fill="#000000" font-family="sans-serif" font-size="13" lengthAdjust="spacing" textLength="23.5308" x="451.42" y="628.8684">1:M</text></g><!--link HouseModule to TelemetryData--><g id="link_HouseModule_TelemetryData"><path codeLine="72" d="M212.578,575.1552 C238.668,603.5952 252.8523,619.0555 279.9223,648.5655 " fill="none" id="HouseModule-TelemetryData" style="stroke:#181818;stroke-width:1.0;"/><line style="stroke:#181818;stroke-width:1.0;" x1="206.9264" x2="212.8216" y1="574.9116" y2="569.5036"/><line style="stroke:#181818;stroke-width:1.0;" x1="208.9545" x2="214.8496" y1="577.1223" y2="571.7142"/><line style="stroke:#181818;stroke-width:1.0;" x1="212.578" x2="207.17" y1="575.1552" y2="569.26"/><line style="stroke:#181818;stroke-width:1.0;" x1="286.6821" x2="296.5115" y1="655.9347" y2="657.7741"/><line style="stroke:#181818;stroke-width:1.0;" x1="286.6821" x2="287.6685" y1="655.9347" y2="665.8859"/><line style="stroke:#181818;stroke-width:1.0;" x1="286.6821" x2="292.09" y1="655.9347" y2="661.83"/><ellipse cx="282.6262" cy="651.5132" fill="none" rx="4" ry="4" style="stroke:#181818;stroke-width:1.0;"/><text fill="#000000" font-family="sans-serif" font-size="13" lengthAdjust="spacing" textLength="23.5308" x="260.3" y="628.8684">1:M</text></g><!--SRC=[dLJBJiCm4BpdAwmUaOg4nCddIXIamg6jE4QBlL1BYHtiJQ1g-NUSEhHkOggsETcpuvtPXuAQ5AtPQEdGZjWcO_wxKPApvV9nSX-kjOzfA96p1gnOWGtmkxAEyaIWW3HUWNDVnieUB2m2eSo1E9F-HAh4x2VBiBCsDTx0VzwIZtSHaDAYSpqnzrc3zSOa2bL2SIWmFoIEj6T6riKLuhIklCZKXvN-ODijUmKIAxJjyS4pNNj04hU1Bj49gofIHdD6-4s3-ayRMRMKl0UMkoTzb6ghyrRcpPW2GSTASzJEsDDIwQnkz_8IhGasIbpHsSHUDQYb5qz4XdrDrp3emRKJHrsNd2smhD22Bn_RESzCqst1OU99pv6D1HPO8jdr10WkT-DCRSLmIW6DhKRBrHgCDo2yGU-KSfyTE7kQlpot9jkVXMUFnsOJ4Z3EHdTyDih2BGvrkVy8Uwap6M5Dzi5UDBQxvmJm92KxGZlcKSkFApg3-0i0]--></g></svg>