<svg xmlns="http://www.w3.org/2000/svg" xmlns:xlink="http://www.w3.org/1999/xlink" contentStyleType="text/css" height="1042px" preserveAspectRatio="none" style="width:1679px;height:1042px;background:#FFFFFF;" version="1.1" viewBox="0 0 1679 1042" width="1679px" zoomAndPan="magnify"><title>Device Service Architecture</title><defs/><g><text fill="#000000" font-family="sans-serif" font-size="14" font-weight="bold" lengthAdjust="spacing" textLength="196.7588" x="734.1206" y="23.5352">Device Service Architecture</text><!--cluster service--><g id="cluster_service"><path d="M45.5,43.4883 L97.4961,43.4883 A3.75,3.75 0 0 1 99.9961,45.9883 L106.9961,65.9766 L1608.5,65.9766 A2.5,2.5 0 0 1 1611,68.4766 L1611,528.7983 A2.5,2.5 0 0 1 1608.5,531.2983 L45.5,531.2983 A2.5,2.5 0 0 1 43,528.7983 L43,45.9883 A2.5,2.5 0 0 1 45.5,43.4883 " fill="none" style="stroke:#000000;stroke-width:1.5;"/><line style="stroke:#000000;stroke-width:1.5;" x1="43" x2="106.9961" y1="65.9766" y2="65.9766"/><text fill="#000000" font-family="sans-serif" font-size="14" font-weight="bold" lengthAdjust="spacing" textLength="50.9961" x="47" y="59.0234">service</text></g><!--cluster repository--><g id="cluster_repository"><path d="M8.5,580.2983 L83.8955,580.2983 A3.75,3.75 0 0 1 86.3955,582.7983 L93.3955,602.7866 L701.5,602.7866 A2.5,2.5 0 0 1 704,605.2866 L704,1032.6383 A2.5,2.5 0 0 1 701.5,1035.1383 L8.5,1035.1383 A2.5,2.5 0 0 1 6,1032.6383 L6,582.7983 A2.5,2.5 0 0 1 8.5,580.2983 " fill="none" style="stroke:#000000;stroke-width:1.5;"/><line style="stroke:#000000;stroke-width:1.5;" x1="6" x2="93.3955" y1="602.7866" y2="602.7866"/><text fill="#000000" font-family="sans-serif" font-size="14" font-weight="bold" lengthAdjust="spacing" textLength="74.3955" x="10" y="595.8334">repository</text></g><!--cluster suppliers--><g id="cluster_suppliers"><path d="M730.5,613.2783 L798.752,613.2783 A3.75,3.75 0 0 1 801.252,615.7783 L808.252,635.7666 L1669.5,635.7666 A2.5,2.5 0 0 1 1672,638.2666 L1672,999.6583 A2.5,2.5 0 0 1 1669.5,1002.1583 L730.5,1002.1583 A2.5,2.5 0 0 1 728,999.6583 L728,615.7783 A2.5,2.5 0 0 1 730.5,613.2783 " fill="none" style="stroke:#000000;stroke-width:1.5;"/><line style="stroke:#000000;stroke-width:1.5;" x1="728" x2="808.252" y1="635.7666" y2="635.7666"/><text fill="#000000" font-family="sans-serif" font-size="14" font-weight="bold" lengthAdjust="spacing" textLength="67.252" x="732" y="628.8134">suppliers</text></g><!--class ModuleLogicService--><g id="elem_ModuleLogicService"><rect codeLine="4" fill="#F1F1F1" height="179.9063" id="ModuleLogicService" rx="2.5" ry="2.5" style="stroke:#181818;stroke-width:0.5;" width="665.7549" x="452.12" y="78.4883"/><ellipse cx="714.0731" cy="94.4883" fill="#ADD1B2" rx="11" ry="11" style="stroke:#181818;stroke-width:1.0;"/><path d="M716.5463,100.6313 Q715.9652,100.9302 715.3261,101.0796 Q714.6869,101.229 713.9813,101.229 Q711.4745,101.229 710.1547,99.5771 Q708.8348,97.9253 708.8348,94.8042 Q708.8348,91.6748 710.1547,90.0229 Q711.4745,88.3711 713.9813,88.3711 Q714.6869,88.3711 715.3344,88.5205 Q715.9818,88.6699 716.5463,88.9688 L716.5463,91.6914 Q715.9154,91.1104 715.3219,90.8406 Q714.7284,90.5708 714.0975,90.5708 Q712.7528,90.5708 712.068,91.6375 Q711.3832,92.7041 711.3832,94.8042 Q711.3832,96.896 712.068,97.9626 Q712.7528,99.0293 714.0975,99.0293 Q714.7284,99.0293 715.3219,98.7595 Q715.9154,98.4897 716.5463,97.9087 Z " fill="#000000"/><text fill="#000000" font-family="sans-serif" font-size="14" lengthAdjust="spacing" textLength="133.3486" x="734.5731" y="99.7793">ModuleLogicService</text><line style="stroke:#181818;stroke-width:0.5;" x1="453.12" x2="1116.8749" y1="110.4883" y2="110.4883"/><rect fill="none" height="6" style="stroke:#C82930;stroke-width:1.0;" width="6" x="460.12" y="121.2324"/><text fill="#000000" font-family="sans-serif" font-size="14" lengthAdjust="spacing" textLength="307.166" x="472.12" y="128.0234">persistenceService: ModulePersistenceService</text><rect fill="none" height="6" style="stroke:#C82930;stroke-width:1.0;" width="6" x="460.12" y="137.7207"/><text fill="#000000" font-family="sans-serif" font-size="14" lengthAdjust="spacing" textLength="352.1533" x="472.12" y="144.5117">messagingService: ExternalSystemMessagingService</text><line style="stroke:#181818;stroke-width:1.0;" x1="453.12" x2="1116.8749" y1="151.4648" y2="151.4648"/><ellipse cx="463.12" cy="165.209" fill="#84BE84" rx="3" ry="3" style="stroke:#038048;stroke-width:1.0;"/><text fill="#000000" font-family="sans-serif" font-size="14" lengthAdjust="spacing" textLength="385.3486" x="472.12" y="169">ProcessMessage(event: schemas.BaseEvent): (bool, error)</text><ellipse cx="463.12" cy="181.6973" fill="#84BE84" rx="3" ry="3" style="stroke:#038048;stroke-width:1.0;"/><text fill="#000000" font-family="sans-serif" font-size="14" lengthAdjust="spacing" textLength="437.7939" x="472.12" y="185.4883">TurnOnModule(houseID: uuid.UUID, moduleID: uuid.UUID): error</text><ellipse cx="463.12" cy="198.1855" fill="#84BE84" rx="3" ry="3" style="stroke:#038048;stroke-width:1.0;"/><text fill="#000000" font-family="sans-serif" font-size="14" lengthAdjust="spacing" textLength="439.4004" x="472.12" y="201.9766">TurnOffModule(houseID: uuid.UUID, moduleID: uuid.UUID): error</text><ellipse cx="463.12" cy="214.6738" fill="#84BE84" rx="3" ry="3" style="stroke:#038048;stroke-width:1.0;"/><text fill="#000000" font-family="sans-serif" font-size="14" lengthAdjust="spacing" textLength="639.7549" x="472.12" y="218.4648">GetModuleState(houseID: uuid.UUID, moduleID: uuid.UUID): *web_schemas.HouseModuleState</text><ellipse cx="463.12" cy="231.1621" fill="#84BE84" rx="3" ry="3" style="stroke:#038048;stroke-width:1.0;"/><text fill="#000000" font-family="sans-serif" font-size="14" lengthAdjust="spacing" textLength="297.4863" x="472.12" y="234.9531">GetAllModules(): []web_schemas.ModuleOut</text><ellipse cx="463.12" cy="247.6504" fill="#84BE84" rx="3" ry="3" style="stroke:#038048;stroke-width:1.0;"/><text fill="#000000" font-family="sans-serif" font-size="14" lengthAdjust="spacing" textLength="485.0098" x="472.12" y="251.4414">GetModulesByHouseID(houseID: uuid.UUID): []web_schemas.ModuleOut</text></g><!--class ModulePersistenceService--><g id="elem_ModulePersistenceService"><rect codeLine="16" fill="#F1F1F1" height="179.9063" id="ModulePersistenceService" rx="2.5" ry="2.5" style="stroke:#181818;stroke-width:0.5;" width="665.7549" x="59.12" y="335.3983"/><ellipse cx="300.9379" cy="351.3983" fill="#ADD1B2" rx="11" ry="11" style="stroke:#181818;stroke-width:1.0;"/><path d="M303.411,357.5413 Q302.83,357.8402 302.1908,357.9896 Q301.5516,358.139 300.8461,358.139 Q298.3392,358.139 297.0194,356.4871 Q295.6996,354.8353 295.6996,351.7142 Q295.6996,348.5848 297.0194,346.9329 Q298.3392,345.2811 300.8461,345.2811 Q301.5516,345.2811 302.1991,345.4305 Q302.8466,345.5799 303.411,345.8787 L303.411,348.6014 Q302.7802,348.0204 302.1867,347.7506 Q301.5931,347.4808 300.9623,347.4808 Q299.6176,347.4808 298.9327,348.5475 Q298.2479,349.6141 298.2479,351.7142 Q298.2479,353.806 298.9327,354.8726 Q299.6176,355.9393 300.9623,355.9393 Q301.5931,355.9393 302.1867,355.6695 Q302.7802,355.3997 303.411,354.8187 Z " fill="#000000"/><text fill="#000000" font-family="sans-serif" font-size="14" lengthAdjust="spacing" textLength="173.6191" x="321.4379" y="356.6893">ModulePersistenceService</text><line style="stroke:#181818;stroke-width:0.5;" x1="60.12" x2="723.8749" y1="367.3983" y2="367.3983"/><rect fill="none" height="6" style="stroke:#C82930;stroke-width:1.0;" width="6" x="67.12" y="378.1424"/><text fill="#000000" font-family="sans-serif" font-size="14" lengthAdjust="spacing" textLength="273.4238" x="79.12" y="384.9334">repository: repository.ModuleRepository</text><line style="stroke:#181818;stroke-width:1.0;" x1="60.12" x2="723.8749" y1="391.8866" y2="391.8866"/><ellipse cx="70.12" cy="405.6307" fill="#84BE84" rx="3" ry="3" style="stroke:#038048;stroke-width:1.0;"/><text fill="#000000" font-family="sans-serif" font-size="14" lengthAdjust="spacing" textLength="297.4863" x="79.12" y="409.4217">GetAllModules(): []web_schemas.ModuleOut</text><ellipse cx="70.12" cy="422.119" fill="#84BE84" rx="3" ry="3" style="stroke:#038048;stroke-width:1.0;"/><text fill="#000000" font-family="sans-serif" font-size="14" lengthAdjust="spacing" textLength="485.0098" x="79.12" y="425.91">GetModulesByHouseID(houseID: uuid.UUID): []web_schemas.ModuleOut</text><ellipse cx="70.12" cy="438.6073" fill="#84BE84" rx="3" ry="3" style="stroke:#038048;stroke-width:1.0;"/><text fill="#000000" font-family="sans-serif" font-size="14" lengthAdjust="spacing" textLength="639.7549" x="79.12" y="442.3983">GetModuleState(houseID: uuid.UUID, moduleID: uuid.UUID): *web_schemas.HouseModuleState</text><ellipse cx="70.12" cy="455.0955" fill="#84BE84" rx="3" ry="3" style="stroke:#038048;stroke-width:1.0;"/><text fill="#000000" font-family="sans-serif" font-size="14" lengthAdjust="spacing" textLength="437.7939" x="79.12" y="458.8866">TurnOnModule(houseID: uuid.UUID, moduleID: uuid.UUID): error</text><ellipse cx="70.12" cy="471.5838" fill="#84BE84" rx="3" ry="3" style="stroke:#038048;stroke-width:1.0;"/><text fill="#000000" font-family="sans-serif" font-size="14" lengthAdjust="spacing" textLength="439.4004" x="79.12" y="475.3748">TurnOffModule(houseID: uuid.UUID, moduleID: uuid.UUID): error</text><ellipse cx="70.12" cy="488.0721" fill="#84BE84" rx="3" ry="3" style="stroke:#038048;stroke-width:1.0;"/><text fill="#000000" font-family="sans-serif" font-size="14" lengthAdjust="spacing" textLength="549.9854" x="79.12" y="491.8631">AcceptAdditionModuleToHouse(houseID: uuid.UUID, moduleID: uuid.UUID): error</text><ellipse cx="70.12" cy="504.5604" fill="#84BE84" rx="3" ry="3" style="stroke:#038048;stroke-width:1.0;"/><text fill="#000000" font-family="sans-serif" font-size="14" lengthAdjust="spacing" textLength="527.4678" x="79.12" y="508.3514">FailAdditionModuleToHouse(houseID: uuid.UUID, moduleID: uuid.UUID): error</text></g><!--class ExternalSystemMessagingService--><g id="elem_ExternalSystemMessagingService"><rect codeLine="28" fill="#F1F1F1" height="113.9531" id="ExternalSystemMessagingService" rx="2.5" ry="2.5" style="stroke:#181818;stroke-width:0.5;" width="835.0947" x="759.45" y="368.3683"/><ellipse cx="1061.3011" cy="384.3683" fill="#ADD1B2" rx="11" ry="11" style="stroke:#181818;stroke-width:1.0;"/><path d="M1063.7742,390.5113 Q1063.1932,390.8102 1062.554,390.9596 Q1061.9148,391.109 1061.2093,391.109 Q1058.7024,391.109 1057.3826,389.4571 Q1056.0628,387.8053 1056.0628,384.6842 Q1056.0628,381.5548 1057.3826,379.9029 Q1058.7024,378.2511 1061.2093,378.2511 Q1061.9148,378.2511 1062.5623,378.4005 Q1063.2098,378.5499 1063.7742,378.8488 L1063.7742,381.5714 Q1063.1434,380.9904 1062.5499,380.7206 Q1061.9563,380.4508 1061.3255,380.4508 Q1059.9808,380.4508 1059.2959,381.5175 Q1058.6111,382.5841 1058.6111,384.6842 Q1058.6111,386.776 1059.2959,387.8426 Q1059.9808,388.9093 1061.3255,388.9093 Q1061.9563,388.9093 1062.5499,388.6395 Q1063.1434,388.3697 1063.7742,387.7887 Z " fill="#000000"/><text fill="#000000" font-family="sans-serif" font-size="14" lengthAdjust="spacing" textLength="222.8926" x="1081.8011" y="389.6593">ExternalSystemMessagingService</text><line style="stroke:#181818;stroke-width:0.5;" x1="760.45" x2="1593.5447" y1="400.3683" y2="400.3683"/><rect fill="none" height="6" style="stroke:#C82930;stroke-width:1.0;" width="6" x="767.45" y="411.1124"/><text fill="#000000" font-family="sans-serif" font-size="14" lengthAdjust="spacing" textLength="283.3086" x="779.45" y="417.9034">supplier: suppliers.KafkaSupplierInterface</text><line style="stroke:#181818;stroke-width:1.0;" x1="760.45" x2="1593.5447" y1="424.8566" y2="424.8566"/><ellipse cx="770.45" cy="438.6007" fill="#84BE84" rx="3" ry="3" style="stroke:#038048;stroke-width:1.0;"/><text fill="#000000" font-family="sans-serif" font-size="14" lengthAdjust="spacing" textLength="718.9355" x="779.45" y="442.3917">SendModuleAdditionEvent(ctx: context.Context, key: []byte, event: schemas.HomeVerificationEvent): error</text><ellipse cx="770.45" cy="455.089" fill="#84BE84" rx="3" ry="3" style="stroke:#038048;stroke-width:1.0;"/><text fill="#000000" font-family="sans-serif" font-size="14" lengthAdjust="spacing" textLength="809.0947" x="779.45" y="458.88">SendEquipmentStateChangeEvent(ctx: context.Context, key: []byte, event: schemas.ChangeEquipmentStateEvent): error</text><ellipse cx="770.45" cy="471.5773" fill="#84BE84" rx="3" ry="3" style="stroke:#038048;stroke-width:1.0;"/><text fill="#000000" font-family="sans-serif" font-size="14" lengthAdjust="spacing" textLength="484.9961" x="779.45" y="475.3683">ReadModuleVerificationEvent(ctx: context.Context): schemas.BaseEvent</text></g><!--class ModuleRepository--><g id="elem_ModuleRepository"><rect codeLine="38" fill="#F1F1F1" height="163.418" id="ModuleRepository" rx="2.5" ry="2.5" style="stroke:#181818;stroke-width:0.5;" width="665.7549" x="22.12" y="615.2983"/><ellipse cx="289.682" cy="631.2983" fill="#B4A7E5" rx="11" ry="11" style="stroke:#181818;stroke-width:1.0;"/><path d="M286.1097,627.5634 L286.1097,625.4052 L293.4891,625.4052 L293.4891,627.5634 L291.0238,627.5634 L291.0238,635.6401 L293.4891,635.6401 L293.4891,637.7983 L286.1097,637.7983 L286.1097,635.6401 L288.5751,635.6401 L288.5751,627.5634 Z " fill="#000000"/><text fill="#000000" font-family="sans-serif" font-size="14" font-style="italic" lengthAdjust="spacing" textLength="122.1309" x="310.182" y="636.5893">ModuleRepository</text><line style="stroke:#181818;stroke-width:0.5;" x1="23.12" x2="686.8749" y1="647.2983" y2="647.2983"/><line style="stroke:#181818;stroke-width:0.5;" x1="23.12" x2="686.8749" y1="655.2983" y2="655.2983"/><ellipse cx="33.12" cy="669.0424" fill="#84BE84" rx="3" ry="3" style="stroke:#038048;stroke-width:1.0;"/><text fill="#000000" font-family="sans-serif" font-size="14" lengthAdjust="spacing" textLength="297.4863" x="42.12" y="672.8334">GetAllModules(): []web_schemas.ModuleOut</text><ellipse cx="33.12" cy="685.5307" fill="#84BE84" rx="3" ry="3" style="stroke:#038048;stroke-width:1.0;"/><text fill="#000000" font-family="sans-serif" font-size="14" lengthAdjust="spacing" textLength="485.0098" x="42.12" y="689.3217">GetModulesByHouseID(houseID: uuid.UUID): []web_schemas.ModuleOut</text><ellipse cx="33.12" cy="702.019" fill="#84BE84" rx="3" ry="3" style="stroke:#038048;stroke-width:1.0;"/><text fill="#000000" font-family="sans-serif" font-size="14" lengthAdjust="spacing" textLength="639.7549" x="42.12" y="705.81">GetModuleState(houseID: uuid.UUID, moduleID: uuid.UUID): *web_schemas.HouseModuleState</text><ellipse cx="33.12" cy="718.5073" fill="#84BE84" rx="3" ry="3" style="stroke:#038048;stroke-width:1.0;"/><text fill="#000000" font-family="sans-serif" font-size="14" lengthAdjust="spacing" textLength="437.7939" x="42.12" y="722.2983">TurnOnModule(houseID: uuid.UUID, moduleID: uuid.UUID): error</text><ellipse cx="33.12" cy="734.9955" fill="#84BE84" rx="3" ry="3" style="stroke:#038048;stroke-width:1.0;"/><text fill="#000000" font-family="sans-serif" font-size="14" lengthAdjust="spacing" textLength="439.4004" x="42.12" y="738.7866">TurnOffModule(houseID: uuid.UUID, moduleID: uuid.UUID): error</text><ellipse cx="33.12" cy="751.4838" fill="#84BE84" rx="3" ry="3" style="stroke:#038048;stroke-width:1.0;"/><text fill="#000000" font-family="sans-serif" font-size="14" lengthAdjust="spacing" textLength="549.9854" x="42.12" y="755.2748">AcceptAdditionModuleToHouse(houseID: uuid.UUID, moduleID: uuid.UUID): error</text><ellipse cx="33.12" cy="767.9721" fill="#84BE84" rx="3" ry="3" style="stroke:#038048;stroke-width:1.0;"/><text fill="#000000" font-family="sans-serif" font-size="14" lengthAdjust="spacing" textLength="527.4678" x="42.12" y="771.7631">FailAdditionModuleToHouse(houseID: uuid.UUID, moduleID: uuid.UUID): error</text></g><!--class GORMModuleRepository--><g id="elem_GORMModuleRepository"><rect codeLine="48" fill="#F1F1F1" height="163.418" id="GORMModuleRepository" rx="2.5" ry="2.5" style="stroke:#181818;stroke-width:0.5;" width="665.7549" x="22.12" y="855.7183"/><ellipse cx="268.7299" cy="871.7183" fill="#ADD1B2" rx="11" ry="11" style="stroke:#181818;stroke-width:1.0;"/><path d="M271.203,877.8613 Q270.622,878.1602 269.9828,878.3096 Q269.3436,878.459 268.6381,878.459 Q266.1312,878.459 264.8114,876.8071 Q263.4916,875.1553 263.4916,872.0342 Q263.4916,868.9048 264.8114,867.2529 Q266.1312,865.6011 268.6381,865.6011 Q269.3436,865.6011 269.9911,865.7505 Q270.6386,865.8999 271.203,866.1988 L271.203,868.9214 Q270.5721,868.3404 269.9786,868.0706 Q269.3851,867.8008 268.7543,867.8008 Q267.4096,867.8008 266.7247,868.8675 Q266.0399,869.9341 266.0399,872.0342 Q266.0399,874.126 266.7247,875.1926 Q267.4096,876.2593 268.7543,876.2593 Q269.3851,876.2593 269.9786,875.9895 Q270.5721,875.7197 271.203,875.1387 Z " fill="#000000"/><text fill="#000000" font-family="sans-serif" font-size="14" lengthAdjust="spacing" textLength="164.0352" x="289.2299" y="877.0093">GORMModuleRepository</text><line style="stroke:#181818;stroke-width:0.5;" x1="23.12" x2="686.8749" y1="887.7183" y2="887.7183"/><line style="stroke:#181818;stroke-width:1.0;" x1="23.12" x2="686.8749" y1="895.7183" y2="895.7183"/><ellipse cx="33.12" cy="909.4624" fill="#84BE84" rx="3" ry="3" style="stroke:#038048;stroke-width:1.0;"/><text fill="#000000" font-family="sans-serif" font-size="14" lengthAdjust="spacing" textLength="297.4863" x="42.12" y="913.2534">GetAllModules(): []web_schemas.ModuleOut</text><ellipse cx="33.12" cy="925.9507" fill="#84BE84" rx="3" ry="3" style="stroke:#038048;stroke-width:1.0;"/><text fill="#000000" font-family="sans-serif" font-size="14" lengthAdjust="spacing" textLength="485.0098" x="42.12" y="929.7417">GetModulesByHouseID(houseID: uuid.UUID): []web_schemas.ModuleOut</text><ellipse cx="33.12" cy="942.439" fill="#84BE84" rx="3" ry="3" style="stroke:#038048;stroke-width:1.0;"/><text fill="#000000" font-family="sans-serif" font-size="14" lengthAdjust="spacing" textLength="639.7549" x="42.12" y="946.23">GetModuleState(houseID: uuid.UUID, moduleID: uuid.UUID): *web_schemas.HouseModuleState</text><ellipse cx="33.12" cy="958.9273" fill="#84BE84" rx="3" ry="3" style="stroke:#038048;stroke-width:1.0;"/><text fill="#000000" font-family="sans-serif" font-size="14" lengthAdjust="spacing" textLength="437.7939" x="42.12" y="962.7183">TurnOnModule(houseID: uuid.UUID, moduleID: uuid.UUID): error</text><ellipse cx="33.12" cy="975.4155" fill="#84BE84" rx="3" ry="3" style="stroke:#038048;stroke-width:1.0;"/><text fill="#000000" font-family="sans-serif" font-size="14" lengthAdjust="spacing" textLength="439.4004" x="42.12" y="979.2066">TurnOffModule(houseID: uuid.UUID, moduleID: uuid.UUID): error</text><ellipse cx="33.12" cy="991.9038" fill="#84BE84" rx="3" ry="3" style="stroke:#038048;stroke-width:1.0;"/><text fill="#000000" font-family="sans-serif" font-size="14" lengthAdjust="spacing" textLength="549.9854" x="42.12" y="995.6948">AcceptAdditionModuleToHouse(houseID: uuid.UUID, moduleID: uuid.UUID): error</text><ellipse cx="33.12" cy="1008.3921" fill="#84BE84" rx="3" ry="3" style="stroke:#038048;stroke-width:1.0;"/><text fill="#000000" font-family="sans-serif" font-size="14" lengthAdjust="spacing" textLength="527.4678" x="42.12" y="1012.1831">FailAdditionModuleToHouse(houseID: uuid.UUID, moduleID: uuid.UUID): error</text></g><!--class KafkaSupplierInterface--><g id="elem_KafkaSupplierInterface"><rect codeLine="61" fill="#F1F1F1" height="97.4648" id="KafkaSupplierInterface" rx="2.5" ry="2.5" style="stroke:#181818;stroke-width:0.5;" width="911.8623" x="744.07" y="648.2783"/><ellipse cx="1119.3801" cy="664.2783" fill="#B4A7E5" rx="11" ry="11" style="stroke:#181818;stroke-width:1.0;"/><path d="M1115.8078,660.5434 L1115.8078,658.3852 L1123.1872,658.3852 L1123.1872,660.5434 L1120.7219,660.5434 L1120.7219,668.6201 L1123.1872,668.6201 L1123.1872,670.7783 L1115.8078,670.7783 L1115.8078,668.6201 L1118.2731,668.6201 L1118.2731,660.5434 Z " fill="#000000"/><text fill="#000000" font-family="sans-serif" font-size="14" font-style="italic" lengthAdjust="spacing" textLength="152.7422" x="1139.8801" y="669.5693">KafkaSupplierInterface</text><line style="stroke:#181818;stroke-width:0.5;" x1="745.07" x2="1654.9323" y1="680.2783" y2="680.2783"/><line style="stroke:#181818;stroke-width:0.5;" x1="745.07" x2="1654.9323" y1="688.2783" y2="688.2783"/><ellipse cx="755.07" cy="702.0224" fill="#84BE84" rx="3" ry="3" style="stroke:#038048;stroke-width:1.0;"/><text fill="#000000" font-family="sans-serif" font-size="14" lengthAdjust="spacing" textLength="745.6982" x="764.07" y="705.8134">SendMessageToAdditionTopic(ctx: context.Context, key: []byte, event: schemas.HomeVerificationEvent): error</text><ellipse cx="755.07" cy="718.5107" fill="#84BE84" rx="3" ry="3" style="stroke:#038048;stroke-width:1.0;"/><text fill="#000000" font-family="sans-serif" font-size="14" lengthAdjust="spacing" textLength="885.8623" x="764.07" y="722.3017">SendMessageToEquipmentChangeStateTopic(ctx: context.Context, key: []byte, event: schemas.ChangeEquipmentStateEvent): error</text><ellipse cx="755.07" cy="734.999" fill="#84BE84" rx="3" ry="3" style="stroke:#038048;stroke-width:1.0;"/><text fill="#000000" font-family="sans-serif" font-size="14" lengthAdjust="spacing" textLength="455.2734" x="764.07" y="738.79">ReadModuleVerificationTopic(ctx: context.Context): kafka.Message</text></g><!--class KafkaSupplier--><g id="elem_KafkaSupplier"><rect codeLine="67" fill="#F1F1F1" height="97.4648" id="KafkaSupplier" rx="2.5" ry="2.5" style="stroke:#181818;stroke-width:0.5;" width="911.8623" x="744.07" y="888.6983"/><ellipse cx="1149.048" cy="904.6983" fill="#ADD1B2" rx="11" ry="11" style="stroke:#181818;stroke-width:1.0;"/><path d="M1151.5212,910.8413 Q1150.9401,911.1402 1150.301,911.2896 Q1149.6618,911.439 1148.9562,911.439 Q1146.4494,911.439 1145.1296,909.7871 Q1143.8097,908.1353 1143.8097,905.0142 Q1143.8097,901.8848 1145.1296,900.2329 Q1146.4494,898.5811 1148.9562,898.5811 Q1149.6618,898.5811 1150.3093,898.7305 Q1150.9567,898.8799 1151.5212,899.1787 L1151.5212,901.9014 Q1150.8903,901.3204 1150.2968,901.0506 Q1149.7033,900.7808 1149.0724,900.7808 Q1147.7277,900.7808 1147.0429,901.8475 Q1146.3581,902.9141 1146.3581,905.0142 Q1146.3581,907.106 1147.0429,908.1726 Q1147.7277,909.2393 1149.0724,909.2393 Q1149.7033,909.2393 1150.2968,908.9695 Q1150.8903,908.6997 1151.5212,908.1187 Z " fill="#000000"/><text fill="#000000" font-family="sans-serif" font-size="14" lengthAdjust="spacing" textLength="93.4063" x="1169.548" y="909.9893">KafkaSupplier</text><line style="stroke:#181818;stroke-width:0.5;" x1="745.07" x2="1654.9323" y1="920.6983" y2="920.6983"/><line style="stroke:#181818;stroke-width:1.0;" x1="745.07" x2="1654.9323" y1="928.6983" y2="928.6983"/><ellipse cx="755.07" cy="942.4424" fill="#84BE84" rx="3" ry="3" style="stroke:#038048;stroke-width:1.0;"/><text fill="#000000" font-family="sans-serif" font-size="14" lengthAdjust="spacing" textLength="745.6982" x="764.07" y="946.2334">SendMessageToAdditionTopic(ctx: context.Context, key: []byte, event: schemas.HomeVerificationEvent): error</text><ellipse cx="755.07" cy="958.9307" fill="#84BE84" rx="3" ry="3" style="stroke:#038048;stroke-width:1.0;"/><text fill="#000000" font-family="sans-serif" font-size="14" lengthAdjust="spacing" textLength="885.8623" x="764.07" y="962.7217">SendMessageToEquipmentChangeStateTopic(ctx: context.Context, key: []byte, event: schemas.ChangeEquipmentStateEvent): error</text><ellipse cx="755.07" cy="975.419" fill="#84BE84" rx="3" ry="3" style="stroke:#038048;stroke-width:1.0;"/><text fill="#000000" font-family="sans-serif" font-size="14" lengthAdjust="spacing" textLength="455.2734" x="764.07" y="979.21">ReadModuleVerificationTopic(ctx: context.Context): kafka.Message</text></g><!--link ModuleLogicService to ModulePersistenceService--><g id="link_ModuleLogicService_ModulePersistenceService"><path codeLine="75" d="M647.27,258.7783 C609.22,283.4583 572.9536,306.9829 534.8936,331.6729 " fill="none" id="ModuleLogicService-to-ModulePersistenceService" style="stroke:#181818;stroke-width:1.0;"/><polygon fill="#181818" points="529.86,334.9383,539.5873,333.396,534.0547,332.2171,535.2335,326.6845,529.86,334.9383" style="stroke:#181818;stroke-width:1.0;"/><text fill="#000000" font-family="sans-serif" font-size="13" lengthAdjust="spacing" textLength="28.5645" x="601.28" y="301.9666">uses</text></g><!--link ModuleLogicService to ExternalSystemMessagingService--><g id="link_ModuleLogicService_ExternalSystemMessagingService"><path codeLine="76" d="M922.38,258.7783 C978.21,295.0883 1036.0097,332.6678 1085.2897,364.7078 " fill="none" id="ModuleLogicService-to-ExternalSystemMessagingService" style="stroke:#181818;stroke-width:1.0;"/><polygon fill="#181818" points="1090.32,367.9783,1084.9549,359.719,1086.1281,365.2529,1080.5942,366.4261,1090.32,367.9783" style="stroke:#181818;stroke-width:1.0;"/><text fill="#000000" font-family="sans-serif" font-size="13" lengthAdjust="spacing" textLength="28.5645" x="993.75" y="301.9666">uses</text></g><!--link ModulePersistenceService to ModuleRepository--><g id="link_ModulePersistenceService_ModuleRepository"><path codeLine="77" d="M379.73,515.7683 C375.33,547.8083 371.2269,577.7841 366.9269,609.0741 " fill="none" id="ModulePersistenceService-to-ModuleRepository" style="stroke:#181818;stroke-width:1.0;"/><polygon fill="#181818" points="366.11,615.0183,371.2981,606.6467,366.7907,610.0648,363.3725,605.5575,366.11,615.0183" style="stroke:#181818;stroke-width:1.0;"/><text fill="#000000" font-family="sans-serif" font-size="13" lengthAdjust="spacing" textLength="28.5645" x="375.61" y="560.8666">uses</text></g><!--reverse link ModuleRepository to GORMModuleRepository--><g id="link_ModuleRepository_GORMModuleRepository"><path codeLine="78" d="M355,797.0583 C355,821.7683 355,830.9183 355,855.6083 " fill="none" id="ModuleRepository-backto-GORMModuleRepository" style="stroke:#181818;stroke-width:1.0;"/><polygon fill="none" points="355,779.0583,349,797.0583,361,797.0583,355,779.0583" style="stroke:#181818;stroke-width:1.0;"/><text fill="#000000" font-family="sans-serif" font-size="13" lengthAdjust="spacing" textLength="74.0137" x="356" y="822.2866">implements</text></g><!--link ExternalSystemMessagingService to KafkaSupplierInterface--><g id="link_ExternalSystemMessagingService_KafkaSupplierInterface"><path codeLine="79" d="M1181.79,482.5483 C1185.97,531.4783 1191.4405,595.67 1195.3905,642.02 " fill="none" id="ExternalSystemMessagingService-to-KafkaSupplierInterface" style="stroke:#181818;stroke-width:1.0;"/><polygon fill="#181818" points="1195.9,647.9983,1199.1213,638.6911,1195.4754,643.0163,1191.1502,639.3704,1195.9,647.9983" style="stroke:#181818;stroke-width:1.0;"/><text fill="#000000" font-family="sans-serif" font-size="13" lengthAdjust="spacing" textLength="28.5645" x="1189.5" y="560.8666">uses</text></g><!--reverse link KafkaSupplierInterface to KafkaSupplier--><g id="link_KafkaSupplierInterface_KafkaSupplier"><path codeLine="80" d="M1200,763.9683 C1200,805.4483 1200,847.0983 1200,888.5483 " fill="none" id="KafkaSupplierInterface-backto-KafkaSupplier" style="stroke:#181818;stroke-width:1.0;"/><polygon fill="none" points="1200,745.9683,1194,763.9683,1206,763.9683,1200,745.9683" style="stroke:#181818;stroke-width:1.0;"/><text fill="#000000" font-family="sans-serif" font-size="13" lengthAdjust="spacing" textLength="74.0137" x="1201" y="822.2866">implements</text></g><!--SRC=[xLTDZzem4BtpAwmzGKlu0L5LYLteWbh42jXUggeopX0iaZYrdIsetVzU9qw2JH9GbtuTaak29-_DPFBy9aWg0q0ZUA84q19uTXvoigKIY4muT3en9Zli0xeHEdo3ldUGEaY0XK0pvYK1V60-9GLSXzF3GJ5mGOM4Y40UTdF8GoLYm48G0liqyalGU2-1HpXO7XGcd9t4Zr2dl7oD7ZWZwaPzCtJX2IBf8a6s468nkCK2nkbIpqNTDMD17m7dZFSCXbN2etca2-vkMI9WEd9Hab1lyFWu7VLHc8MiHKMNyPpIR3PNyzo3r1nBYUMl4Btw1kilnODFKfZ1OoSO1e6EYQu2Vlfi8dLWdiYwciJjOQ8BgYdi0jLpfoAfgZuiON68cQ2IyODhNEUqYtAXNXZ_wZ7_qblyprGx90HYEVGyAYdBorgnhFuhMDzX6lm-Jak0vxt6ag58uZYWmDtoIWpUuyqEB_EVqqXnRN2JHIqXydJrnRDabjGbSkyYmXHuBmTt-jn7EpYa0biV92YpikrimaBu29nkAC4bJqtVqepZhmcDGnNFb7EtnP4FBysReot6fjmBmFdJLYgjpTohSUlyTJqRW-cu_ulPH8kkerD3CDvUwmEj3vprWVlvOdP6F-r8QQLqLagcHvNZeMfHzVF2CgfiJEZFs1KhIbonc98_F2dAfAN1Qx_FzF7I0guV6SsP5SKkxUSWhxowgwrsDstdjk5NDborlEQleUEyRVwyLnj9W6Y2NVWeiy0rvCVCXfTR86FzpG_7gNT_5z4m3Y3jekXSA2bDsR2tyyGDqIozBLCpxqy0]--></g></svg>