<svg xmlns="http://www.w3.org/2000/svg" xmlns:xlink="http://www.w3.org/1999/xlink" contentStyleType="text/css" height="1074px" preserveAspectRatio="none" style="width:2370px;height:1074px;background:#FFFFFF;" version="1.1" viewBox="0 0 2370 1074" width="2370px" zoomAndPan="magnify"><title>User Service Code Architecture</title><defs/><g><text fill="#000000" font-family="sans-serif" font-size="14" font-weight="bold" lengthAdjust="spacing" textLength="222.7422" x="1067.0889" y="23.5352">User Service Code Architecture</text><!--cluster suppliers--><g id="cluster_suppliers"><path d="M1437.5,498.5683 L1505.752,498.5683 A3.75,3.75 0 0 1 1508.252,501.0683 L1515.252,521.0566 L2300.5,521.0566 A2.5,2.5 0 0 1 2303,523.5566 L2303,661.0183 A2.5,2.5 0 0 1 2300.5,663.5183 L1437.5,663.5183 A2.5,2.5 0 0 1 1435,661.0183 L1435,501.0683 A2.5,2.5 0 0 1 1437.5,498.5683 " fill="none" style="stroke:#000000;stroke-width:1.5;"/><line style="stroke:#000000;stroke-width:1.5;" x1="1435" x2="1515.252" y1="521.0566" y2="521.0566"/><text fill="#000000" font-family="sans-serif" font-size="14" font-weight="bold" lengthAdjust="spacing" textLength="67.252" x="1439" y="514.1034">suppliers</text></g><!--cluster shared--><g id="cluster_shared"><path d="M8.5,43.4883 L58.6846,43.4883 A3.75,3.75 0 0 1 61.1846,45.9883 L68.1846,65.9766 L301.5,65.9766 A2.5,2.5 0 0 1 304,68.4766 L304,445.8483 A2.5,2.5 0 0 1 301.5,448.3483 L8.5,448.3483 A2.5,2.5 0 0 1 6,445.8483 L6,45.9883 A2.5,2.5 0 0 1 8.5,43.4883 " fill="none" style="stroke:#000000;stroke-width:1.5;"/><line style="stroke:#000000;stroke-width:1.5;" x1="6" x2="68.1846" y1="65.9766" y2="65.9766"/><text fill="#000000" font-family="sans-serif" font-size="14" font-weight="bold" lengthAdjust="spacing" textLength="49.1846" x="10" y="59.0234">shared</text></g><!--cluster service--><g id="cluster_service"><path d="M330.5,217.4383 L382.4961,217.4383 A3.75,3.75 0 0 1 384.9961,219.9383 L391.9961,239.9266 L1408.5,239.9266 A2.5,2.5 0 0 1 1411,242.4266 L1411,685.7583 A2.5,2.5 0 0 1 1408.5,688.2583 L330.5,688.2583 A2.5,2.5 0 0 1 328,685.7583 L328,219.9383 A2.5,2.5 0 0 1 330.5,217.4383 " fill="none" style="stroke:#000000;stroke-width:1.5;"/><line style="stroke:#000000;stroke-width:1.5;" x1="328" x2="391.9961" y1="239.9266" y2="239.9266"/><text fill="#000000" font-family="sans-serif" font-size="14" font-weight="bold" lengthAdjust="spacing" textLength="50.9961" x="332" y="232.9734">service</text></g><!--cluster repository--><g id="cluster_repository"><path d="M1055.5,712.2583 L1130.8955,712.2583 A3.75,3.75 0 0 1 1133.3955,714.7583 L1140.3955,734.7466 L2101.5,734.7466 A2.5,2.5 0 0 1 2104,737.2466 L2104,1065.1483 A2.5,2.5 0 0 1 2101.5,1067.6483 L1055.5,1067.6483 A2.5,2.5 0 0 1 1053,1065.1483 L1053,714.7583 A2.5,2.5 0 0 1 1055.5,712.2583 " fill="none" style="stroke:#000000;stroke-width:1.5;"/><line style="stroke:#000000;stroke-width:1.5;" x1="1053" x2="1140.3955" y1="734.7466" y2="734.7466"/><text fill="#000000" font-family="sans-serif" font-size="14" font-weight="bold" lengthAdjust="spacing" textLength="74.3955" x="1057" y="727.7934">repository</text></g><!--class KafkaSupplier--><g id="elem_KafkaSupplier"><rect codeLine="4" fill="#F1F1F1" height="113.9531" id="KafkaSupplier" rx="2.5" ry="2.5" style="stroke:#181818;stroke-width:0.5;" width="836.6191" x="1450.69" y="533.5683"/><ellipse cx="1818.0464" cy="549.5683" fill="#ADD1B2" rx="11" ry="11" style="stroke:#181818;stroke-width:1.0;"/><path d="M1820.5196,555.7113 Q1819.9385,556.0102 1819.2994,556.1596 Q1818.6602,556.309 1817.9546,556.309 Q1815.4478,556.309 1814.128,554.6571 Q1812.8082,553.0053 1812.8082,549.8842 Q1812.8082,546.7548 1814.128,545.1029 Q1815.4478,543.4511 1817.9546,543.4511 Q1818.6602,543.4511 1819.3077,543.6005 Q1819.9551,543.7499 1820.5196,544.0488 L1820.5196,546.7714 Q1819.8887,546.1904 1819.2952,545.9206 Q1818.7017,545.6508 1818.0709,545.6508 Q1816.7261,545.6508 1816.0413,546.7175 Q1815.3565,547.7841 1815.3565,549.8842 Q1815.3565,551.976 1816.0413,553.0426 Q1816.7261,554.1093 1818.0709,554.1093 Q1818.7017,554.1093 1819.2952,553.8395 Q1819.8887,553.5697 1820.5196,552.9887 Z " fill="#000000"/><text fill="#000000" font-family="sans-serif" font-size="14" lengthAdjust="spacing" textLength="93.4063" x="1838.5464" y="554.8593">KafkaSupplier</text><line style="stroke:#181818;stroke-width:0.5;" x1="1451.69" x2="2286.3091" y1="565.5683" y2="565.5683"/><rect fill="none" height="6" style="stroke:#C82930;stroke-width:1.0;" width="6" x="1458.69" y="576.3124"/><text fill="#000000" font-family="sans-serif" font-size="14" lengthAdjust="spacing" textLength="246.1826" x="1470.69" y="583.1034">verifyHouseConsumer: kafka.Reader</text><rect fill="none" height="6" style="stroke:#C82930;stroke-width:1.0;" width="6" x="1458.69" y="592.8007"/><text fill="#000000" font-family="sans-serif" font-size="14" lengthAdjust="spacing" textLength="230.8428" x="1470.69" y="599.5917">verifyHouseProducer: kafka.Writer</text><line style="stroke:#181818;stroke-width:0.5;" x1="1451.69" x2="2286.3091" y1="606.5448" y2="606.5448"/><ellipse cx="1461.69" cy="620.289" fill="#84BE84" rx="3" ry="3" style="stroke:#038048;stroke-width:1.0;"/><text fill="#000000" font-family="sans-serif" font-size="14" lengthAdjust="spacing" textLength="435.7773" x="1470.69" y="624.08">ReadModuleAdditionTopic(ctx: context.Context): kafka.Message</text><ellipse cx="1461.69" cy="636.7773" fill="#84BE84" rx="3" ry="3" style="stroke:#038048;stroke-width:1.0;"/><text fill="#000000" font-family="sans-serif" font-size="14" lengthAdjust="spacing" textLength="810.6191" x="1470.69" y="640.5683">SendMessageToModuleVerificationTopic(ctx: context.Context, key: []byte, event: events.ModuleVerificationEvent): error</text></g><!--class Container--><g id="elem_Container"><rect codeLine="13" fill="#F1F1F1" height="113.9531" id="Container" rx="2.5" ry="2.5" style="stroke:#181818;stroke-width:0.5;" width="265.9072" x="22.05" y="78.4883"/><ellipse cx="117.6506" cy="94.4883" fill="#ADD1B2" rx="11" ry="11" style="stroke:#181818;stroke-width:1.0;"/><path d="M120.1237,100.6313 Q119.5427,100.9302 118.9035,101.0796 Q118.2644,101.229 117.5588,101.229 Q115.052,101.229 113.7321,99.5771 Q112.4123,97.9253 112.4123,94.8042 Q112.4123,91.6748 113.7321,90.0229 Q115.052,88.3711 117.5588,88.3711 Q118.2644,88.3711 118.9118,88.5205 Q119.5593,88.6699 120.1237,88.9688 L120.1237,91.6914 Q119.4929,91.1104 118.8994,90.8406 Q118.3059,90.5708 117.675,90.5708 Q116.3303,90.5708 115.6455,91.6375 Q114.9606,92.7041 114.9606,94.8042 Q114.9606,96.896 115.6455,97.9626 Q116.3303,99.0293 117.675,99.0293 Q118.3059,99.0293 118.8994,98.7595 Q119.4929,98.4897 120.1237,97.9087 Z " fill="#000000"/><text fill="#000000" font-family="sans-serif" font-size="14" lengthAdjust="spacing" textLength="66.2061" x="138.1506" y="99.7793">Container</text><line style="stroke:#181818;stroke-width:0.5;" x1="23.05" x2="286.9572" y1="110.4883" y2="110.4883"/><ellipse cx="33.05" cy="124.2324" fill="none" rx="3" ry="3" style="stroke:#038048;stroke-width:1.0;"/><text fill="#000000" font-family="sans-serif" font-size="14" lengthAdjust="spacing" textLength="219.4268" x="42.05" y="128.0234">AuthService: service.AuthService</text><ellipse cx="33.05" cy="140.7207" fill="none" rx="3" ry="3" style="stroke:#038048;stroke-width:1.0;"/><text fill="#000000" font-family="sans-serif" font-size="14" lengthAdjust="spacing" textLength="215.6123" x="42.05" y="144.5117">UserService: service.UserService</text><ellipse cx="33.05" cy="157.209" fill="none" rx="3" ry="3" style="stroke:#038048;stroke-width:1.0;"/><text fill="#000000" font-family="sans-serif" font-size="14" lengthAdjust="spacing" textLength="239.9072" x="42.05" y="161">HouseService: service.HouseService</text><ellipse cx="33.05" cy="173.6973" fill="none" rx="3" ry="3" style="stroke:#038048;stroke-width:1.0;"/><text fill="#000000" font-family="sans-serif" font-size="14" lengthAdjust="spacing" textLength="172.252" x="42.05" y="177.4883">AppSettings: AppSettings</text><line style="stroke:#181818;stroke-width:0.5;" x1="23.05" x2="286.9572" y1="184.4414" y2="184.4414"/></g><!--class AppSettings--><g id="elem_AppSettings"><rect codeLine="89" fill="#F1F1F1" height="163.418" id="AppSettings" rx="2.5" ry="2.5" style="stroke:#181818;stroke-width:0.5;" width="156.6348" x="76.68" y="268.9283"/><ellipse cx="111.0023" cy="284.9283" fill="#ADD1B2" rx="11" ry="11" style="stroke:#181818;stroke-width:1.0;"/><path d="M113.4755,291.0713 Q112.8944,291.3702 112.2552,291.5196 Q111.6161,291.669 110.9105,291.669 Q108.4037,291.669 107.0839,290.0171 Q105.764,288.3653 105.764,285.2442 Q105.764,282.1148 107.0839,280.4629 Q108.4037,278.8111 110.9105,278.8111 Q111.6161,278.8111 112.2635,278.9605 Q112.911,279.1099 113.4755,279.4088 L113.4755,282.1314 Q112.8446,281.5504 112.2511,281.2806 Q111.6576,281.0108 111.0267,281.0108 Q109.682,281.0108 108.9972,282.0775 Q108.3124,283.1441 108.3124,285.2442 Q108.3124,287.336 108.9972,288.4026 Q109.682,289.4693 111.0267,289.4693 Q111.6576,289.4693 112.2511,289.1995 Q112.8446,288.9297 113.4755,288.3487 Z " fill="#000000"/><text fill="#000000" font-family="sans-serif" font-size="14" lengthAdjust="spacing" textLength="81.6963" x="129.2962" y="290.2193">AppSettings</text><line style="stroke:#181818;stroke-width:0.5;" x1="77.68" x2="232.3148" y1="300.9283" y2="300.9283"/><ellipse cx="87.68" cy="314.6724" fill="none" rx="3" ry="3" style="stroke:#038048;stroke-width:1.0;"/><text fill="#000000" font-family="sans-serif" font-size="14" lengthAdjust="spacing" textLength="98.2256" x="96.68" y="318.4634">DBHost: string</text><ellipse cx="87.68" cy="331.1607" fill="none" rx="3" ry="3" style="stroke:#038048;stroke-width:1.0;"/><text fill="#000000" font-family="sans-serif" font-size="14" lengthAdjust="spacing" textLength="97.3301" x="96.68" y="334.9517">DBUser: string</text><ellipse cx="87.68" cy="347.649" fill="none" rx="3" ry="3" style="stroke:#038048;stroke-width:1.0;"/><text fill="#000000" font-family="sans-serif" font-size="14" lengthAdjust="spacing" textLength="130.6348" x="96.68" y="351.44">DBPassword: string</text><ellipse cx="87.68" cy="364.1373" fill="none" rx="3" ry="3" style="stroke:#038048;stroke-width:1.0;"/><text fill="#000000" font-family="sans-serif" font-size="14" lengthAdjust="spacing" textLength="105.9092" x="96.68" y="367.9283">DBName: string</text><ellipse cx="87.68" cy="380.6255" fill="none" rx="3" ry="3" style="stroke:#038048;stroke-width:1.0;"/><text fill="#000000" font-family="sans-serif" font-size="14" lengthAdjust="spacing" textLength="94.2676" x="96.68" y="384.4166">DBPort: string</text><ellipse cx="87.68" cy="397.1138" fill="none" rx="3" ry="3" style="stroke:#038048;stroke-width:1.0;"/><text fill="#000000" font-family="sans-serif" font-size="14" lengthAdjust="spacing" textLength="130.4502" x="96.68" y="400.9048">KafkaBroker: string</text><line style="stroke:#181818;stroke-width:0.5;" x1="77.68" x2="232.3148" y1="407.858" y2="407.858"/><ellipse cx="87.68" cy="421.6021" fill="#84BE84" rx="3" ry="3" style="stroke:#038048;stroke-width:1.0;"/><text fill="#000000" font-family="sans-serif" font-size="14" lengthAdjust="spacing" textLength="85.9004" x="96.68" y="425.3931">DSN(): string</text></g><!--class AuthService--><g id="elem_AuthService"><rect codeLine="22" fill="#F1F1F1" height="146.9297" id="AuthService" rx="2.5" ry="2.5" style="stroke:#181818;stroke-width:0.5;" width="364.4199" x="343.79" y="277.1783"/><ellipse cx="481.9477" cy="293.1783" fill="#ADD1B2" rx="11" ry="11" style="stroke:#181818;stroke-width:1.0;"/><path d="M484.4209,299.3213 Q483.8398,299.6202 483.2006,299.7696 Q482.5615,299.919 481.8559,299.919 Q479.3491,299.919 478.0293,298.2671 Q476.7094,296.6153 476.7094,293.4942 Q476.7094,290.3648 478.0293,288.7129 Q479.3491,287.0611 481.8559,287.0611 Q482.5615,287.0611 483.2089,287.2105 Q483.8564,287.3599 484.4209,287.6588 L484.4209,290.3814 Q483.79,289.8004 483.1965,289.5306 Q482.603,289.2608 481.9721,289.2608 Q480.6274,289.2608 479.9426,290.3275 Q479.2578,291.3941 479.2578,293.4942 Q479.2578,295.586 479.9426,296.6526 Q480.6274,297.7193 481.9721,297.7193 Q482.603,297.7193 483.1965,297.4495 Q483.79,297.1797 484.4209,296.5987 Z " fill="#000000"/><text fill="#000000" font-family="sans-serif" font-size="14" lengthAdjust="spacing" textLength="79.6045" x="502.4477" y="298.4693">AuthService</text><line style="stroke:#181818;stroke-width:0.5;" x1="344.79" x2="707.2099" y1="309.1783" y2="309.1783"/><rect fill="none" height="6" style="stroke:#C82930;stroke-width:1.0;" width="6" x="351.79" y="319.9224"/><text fill="#000000" font-family="sans-serif" font-size="14" lengthAdjust="spacing" textLength="132.5488" x="363.79" y="326.7134">accessSecret: []byte</text><rect fill="none" height="6" style="stroke:#C82930;stroke-width:1.0;" width="6" x="351.79" y="336.4107"/><text fill="#000000" font-family="sans-serif" font-size="14" lengthAdjust="spacing" textLength="136.4316" x="363.79" y="343.2017">refreshSecret: []byte</text><line style="stroke:#181818;stroke-width:0.5;" x1="344.79" x2="707.2099" y1="350.1548" y2="350.1548"/><ellipse cx="354.79" cy="363.899" fill="#84BE84" rx="3" ry="3" style="stroke:#038048;stroke-width:1.0;"/><text fill="#000000" font-family="sans-serif" font-size="14" lengthAdjust="spacing" textLength="321.6992" x="363.79" y="367.69">GenerateAccessToken(username: string): string</text><ellipse cx="354.79" cy="380.3873" fill="#84BE84" rx="3" ry="3" style="stroke:#038048;stroke-width:1.0;"/><text fill="#000000" font-family="sans-serif" font-size="14" lengthAdjust="spacing" textLength="326.7783" x="363.79" y="384.1783">GenerateRefreshToken(username: string): string</text><ellipse cx="354.79" cy="396.8755" fill="#84BE84" rx="3" ry="3" style="stroke:#038048;stroke-width:1.0;"/><text fill="#000000" font-family="sans-serif" font-size="14" lengthAdjust="spacing" textLength="333.3408" x="363.79" y="400.6666">ValidateAccessToken(tokenString: string): Claims</text><ellipse cx="354.79" cy="413.3638" fill="#84BE84" rx="3" ry="3" style="stroke:#038048;stroke-width:1.0;"/><text fill="#000000" font-family="sans-serif" font-size="14" lengthAdjust="spacing" textLength="338.4199" x="363.79" y="417.1548">ValidateRefreshToken(tokenString: string): Claims</text></g><!--class HouseService--><g id="elem_HouseService"><rect codeLine="31" fill="#F1F1F1" height="196.3945" id="HouseService" rx="2.5" ry="2.5" style="stroke:#181818;stroke-width:0.5;" width="651.0371" x="743.48" y="252.4383"/><ellipse cx="1019.8262" cy="268.4383" fill="#ADD1B2" rx="11" ry="11" style="stroke:#181818;stroke-width:1.0;"/><path d="M1022.2993,274.5813 Q1021.7183,274.8802 1021.0791,275.0296 Q1020.44,275.179 1019.7344,275.179 Q1017.2276,275.179 1015.9077,273.5271 Q1014.5879,271.8753 1014.5879,268.7542 Q1014.5879,265.6248 1015.9077,263.9729 Q1017.2276,262.3211 1019.7344,262.3211 Q1020.44,262.3211 1021.0874,262.4705 Q1021.7349,262.6199 1022.2993,262.9188 L1022.2993,265.6414 Q1021.6685,265.0604 1021.075,264.7906 Q1020.4815,264.5208 1019.8506,264.5208 Q1018.5059,264.5208 1017.8211,265.5875 Q1017.1363,266.6541 1017.1363,268.7542 Q1017.1363,270.846 1017.8211,271.9126 Q1018.5059,272.9793 1019.8506,272.9793 Q1020.4815,272.9793 1021.075,272.7095 Q1021.6685,272.4397 1022.2993,271.8587 Z " fill="#000000"/><text fill="#000000" font-family="sans-serif" font-size="14" lengthAdjust="spacing" textLength="89.8447" x="1040.3262" y="273.7293">HouseService</text><line style="stroke:#181818;stroke-width:0.5;" x1="744.48" x2="1393.5171" y1="284.4383" y2="284.4383"/><rect fill="none" height="6" style="stroke:#C82930;stroke-width:1.0;" width="6" x="751.48" y="295.1824"/><text fill="#000000" font-family="sans-serif" font-size="14" lengthAdjust="spacing" textLength="309.9688" x="763.48" y="301.9734">houseRepository: repository.HouseRepository</text><rect fill="none" height="6" style="stroke:#C82930;stroke-width:1.0;" width="6" x="751.48" y="311.6707"/><text fill="#000000" font-family="sans-serif" font-size="14" lengthAdjust="spacing" textLength="261.3516" x="763.48" y="318.4617">kafkaSupplier: suppliers.KafkaSupplier</text><rect fill="none" height="6" style="stroke:#C82930;stroke-width:1.0;" width="6" x="751.48" y="328.159"/><text fill="#000000" font-family="sans-serif" font-size="14" lengthAdjust="spacing" textLength="163.2422" x="763.48" y="334.95">userService: UserService</text><line style="stroke:#181818;stroke-width:0.5;" x1="744.48" x2="1393.5171" y1="341.9031" y2="341.9031"/><ellipse cx="754.48" cy="355.6473" fill="#84BE84" rx="3" ry="3" style="stroke:#038048;stroke-width:1.0;"/><text fill="#000000" font-family="sans-serif" font-size="14" lengthAdjust="spacing" textLength="625.0371" x="763.48" y="359.4383">CreateUserHouse(userId: UUID, house: web_schemas.NewHouseIn): web_schemas.HouseOut</text><ellipse cx="754.48" cy="372.1355" fill="#84BE84" rx="3" ry="3" style="stroke:#038048;stroke-width:1.0;"/><text fill="#000000" font-family="sans-serif" font-size="14" lengthAdjust="spacing" textLength="380.0918" x="763.48" y="375.9266">GetUserHouses(userId: UUID): []web_schemas.HouseOut</text><ellipse cx="754.48" cy="388.6238" fill="#84BE84" rx="3" ry="3" style="stroke:#038048;stroke-width:1.0;"/><text fill="#000000" font-family="sans-serif" font-size="14" lengthAdjust="spacing" textLength="555.1396" x="763.48" y="392.4148">UpdateUserHouse(house: web_schemas.UpdateHouseIn): persistance.HouseModel</text><ellipse cx="754.48" cy="405.1121" fill="#84BE84" rx="3" ry="3" style="stroke:#038048;stroke-width:1.0;"/><text fill="#000000" font-family="sans-serif" font-size="14" lengthAdjust="spacing" textLength="420.2803" x="763.48" y="408.9031">ApproveModuleInstallation(userId: UUID, houseId: UUID): bool</text><ellipse cx="754.48" cy="421.6004" fill="#84BE84" rx="3" ry="3" style="stroke:#038048;stroke-width:1.0;"/><text fill="#000000" font-family="sans-serif" font-size="14" lengthAdjust="spacing" textLength="440.6309" x="763.48" y="425.3914">GetModuleAdditionEvent(ctx: context.Context): events.BaseEvent</text><ellipse cx="754.48" cy="438.0887" fill="#84BE84" rx="3" ry="3" style="stroke:#038048;stroke-width:1.0;"/><text fill="#000000" font-family="sans-serif" font-size="14" lengthAdjust="spacing" textLength="408.5703" x="763.48" y="441.8797">ProcessModuleAdditionEvent(event: events.BaseEvent): error</text></g><!--class UserService--><g id="elem_UserService"><rect codeLine="43" fill="#F1F1F1" height="163.418" id="UserService" rx="2.5" ry="2.5" style="stroke:#181818;stroke-width:0.5;" width="398.9756" x="869.51" y="508.8383"/><ellipse cx="1025.8992" cy="524.8383" fill="#ADD1B2" rx="11" ry="11" style="stroke:#181818;stroke-width:1.0;"/><path d="M1028.3723,530.9813 Q1027.7913,531.2802 1027.1521,531.4296 Q1026.5129,531.579 1025.8074,531.579 Q1023.3005,531.579 1021.9807,529.9271 Q1020.6609,528.2753 1020.6609,525.1542 Q1020.6609,522.0248 1021.9807,520.3729 Q1023.3005,518.7211 1025.8074,518.7211 Q1026.5129,518.7211 1027.1604,518.8705 Q1027.8079,519.0199 1028.3723,519.3188 L1028.3723,522.0414 Q1027.7414,521.4604 1027.1479,521.1906 Q1026.5544,520.9208 1025.9236,520.9208 Q1024.5788,520.9208 1023.894,521.9875 Q1023.2092,523.0541 1023.2092,525.1542 Q1023.2092,527.246 1023.894,528.3126 Q1024.5788,529.3793 1025.9236,529.3793 Q1026.5544,529.3793 1027.1479,529.1095 Q1027.7414,528.8397 1028.3723,528.2587 Z " fill="#000000"/><text fill="#000000" font-family="sans-serif" font-size="14" lengthAdjust="spacing" textLength="77.6973" x="1046.3992" y="530.1293">UserService</text><line style="stroke:#181818;stroke-width:0.5;" x1="870.51" x2="1267.4856" y1="540.8383" y2="540.8383"/><rect fill="none" height="6" style="stroke:#C82930;stroke-width:1.0;" width="6" x="877.51" y="551.5824"/><text fill="#000000" font-family="sans-serif" font-size="14" lengthAdjust="spacing" textLength="286.2617" x="889.51" y="558.3734">userRepository: repository.UserRepository</text><line style="stroke:#181818;stroke-width:0.5;" x1="870.51" x2="1267.4856" y1="565.3266" y2="565.3266"/><ellipse cx="880.51" cy="579.0707" fill="#84BE84" rx="3" ry="3" style="stroke:#038048;stroke-width:1.0;"/><text fill="#000000" font-family="sans-serif" font-size="14" lengthAdjust="spacing" textLength="241.124" x="889.51" y="582.8617">SignUp(user: web.NewUserIn): error</text><ellipse cx="880.51" cy="595.559" fill="#84BE84" rx="3" ry="3" style="stroke:#038048;stroke-width:1.0;"/><text fill="#000000" font-family="sans-serif" font-size="14" lengthAdjust="spacing" textLength="326.1768" x="889.51" y="599.35">Login(username: string, password: string): error</text><ellipse cx="880.51" cy="612.0473" fill="#84BE84" rx="3" ry="3" style="stroke:#038048;stroke-width:1.0;"/><text fill="#000000" font-family="sans-serif" font-size="14" lengthAdjust="spacing" textLength="241.6982" x="889.51" y="615.8383">Update(user: web.NewUserIn): error</text><ellipse cx="880.51" cy="628.5355" fill="#84BE84" rx="3" ry="3" style="stroke:#038048;stroke-width:1.0;"/><text fill="#000000" font-family="sans-serif" font-size="14" lengthAdjust="spacing" textLength="341.5098" x="889.51" y="632.3266">GetCurrent(username: string): dto.UserDtoSchema</text><ellipse cx="880.51" cy="645.0238" fill="#84BE84" rx="3" ry="3" style="stroke:#038048;stroke-width:1.0;"/><text fill="#000000" font-family="sans-serif" font-size="14" lengthAdjust="spacing" textLength="372.9756" x="889.51" y="648.8148">GetByUsername(username: string): dto.UserDtoSchema</text><ellipse cx="880.51" cy="661.5121" fill="#84BE84" rx="3" ry="3" style="stroke:#038048;stroke-width:1.0;"/><text fill="#000000" font-family="sans-serif" font-size="14" lengthAdjust="spacing" textLength="319.2725" x="889.51" y="665.3031">GetRequiredById(id: UUID): dto.UserDtoSchema</text></g><!--class HouseRepository--><g id="elem_HouseRepository"><rect codeLine="55" fill="#F1F1F1" height="97.4648" id="HouseRepository" rx="2.5" ry="2.5" style="stroke:#181818;stroke-width:0.5;" width="585.9727" x="1502.01" y="755.4983"/><ellipse cx="1733.427" cy="771.4983" fill="#B4A7E5" rx="11" ry="11" style="stroke:#181818;stroke-width:1.0;"/><path d="M1729.8547,767.7634 L1729.8547,765.6052 L1737.2341,765.6052 L1737.2341,767.7634 L1734.7688,767.7634 L1734.7688,775.8401 L1737.2341,775.8401 L1737.2341,777.9983 L1729.8547,777.9983 L1729.8547,775.8401 L1732.3201,775.8401 L1732.3201,767.7634 Z " fill="#000000"/><text fill="#000000" font-family="sans-serif" font-size="14" font-style="italic" lengthAdjust="spacing" textLength="114.6387" x="1753.927" y="776.7893">HouseRepository</text><line style="stroke:#181818;stroke-width:0.5;" x1="1503.01" x2="2086.9827" y1="787.4983" y2="787.4983"/><line style="stroke:#181818;stroke-width:0.5;" x1="1503.01" x2="2086.9827" y1="795.4983" y2="795.4983"/><ellipse cx="1513.01" cy="809.2424" fill="#84BE84" rx="3" ry="3" style="stroke:#038048;stroke-width:1.0;"/><text fill="#000000" font-family="sans-serif" font-size="14" lengthAdjust="spacing" textLength="559.9727" x="1522.01" y="813.0334">CreateUserHouse(userId: UUID, house: web.NewHouseIn): persistance.HouseModel</text><ellipse cx="1513.01" cy="825.7307" fill="#84BE84" rx="3" ry="3" style="stroke:#038048;stroke-width:1.0;"/><text fill="#000000" font-family="sans-serif" font-size="14" lengthAdjust="spacing" textLength="316.0322" x="1522.01" y="829.5217">GetUserHouses(userID: UUID): []web.HouseOut</text><ellipse cx="1513.01" cy="842.219" fill="#84BE84" rx="3" ry="3" style="stroke:#038048;stroke-width:1.0;"/><text fill="#000000" font-family="sans-serif" font-size="14" lengthAdjust="spacing" textLength="489.4053" x="1522.01" y="846.01">UpdateUserHouse(house: web.UpdateHouseIn): persistance.HouseModel</text></g><!--class GORMHouseRepository--><g id="elem_GORMHouseRepository"><rect codeLine="61" fill="#F1F1F1" height="113.9531" id="GORMHouseRepository" rx="2.5" ry="2.5" style="stroke:#181818;stroke-width:0.5;" width="585.9727" x="1502.01" y="929.4483"/><ellipse cx="1712.4748" cy="945.4483" fill="#ADD1B2" rx="11" ry="11" style="stroke:#181818;stroke-width:1.0;"/><path d="M1714.948,951.5913 Q1714.3669,951.8902 1713.7278,952.0396 Q1713.0886,952.189 1712.383,952.189 Q1709.8762,952.189 1708.5564,950.5371 Q1707.2366,948.8853 1707.2366,945.7642 Q1707.2366,942.6348 1708.5564,940.9829 Q1709.8762,939.3311 1712.383,939.3311 Q1713.0886,939.3311 1713.7361,939.4805 Q1714.3835,939.6299 1714.948,939.9288 L1714.948,942.6514 Q1714.3171,942.0704 1713.7236,941.8006 Q1713.1301,941.5308 1712.4993,941.5308 Q1711.1545,941.5308 1710.4697,942.5975 Q1709.7849,943.6641 1709.7849,945.7642 Q1709.7849,947.856 1710.4697,948.9226 Q1711.1545,949.9893 1712.4993,949.9893 Q1713.1301,949.9893 1713.7236,949.7195 Q1714.3171,949.4497 1714.948,948.8687 Z " fill="#000000"/><text fill="#000000" font-family="sans-serif" font-size="14" lengthAdjust="spacing" textLength="156.543" x="1732.9748" y="950.7393">GORMHouseRepository</text><line style="stroke:#181818;stroke-width:0.5;" x1="1503.01" x2="2086.9827" y1="961.4483" y2="961.4483"/><rect fill="none" height="6" style="stroke:#C82930;stroke-width:1.0;" width="6" x="1510.01" y="972.1924"/><text fill="#000000" font-family="sans-serif" font-size="14" lengthAdjust="spacing" textLength="85.5791" x="1522.01" y="978.9834">db: gorm.DB</text><line style="stroke:#181818;stroke-width:0.5;" x1="1503.01" x2="2086.9827" y1="985.9366" y2="985.9366"/><ellipse cx="1513.01" cy="999.6807" fill="#84BE84" rx="3" ry="3" style="stroke:#038048;stroke-width:1.0;"/><text fill="#000000" font-family="sans-serif" font-size="14" lengthAdjust="spacing" textLength="559.9727" x="1522.01" y="1003.4717">CreateUserHouse(userId: UUID, house: web.NewHouseIn): persistance.HouseModel</text><ellipse cx="1513.01" cy="1016.169" fill="#84BE84" rx="3" ry="3" style="stroke:#038048;stroke-width:1.0;"/><text fill="#000000" font-family="sans-serif" font-size="14" lengthAdjust="spacing" textLength="316.0322" x="1522.01" y="1019.96">GetUserHouses(userID: UUID): []web.HouseOut</text><ellipse cx="1513.01" cy="1032.6573" fill="#84BE84" rx="3" ry="3" style="stroke:#038048;stroke-width:1.0;"/><text fill="#000000" font-family="sans-serif" font-size="14" lengthAdjust="spacing" textLength="489.4053" x="1522.01" y="1036.4483">UpdateUserHouse(house: web.UpdateHouseIn): persistance.HouseModel</text></g><!--class UserRepository--><g id="elem_UserRepository"><rect codeLine="70" fill="#F1F1F1" height="113.9531" id="UserRepository" rx="2.5" ry="2.5" style="stroke:#181818;stroke-width:0.5;" width="398.9756" x="1068.51" y="747.2583"/><ellipse cx="1212.5022" cy="763.2583" fill="#B4A7E5" rx="11" ry="11" style="stroke:#181818;stroke-width:1.0;"/><path d="M1208.9299,759.5234 L1208.9299,757.3652 L1216.3093,757.3652 L1216.3093,759.5234 L1213.844,759.5234 L1213.844,767.6001 L1216.3093,767.6001 L1216.3093,769.7583 L1208.9299,769.7583 L1208.9299,767.6001 L1211.3953,767.6001 L1211.3953,759.5234 Z " fill="#000000"/><text fill="#000000" font-family="sans-serif" font-size="14" font-style="italic" lengthAdjust="spacing" textLength="102.4912" x="1233.0022" y="768.5493">UserRepository</text><line style="stroke:#181818;stroke-width:0.5;" x1="1069.51" x2="1466.4856" y1="779.2583" y2="779.2583"/><line style="stroke:#181818;stroke-width:0.5;" x1="1069.51" x2="1466.4856" y1="787.2583" y2="787.2583"/><ellipse cx="1079.51" cy="801.0024" fill="#84BE84" rx="3" ry="3" style="stroke:#038048;stroke-width:1.0;"/><text fill="#000000" font-family="sans-serif" font-size="14" lengthAdjust="spacing" textLength="237.5898" x="1088.51" y="804.7934">Create(user: web.NewUserIn): error</text><ellipse cx="1079.51" cy="817.4907" fill="#84BE84" rx="3" ry="3" style="stroke:#038048;stroke-width:1.0;"/><text fill="#000000" font-family="sans-serif" font-size="14" lengthAdjust="spacing" textLength="372.9756" x="1088.51" y="821.2817">GetByUsername(username: string): dto.UserDtoSchema</text><ellipse cx="1079.51" cy="833.979" fill="#84BE84" rx="3" ry="3" style="stroke:#038048;stroke-width:1.0;"/><text fill="#000000" font-family="sans-serif" font-size="14" lengthAdjust="spacing" textLength="241.6982" x="1088.51" y="837.77">Update(user: web.NewUserIn): error</text><ellipse cx="1079.51" cy="850.4673" fill="#84BE84" rx="3" ry="3" style="stroke:#038048;stroke-width:1.0;"/><text fill="#000000" font-family="sans-serif" font-size="14" lengthAdjust="spacing" textLength="319.2725" x="1088.51" y="854.2583">GetRequiredById(id: UUID): dto.UserDtoSchema</text></g><!--class GORMUserRepository--><g id="elem_GORMUserRepository"><rect codeLine="77" fill="#F1F1F1" height="130.4414" id="GORMUserRepository" rx="2.5" ry="2.5" style="stroke:#181818;stroke-width:0.5;" width="398.9756" x="1068.51" y="921.2083"/><ellipse cx="1191.55" cy="937.2083" fill="#ADD1B2" rx="11" ry="11" style="stroke:#181818;stroke-width:1.0;"/><path d="M1194.0232,943.3513 Q1193.4421,943.6502 1192.803,943.7996 Q1192.1638,943.949 1191.4582,943.949 Q1188.9514,943.949 1187.6316,942.2971 Q1186.3118,940.6453 1186.3118,937.5242 Q1186.3118,934.3948 1187.6316,932.7429 Q1188.9514,931.0911 1191.4582,931.0911 Q1192.1638,931.0911 1192.8113,931.2405 Q1193.4587,931.3899 1194.0232,931.6888 L1194.0232,934.4114 Q1193.3923,933.8304 1192.7988,933.5606 Q1192.2053,933.2908 1191.5745,933.2908 Q1190.2297,933.2908 1189.5449,934.3575 Q1188.8601,935.4241 1188.8601,937.5242 Q1188.8601,939.616 1189.5449,940.6826 Q1190.2297,941.7493 1191.5745,941.7493 Q1192.2053,941.7493 1192.7988,941.4795 Q1193.3923,941.2097 1194.0232,940.6287 Z " fill="#000000"/><text fill="#000000" font-family="sans-serif" font-size="14" lengthAdjust="spacing" textLength="144.3955" x="1212.05" y="942.4993">GORMUserRepository</text><line style="stroke:#181818;stroke-width:0.5;" x1="1069.51" x2="1466.4856" y1="953.2083" y2="953.2083"/><rect fill="none" height="6" style="stroke:#C82930;stroke-width:1.0;" width="6" x="1076.51" y="963.9524"/><text fill="#000000" font-family="sans-serif" font-size="14" lengthAdjust="spacing" textLength="85.5791" x="1088.51" y="970.7434">db: gorm.DB</text><line style="stroke:#181818;stroke-width:0.5;" x1="1069.51" x2="1466.4856" y1="977.6966" y2="977.6966"/><ellipse cx="1079.51" cy="991.4407" fill="#84BE84" rx="3" ry="3" style="stroke:#038048;stroke-width:1.0;"/><text fill="#000000" font-family="sans-serif" font-size="14" lengthAdjust="spacing" textLength="237.5898" x="1088.51" y="995.2317">Create(user: web.NewUserIn): error</text><ellipse cx="1079.51" cy="1007.929" fill="#84BE84" rx="3" ry="3" style="stroke:#038048;stroke-width:1.0;"/><text fill="#000000" font-family="sans-serif" font-size="14" lengthAdjust="spacing" textLength="372.9756" x="1088.51" y="1011.72">GetByUsername(username: string): dto.UserDtoSchema</text><ellipse cx="1079.51" cy="1024.4173" fill="#84BE84" rx="3" ry="3" style="stroke:#038048;stroke-width:1.0;"/><text fill="#000000" font-family="sans-serif" font-size="14" lengthAdjust="spacing" textLength="241.6982" x="1088.51" y="1028.2083">Update(user: web.NewUserIn): error</text><ellipse cx="1079.51" cy="1040.9055" fill="#84BE84" rx="3" ry="3" style="stroke:#038048;stroke-width:1.0;"/><text fill="#000000" font-family="sans-serif" font-size="14" lengthAdjust="spacing" textLength="319.2725" x="1088.51" y="1044.6966">GetRequiredById(id: UUID): dto.UserDtoSchema</text></g><!--reverse link HouseRepository to GORMHouseRepository--><g id="link_HouseRepository_GORMHouseRepository"><path codeLine="68" d="M1795,871.0483 C1795,894.3983 1795,904.6583 1795,929.0583 " fill="none" id="HouseRepository-backto-GORMHouseRepository" style="stroke:#181818;stroke-width:1.0;"/><polygon fill="none" points="1795,853.0483,1789,871.0483,1801,871.0483,1795,853.0483" style="stroke:#181818;stroke-width:1.0;"/></g><!--reverse link UserRepository to GORMUserRepository--><g id="link_UserRepository_GORMUserRepository"><path codeLine="85" d="M1268,879.2583 C1268,898.1683 1268,901.4183 1268,920.9283 " fill="none" id="UserRepository-backto-GORMUserRepository" style="stroke:#181818;stroke-width:1.0;"/><polygon fill="none" points="1268,861.2583,1262,879.2583,1274,879.2583,1268,861.2583" style="stroke:#181818;stroke-width:1.0;"/></g><!--link Container to AuthService--><g id="link_Container_AuthService"><path codeLine="100" d="M273.14,192.8583 C283.65,198.3183 294.07,203.8983 304,209.4383 C341.11,230.1683 375.5771,251.1785 410.8471,273.6085 " fill="none" id="Container-to-AuthService" style="stroke:#181818;stroke-width:1.0;"/><polygon fill="#181818" points="415.91,276.8283,410.4621,268.6234,411.6909,274.1451,406.1691,275.3739,415.91,276.8283" style="stroke:#181818;stroke-width:1.0;"/></g><!--link Container to UserService--><g id="link_Container_UserService"><path codeLine="101" d="M237.2,192.7383 C242.26,198.0183 246.93,203.5983 251,209.4383 C316.5,303.5883 240.28,380.1583 326,456.3483 C404.66,526.2683 671.1409,560.3878 863.2309,576.4678 " fill="none" id="Container-to-UserService" style="stroke:#181818;stroke-width:1.0;"/><polygon fill="#181818" points="869.21,576.9683,860.575,572.2315,864.2274,576.5512,859.9077,580.2036,869.21,576.9683" style="stroke:#181818;stroke-width:1.0;"/></g><!--link Container to HouseService--><g id="link_Container_HouseService"><path codeLine="102" d="M288.41,143.6483 C405.35,152.2783 579.1,170.7483 726,209.4383 C768.46,220.6283 807.0649,233.6416 849.0549,249.9016 " fill="none" id="Container-to-HouseService" style="stroke:#181818;stroke-width:1.0;"/><polygon fill="#181818" points="854.65,252.0683,847.7017,245.0882,849.9874,250.2628,844.8129,252.5484,854.65,252.0683" style="stroke:#181818;stroke-width:1.0;"/></g><!--link Container to AppSettings--><g id="link_Container_AppSettings"><path codeLine="103" d="M155,192.7483 C155,215.9383 155,237.2583 155,262.5383 " fill="none" id="Container-to-AppSettings" style="stroke:#181818;stroke-width:1.0;"/><polygon fill="#181818" points="155,268.5383,159,259.5383,155,263.5383,151,259.5383,155,268.5383" style="stroke:#181818;stroke-width:1.0;"/></g><!--link HouseService to HouseRepository--><g id="link_HouseService_HouseRepository"><path codeLine="105" d="M1394.87,366.2183 C1739.95,385.0683 2243.24,423.7083 2303,490.5683 C2363.92,558.7283 2360.6,625.2683 2303,696.2583 C2273.47,732.6483 2190.0055,756.1247 2094.2855,772.3647 " fill="none" id="HouseService-to-HouseRepository" style="stroke:#181818;stroke-width:1.0;"/><polygon fill="#181818" points="2088.37,773.3683,2097.9123,775.8065,2093.2996,772.5319,2096.5741,767.9192,2088.37,773.3683" style="stroke:#181818;stroke-width:1.0;"/></g><!--link HouseService to KafkaSupplier--><g id="link_HouseService_KafkaSupplier"><path codeLine="106" d="M1394.97,448.5783 C1491.59,477.3083 1588.4389,506.108 1673.3789,531.368 " fill="none" id="HouseService-to-KafkaSupplier" style="stroke:#181818;stroke-width:1.0;"/><polygon fill="#181818" points="1679.13,533.0783,1671.6436,526.6788,1674.3374,531.653,1669.3632,534.3469,1679.13,533.0783" style="stroke:#181818;stroke-width:1.0;"/></g><!--link HouseService to UserService--><g id="link_HouseService_UserService"><path codeLine="107" d="M1069,449.0883 C1069,468.8483 1069,483.4283 1069,502.5483 " fill="none" id="HouseService-to-UserService" style="stroke:#181818;stroke-width:1.0;"/><polygon fill="#181818" points="1069,508.5483,1073,499.5483,1069,503.5483,1065,499.5483,1069,508.5483" style="stroke:#181818;stroke-width:1.0;"/></g><!--link UserService to UserRepository--><g id="link_UserService_UserRepository"><path codeLine="109" d="M1145.09,672.4783 C1168.46,697.3383 1189.5395,719.7775 1211.0095,742.6075 " fill="none" id="UserService-to-UserRepository" style="stroke:#181818;stroke-width:1.0;"/><polygon fill="#181818" points="1215.12,746.9783,1211.8682,737.6817,1211.6946,743.3359,1206.0404,743.1623,1215.12,746.9783" style="stroke:#181818;stroke-width:1.0;"/></g><!--SRC=[vLRRRjf047tdArPv0WNu05HLub8bgCr54Dg7ggeMUu0LnklkhabGct_lxXhmZ5a2vB7b8JYU-vavmnXX4c0J3OgDGQr51AmlOs1T5Is4WSZa2cgrZ4TBFWTsfVCiImGeVSL-rvZzH0dNcdtcioKVRsLRYVkqs1gKc6rkPQwXBrEThq1rsDAfjqV0Or1XtKSbupmgTRyfcqofUysSyPtLIQ0Rny88cJx9J4JroBnqM2HJ0o-ctI- -6pilTw2rBGEv6KCQRzy-oSBVLvU5YFZRFfji2PiE-_vZkZ7GPB26r7IABzq-TFJ92MmUe9GiodYjlM9S5rn1J45raRX82Q3Nh9kRnRPJ7QQBXpPwYLHTLmzKqKkawa4_qCLlSGfPDWPZH3hN7VnFgAx2c1Q6iYMpmgF8jc8CaGApWnQ95SmKwCKH-JMx0OiLDz3rRfxa4jAwpL-bVELgCihcsDWz1En6XV_p3R_oHCILWCRz7NjDPDfFk5ZfW2c9UTBM8bkYY9j3O5mumGWogOMHoWwfsZyN7Irbo6g9AMp3xuZU9jn61ZcUhl1KzHNO6ftCn_MW3cEhFHaEcaMU7VOCqvywMi2Aw_OzF7lDOTgW0l_s8JUaRMRlMHFN3JSS9wmdMKnI2oHJg9JvP1ODeGrFTyomD8U4yaB9DHJi7wPMDKay-qE5esIdKYQqCBhP_F8ujjcsAwV7DNWzvCWkKJUO8MTqN-sDAniAJHjgC1asLzcHMPiG4LwwOfvECW-AHzortIbxbCluXV8NEHU7T6oop6RrB5MCc58rBHfuPXoBUZzNoe4Ju7vifAzdOEJOZmUrx6qcMvjt68_WLoxizkzjXd5Tb6CHDgFxjOHxjsA57GmruxPD5QwJNv5pcKaPUP810KuEA2Slu-8b72JZUlCmkZjUVul5qmwRIxLg3th_1IfLB3xyQRL28DKgCqGv71YXyzdrVevSokDB2LMPcwCrlpqs_mmIbVhterBPvwVELtGOahaPz6wbDe5pQj2R-Be2WiVAiYV2UuGVjP8g5CSVD3rbZwrWiF5zdHvxVkEMntYhzH5Vi1K9FeIeX1pJ5NVeXgwHksvlY80_K3XsgnqeukHg-1Tz9qHH_W80]--></g></svg>