<svg xmlns="http://www.w3.org/2000/svg" xmlns:xlink="http://www.w3.org/1999/xlink" contentStyleType="text/css" height="1037px" preserveAspectRatio="none" style="width:2342px;height:1037px;background:#FFFFFF;" version="1.1" viewBox="0 0 2342 1037" width="2342px" zoomAndPan="magnify"><defs/><g><!--cluster shared--><g id="cluster_shared"><path d="M8.5,6 L58.6846,6 A3.75,3.75 0 0 1 61.1846,8.5 L68.1846,28.4883 L301.5,28.4883 A2.5,2.5 0 0 1 304,30.9883 L304,408.36 A2.5,2.5 0 0 1 301.5,410.86 L8.5,410.86 A2.5,2.5 0 0 1 6,408.36 L6,8.5 A2.5,2.5 0 0 1 8.5,6 " fill="none" style="stroke:#000000;stroke-width:1.5;"/><line style="stroke:#000000;stroke-width:1.5;" x1="6" x2="68.1846" y1="28.4883" y2="28.4883"/><text fill="#000000" font-family="sans-serif" font-size="14" font-weight="bold" lengthAdjust="spacing" textLength="49.1846" x="10" y="21.5352">shared</text></g><!--cluster service--><g id="cluster_service"><path d="M330.5,179.95 L382.4961,179.95 A3.75,3.75 0 0 1 384.9961,182.45 L391.9961,202.4383 L1408.5,202.4383 A2.5,2.5 0 0 1 1411,204.9383 L1411,648.27 A2.5,2.5 0 0 1 1408.5,650.77 L330.5,650.77 A2.5,2.5 0 0 1 328,648.27 L328,182.45 A2.5,2.5 0 0 1 330.5,179.95 " fill="none" style="stroke:#000000;stroke-width:1.5;"/><line style="stroke:#000000;stroke-width:1.5;" x1="328" x2="391.9961" y1="202.4383" y2="202.4383"/><text fill="#000000" font-family="sans-serif" font-size="14" font-weight="bold" lengthAdjust="spacing" textLength="50.9961" x="332" y="195.4852">service</text></g><!--cluster repository--><g id="cluster_repository"><path d="M1216.5,674.77 L1291.8955,674.77 A3.75,3.75 0 0 1 1294.3955,677.27 L1301.3955,697.2583 L2262.5,697.2583 A2.5,2.5 0 0 1 2265,699.7583 L2265,1027.66 A2.5,2.5 0 0 1 2262.5,1030.16 L1216.5,1030.16 A2.5,2.5 0 0 1 1214,1027.66 L1214,677.27 A2.5,2.5 0 0 1 1216.5,674.77 " fill="none" style="stroke:#000000;stroke-width:1.5;"/><line style="stroke:#000000;stroke-width:1.5;" x1="1214" x2="1301.3955" y1="697.2583" y2="697.2583"/><text fill="#000000" font-family="sans-serif" font-size="14" font-weight="bold" lengthAdjust="spacing" textLength="74.3955" x="1218" y="690.3052">repository</text></g><!--class Container--><g id="elem_Container"><rect codeLine="10" fill="#F1F1F1" height="113.9531" id="Container" rx="2.5" ry="2.5" style="stroke:#181818;stroke-width:0.5;" width="265.9072" x="22.05" y="41"/><ellipse cx="117.6506" cy="57" fill="#ADD1B2" rx="11" ry="11" style="stroke:#181818;stroke-width:1.0;"/><path d="M120.1237,63.1431 Q119.5427,63.4419 118.9035,63.5913 Q118.2644,63.7407 117.5588,63.7407 Q115.052,63.7407 113.7321,62.0889 Q112.4123,60.437 112.4123,57.3159 Q112.4123,54.1865 113.7321,52.5347 Q115.052,50.8828 117.5588,50.8828 Q118.2644,50.8828 118.9118,51.0322 Q119.5593,51.1816 120.1237,51.4805 L120.1237,54.2031 Q119.4929,53.6221 118.8994,53.3523 Q118.3059,53.0825 117.675,53.0825 Q116.3303,53.0825 115.6455,54.1492 Q114.9606,55.2158 114.9606,57.3159 Q114.9606,59.4077 115.6455,60.4744 Q116.3303,61.541 117.675,61.541 Q118.3059,61.541 118.8994,61.2712 Q119.4929,61.0015 120.1237,60.4204 Z " fill="#000000"/><text fill="#000000" font-family="sans-serif" font-size="14" lengthAdjust="spacing" textLength="66.2061" x="138.1506" y="62.291">Container</text><line style="stroke:#181818;stroke-width:0.5;" x1="23.05" x2="286.9572" y1="73" y2="73"/><ellipse cx="33.05" cy="86.7441" fill="none" rx="3" ry="3" style="stroke:#038048;stroke-width:1.0;"/><text fill="#000000" font-family="sans-serif" font-size="14" lengthAdjust="spacing" textLength="219.4268" x="42.05" y="90.5352">AuthService: service.AuthService</text><ellipse cx="33.05" cy="103.2324" fill="none" rx="3" ry="3" style="stroke:#038048;stroke-width:1.0;"/><text fill="#000000" font-family="sans-serif" font-size="14" lengthAdjust="spacing" textLength="215.6123" x="42.05" y="107.0234">UserService: service.UserService</text><ellipse cx="33.05" cy="119.7207" fill="none" rx="3" ry="3" style="stroke:#038048;stroke-width:1.0;"/><text fill="#000000" font-family="sans-serif" font-size="14" lengthAdjust="spacing" textLength="239.9072" x="42.05" y="123.5117">HouseService: service.HouseService</text><ellipse cx="33.05" cy="136.209" fill="none" rx="3" ry="3" style="stroke:#038048;stroke-width:1.0;"/><text fill="#000000" font-family="sans-serif" font-size="14" lengthAdjust="spacing" textLength="172.252" x="42.05" y="140">AppSettings: AppSettings</text><line style="stroke:#181818;stroke-width:0.5;" x1="23.05" x2="286.9572" y1="146.9531" y2="146.9531"/></g><!--class AppSettings--><g id="elem_AppSettings"><rect codeLine="86" fill="#F1F1F1" height="163.418" id="AppSettings" rx="2.5" ry="2.5" style="stroke:#181818;stroke-width:0.5;" width="156.6348" x="76.68" y="231.44"/><ellipse cx="111.0023" cy="247.44" fill="#ADD1B2" rx="11" ry="11" style="stroke:#181818;stroke-width:1.0;"/><path d="M113.4755,253.5831 Q112.8944,253.8819 112.2552,254.0313 Q111.6161,254.1807 110.9105,254.1807 Q108.4037,254.1807 107.0839,252.5289 Q105.764,250.877 105.764,247.7559 Q105.764,244.6265 107.0839,242.9747 Q108.4037,241.3228 110.9105,241.3228 Q111.6161,241.3228 112.2635,241.4722 Q112.911,241.6216 113.4755,241.9205 L113.4755,244.6431 Q112.8446,244.0621 112.2511,243.7923 Q111.6576,243.5225 111.0267,243.5225 Q109.682,243.5225 108.9972,244.5892 Q108.3124,245.6558 108.3124,247.7559 Q108.3124,249.8477 108.9972,250.9144 Q109.682,251.981 111.0267,251.981 Q111.6576,251.981 112.2511,251.7112 Q112.8446,251.4415 113.4755,250.8604 Z " fill="#000000"/><text fill="#000000" font-family="sans-serif" font-size="14" lengthAdjust="spacing" textLength="81.6963" x="129.2962" y="252.731">AppSettings</text><line style="stroke:#181818;stroke-width:0.5;" x1="77.68" x2="232.3148" y1="263.44" y2="263.44"/><ellipse cx="87.68" cy="277.1841" fill="none" rx="3" ry="3" style="stroke:#038048;stroke-width:1.0;"/><text fill="#000000" font-family="sans-serif" font-size="14" lengthAdjust="spacing" textLength="98.2256" x="96.68" y="280.9752">DBHost: string</text><ellipse cx="87.68" cy="293.6724" fill="none" rx="3" ry="3" style="stroke:#038048;stroke-width:1.0;"/><text fill="#000000" font-family="sans-serif" font-size="14" lengthAdjust="spacing" textLength="97.3301" x="96.68" y="297.4634">DBUser: string</text><ellipse cx="87.68" cy="310.1607" fill="none" rx="3" ry="3" style="stroke:#038048;stroke-width:1.0;"/><text fill="#000000" font-family="sans-serif" font-size="14" lengthAdjust="spacing" textLength="130.6348" x="96.68" y="313.9517">DBPassword: string</text><ellipse cx="87.68" cy="326.649" fill="none" rx="3" ry="3" style="stroke:#038048;stroke-width:1.0;"/><text fill="#000000" font-family="sans-serif" font-size="14" lengthAdjust="spacing" textLength="105.9092" x="96.68" y="330.44">DBName: string</text><ellipse cx="87.68" cy="343.1373" fill="none" rx="3" ry="3" style="stroke:#038048;stroke-width:1.0;"/><text fill="#000000" font-family="sans-serif" font-size="14" lengthAdjust="spacing" textLength="94.2676" x="96.68" y="346.9283">DBPort: string</text><ellipse cx="87.68" cy="359.6255" fill="none" rx="3" ry="3" style="stroke:#038048;stroke-width:1.0;"/><text fill="#000000" font-family="sans-serif" font-size="14" lengthAdjust="spacing" textLength="130.4502" x="96.68" y="363.4166">KafkaBroker: string</text><line style="stroke:#181818;stroke-width:0.5;" x1="77.68" x2="232.3148" y1="370.3697" y2="370.3697"/><ellipse cx="87.68" cy="384.1138" fill="#84BE84" rx="3" ry="3" style="stroke:#038048;stroke-width:1.0;"/><text fill="#000000" font-family="sans-serif" font-size="14" lengthAdjust="spacing" textLength="85.9004" x="96.68" y="387.9048">DSN(): string</text></g><!--class AuthService--><g id="elem_AuthService"><rect codeLine="19" fill="#F1F1F1" height="146.9297" id="AuthService" rx="2.5" ry="2.5" style="stroke:#181818;stroke-width:0.5;" width="364.4199" x="343.79" y="239.69"/><ellipse cx="481.9477" cy="255.69" fill="#ADD1B2" rx="11" ry="11" style="stroke:#181818;stroke-width:1.0;"/><path d="M484.4209,261.8331 Q483.8398,262.1319 483.2006,262.2813 Q482.5615,262.4307 481.8559,262.4307 Q479.3491,262.4307 478.0293,260.7789 Q476.7094,259.127 476.7094,256.0059 Q476.7094,252.8765 478.0293,251.2247 Q479.3491,249.5728 481.8559,249.5728 Q482.5615,249.5728 483.2089,249.7222 Q483.8564,249.8716 484.4209,250.1705 L484.4209,252.8931 Q483.79,252.3121 483.1965,252.0423 Q482.603,251.7725 481.9721,251.7725 Q480.6274,251.7725 479.9426,252.8392 Q479.2578,253.9058 479.2578,256.0059 Q479.2578,258.0977 479.9426,259.1644 Q480.6274,260.231 481.9721,260.231 Q482.603,260.231 483.1965,259.9612 Q483.79,259.6915 484.4209,259.1104 Z " fill="#000000"/><text fill="#000000" font-family="sans-serif" font-size="14" lengthAdjust="spacing" textLength="79.6045" x="502.4477" y="260.981">AuthService</text><line style="stroke:#181818;stroke-width:0.5;" x1="344.79" x2="707.2099" y1="271.69" y2="271.69"/><rect fill="none" height="6" style="stroke:#C82930;stroke-width:1.0;" width="6" x="351.79" y="282.4341"/><text fill="#000000" font-family="sans-serif" font-size="14" lengthAdjust="spacing" textLength="132.5488" x="363.79" y="289.2252">accessSecret: []byte</text><rect fill="none" height="6" style="stroke:#C82930;stroke-width:1.0;" width="6" x="351.79" y="298.9224"/><text fill="#000000" font-family="sans-serif" font-size="14" lengthAdjust="spacing" textLength="136.4316" x="363.79" y="305.7134">refreshSecret: []byte</text><line style="stroke:#181818;stroke-width:0.5;" x1="344.79" x2="707.2099" y1="312.6666" y2="312.6666"/><ellipse cx="354.79" cy="326.4107" fill="#84BE84" rx="3" ry="3" style="stroke:#038048;stroke-width:1.0;"/><text fill="#000000" font-family="sans-serif" font-size="14" lengthAdjust="spacing" textLength="321.6992" x="363.79" y="330.2017">GenerateAccessToken(username: string): string</text><ellipse cx="354.79" cy="342.899" fill="#84BE84" rx="3" ry="3" style="stroke:#038048;stroke-width:1.0;"/><text fill="#000000" font-family="sans-serif" font-size="14" lengthAdjust="spacing" textLength="326.7783" x="363.79" y="346.69">GenerateRefreshToken(username: string): string</text><ellipse cx="354.79" cy="359.3873" fill="#84BE84" rx="3" ry="3" style="stroke:#038048;stroke-width:1.0;"/><text fill="#000000" font-family="sans-serif" font-size="14" lengthAdjust="spacing" textLength="333.3408" x="363.79" y="363.1783">ValidateAccessToken(tokenString: string): Claims</text><ellipse cx="354.79" cy="375.8755" fill="#84BE84" rx="3" ry="3" style="stroke:#038048;stroke-width:1.0;"/><text fill="#000000" font-family="sans-serif" font-size="14" lengthAdjust="spacing" textLength="338.4199" x="363.79" y="379.6666">ValidateRefreshToken(tokenString: string): Claims</text></g><!--class HouseService--><g id="elem_HouseService"><rect codeLine="28" fill="#F1F1F1" height="196.3945" id="HouseService" rx="2.5" ry="2.5" style="stroke:#181818;stroke-width:0.5;" width="651.0371" x="743.48" y="214.95"/><ellipse cx="1019.8262" cy="230.95" fill="#ADD1B2" rx="11" ry="11" style="stroke:#181818;stroke-width:1.0;"/><path d="M1022.2993,237.0931 Q1021.7183,237.3919 1021.0791,237.5413 Q1020.44,237.6907 1019.7344,237.6907 Q1017.2276,237.6907 1015.9077,236.0389 Q1014.5879,234.387 1014.5879,231.2659 Q1014.5879,228.1365 1015.9077,226.4847 Q1017.2276,224.8328 1019.7344,224.8328 Q1020.44,224.8328 1021.0874,224.9822 Q1021.7349,225.1316 1022.2993,225.4305 L1022.2993,228.1531 Q1021.6685,227.5721 1021.075,227.3023 Q1020.4815,227.0325 1019.8506,227.0325 Q1018.5059,227.0325 1017.8211,228.0992 Q1017.1363,229.1658 1017.1363,231.2659 Q1017.1363,233.3577 1017.8211,234.4244 Q1018.5059,235.491 1019.8506,235.491 Q1020.4815,235.491 1021.075,235.2212 Q1021.6685,234.9515 1022.2993,234.3704 Z " fill="#000000"/><text fill="#000000" font-family="sans-serif" font-size="14" lengthAdjust="spacing" textLength="89.8447" x="1040.3262" y="236.241">HouseService</text><line style="stroke:#181818;stroke-width:0.5;" x1="744.48" x2="1393.5171" y1="246.95" y2="246.95"/><rect fill="none" height="6" style="stroke:#C82930;stroke-width:1.0;" width="6" x="751.48" y="257.6941"/><text fill="#000000" font-family="sans-serif" font-size="14" lengthAdjust="spacing" textLength="309.9688" x="763.48" y="264.4852">houseRepository: repository.HouseRepository</text><rect fill="none" height="6" style="stroke:#C82930;stroke-width:1.0;" width="6" x="751.48" y="274.1824"/><text fill="#000000" font-family="sans-serif" font-size="14" lengthAdjust="spacing" textLength="194.7148" x="763.48" y="280.9734">kafkaSupplier: KafkaSupplier</text><rect fill="none" height="6" style="stroke:#C82930;stroke-width:1.0;" width="6" x="751.48" y="290.6707"/><text fill="#000000" font-family="sans-serif" font-size="14" lengthAdjust="spacing" textLength="163.2422" x="763.48" y="297.4617">userService: UserService</text><line style="stroke:#181818;stroke-width:0.5;" x1="744.48" x2="1393.5171" y1="304.4148" y2="304.4148"/><ellipse cx="754.48" cy="318.159" fill="#84BE84" rx="3" ry="3" style="stroke:#038048;stroke-width:1.0;"/><text fill="#000000" font-family="sans-serif" font-size="14" lengthAdjust="spacing" textLength="625.0371" x="763.48" y="321.95">CreateUserHouse(userId: UUID, house: web_schemas.NewHouseIn): web_schemas.HouseOut</text><ellipse cx="754.48" cy="334.6473" fill="#84BE84" rx="3" ry="3" style="stroke:#038048;stroke-width:1.0;"/><text fill="#000000" font-family="sans-serif" font-size="14" lengthAdjust="spacing" textLength="380.0918" x="763.48" y="338.4383">GetUserHouses(userId: UUID): []web_schemas.HouseOut</text><ellipse cx="754.48" cy="351.1355" fill="#84BE84" rx="3" ry="3" style="stroke:#038048;stroke-width:1.0;"/><text fill="#000000" font-family="sans-serif" font-size="14" lengthAdjust="spacing" textLength="555.1396" x="763.48" y="354.9266">UpdateUserHouse(house: web_schemas.UpdateHouseIn): persistance.HouseModel</text><ellipse cx="754.48" cy="367.6238" fill="#84BE84" rx="3" ry="3" style="stroke:#038048;stroke-width:1.0;"/><text fill="#000000" font-family="sans-serif" font-size="14" lengthAdjust="spacing" textLength="420.2803" x="763.48" y="371.4148">ApproveModuleInstallation(userId: UUID, houseId: UUID): bool</text><ellipse cx="754.48" cy="384.1121" fill="#84BE84" rx="3" ry="3" style="stroke:#038048;stroke-width:1.0;"/><text fill="#000000" font-family="sans-serif" font-size="14" lengthAdjust="spacing" textLength="440.6309" x="763.48" y="387.9031">GetModuleAdditionEvent(ctx: context.Context): events.BaseEvent</text><ellipse cx="754.48" cy="400.6004" fill="#84BE84" rx="3" ry="3" style="stroke:#038048;stroke-width:1.0;"/><text fill="#000000" font-family="sans-serif" font-size="14" lengthAdjust="spacing" textLength="408.5703" x="763.48" y="404.3914">ProcessModuleAdditionEvent(event: events.BaseEvent): error</text></g><!--class UserService--><g id="elem_UserService"><rect codeLine="40" fill="#F1F1F1" height="163.418" id="UserService" rx="2.5" ry="2.5" style="stroke:#181818;stroke-width:0.5;" width="398.9756" x="869.51" y="471.35"/><ellipse cx="1025.8992" cy="487.35" fill="#ADD1B2" rx="11" ry="11" style="stroke:#181818;stroke-width:1.0;"/><path d="M1028.3723,493.4931 Q1027.7913,493.7919 1027.1521,493.9413 Q1026.5129,494.0907 1025.8074,494.0907 Q1023.3005,494.0907 1021.9807,492.4389 Q1020.6609,490.787 1020.6609,487.6659 Q1020.6609,484.5365 1021.9807,482.8847 Q1023.3005,481.2328 1025.8074,481.2328 Q1026.5129,481.2328 1027.1604,481.3822 Q1027.8079,481.5316 1028.3723,481.8305 L1028.3723,484.5531 Q1027.7414,483.9721 1027.1479,483.7023 Q1026.5544,483.4325 1025.9236,483.4325 Q1024.5788,483.4325 1023.894,484.4992 Q1023.2092,485.5658 1023.2092,487.6659 Q1023.2092,489.7577 1023.894,490.8244 Q1024.5788,491.891 1025.9236,491.891 Q1026.5544,491.891 1027.1479,491.6212 Q1027.7414,491.3515 1028.3723,490.7704 Z " fill="#000000"/><text fill="#000000" font-family="sans-serif" font-size="14" lengthAdjust="spacing" textLength="77.6973" x="1046.3992" y="492.641">UserService</text><line style="stroke:#181818;stroke-width:0.5;" x1="870.51" x2="1267.4856" y1="503.35" y2="503.35"/><rect fill="none" height="6" style="stroke:#C82930;stroke-width:1.0;" width="6" x="877.51" y="514.0941"/><text fill="#000000" font-family="sans-serif" font-size="14" lengthAdjust="spacing" textLength="286.2617" x="889.51" y="520.8852">userRepository: repository.UserRepository</text><line style="stroke:#181818;stroke-width:0.5;" x1="870.51" x2="1267.4856" y1="527.8383" y2="527.8383"/><ellipse cx="880.51" cy="541.5824" fill="#84BE84" rx="3" ry="3" style="stroke:#038048;stroke-width:1.0;"/><text fill="#000000" font-family="sans-serif" font-size="14" lengthAdjust="spacing" textLength="241.124" x="889.51" y="545.3734">SignUp(user: web.NewUserIn): error</text><ellipse cx="880.51" cy="558.0707" fill="#84BE84" rx="3" ry="3" style="stroke:#038048;stroke-width:1.0;"/><text fill="#000000" font-family="sans-serif" font-size="14" lengthAdjust="spacing" textLength="326.1768" x="889.51" y="561.8617">Login(username: string, password: string): error</text><ellipse cx="880.51" cy="574.559" fill="#84BE84" rx="3" ry="3" style="stroke:#038048;stroke-width:1.0;"/><text fill="#000000" font-family="sans-serif" font-size="14" lengthAdjust="spacing" textLength="241.6982" x="889.51" y="578.35">Update(user: web.NewUserIn): error</text><ellipse cx="880.51" cy="591.0473" fill="#84BE84" rx="3" ry="3" style="stroke:#038048;stroke-width:1.0;"/><text fill="#000000" font-family="sans-serif" font-size="14" lengthAdjust="spacing" textLength="341.5098" x="889.51" y="594.8383">GetCurrent(username: string): dto.UserDtoSchema</text><ellipse cx="880.51" cy="607.5355" fill="#84BE84" rx="3" ry="3" style="stroke:#038048;stroke-width:1.0;"/><text fill="#000000" font-family="sans-serif" font-size="14" lengthAdjust="spacing" textLength="372.9756" x="889.51" y="611.3266">GetByUsername(username: string): dto.UserDtoSchema</text><ellipse cx="880.51" cy="624.0238" fill="#84BE84" rx="3" ry="3" style="stroke:#038048;stroke-width:1.0;"/><text fill="#000000" font-family="sans-serif" font-size="14" lengthAdjust="spacing" textLength="319.2725" x="889.51" y="627.8148">GetRequiredById(id: UUID): dto.UserDtoSchema</text></g><!--class HouseRepository--><g id="elem_HouseRepository"><rect codeLine="52" fill="#F1F1F1" height="97.4648" id="HouseRepository" rx="2.5" ry="2.5" style="stroke:#181818;stroke-width:0.5;" width="585.9727" x="1663.01" y="718.01"/><ellipse cx="1894.427" cy="734.01" fill="#B4A7E5" rx="11" ry="11" style="stroke:#181818;stroke-width:1.0;"/><path d="M1890.8547,730.2751 L1890.8547,728.1169 L1898.2341,728.1169 L1898.2341,730.2751 L1895.7688,730.2751 L1895.7688,738.3518 L1898.2341,738.3518 L1898.2341,740.51 L1890.8547,740.51 L1890.8547,738.3518 L1893.3201,738.3518 L1893.3201,730.2751 Z " fill="#000000"/><text fill="#000000" font-family="sans-serif" font-size="14" font-style="italic" lengthAdjust="spacing" textLength="114.6387" x="1914.927" y="739.301">HouseRepository</text><line style="stroke:#181818;stroke-width:0.5;" x1="1664.01" x2="2247.9827" y1="750.01" y2="750.01"/><line style="stroke:#181818;stroke-width:0.5;" x1="1664.01" x2="2247.9827" y1="758.01" y2="758.01"/><ellipse cx="1674.01" cy="771.7541" fill="#84BE84" rx="3" ry="3" style="stroke:#038048;stroke-width:1.0;"/><text fill="#000000" font-family="sans-serif" font-size="14" lengthAdjust="spacing" textLength="559.9727" x="1683.01" y="775.5452">CreateUserHouse(userId: UUID, house: web.NewHouseIn): persistance.HouseModel</text><ellipse cx="1674.01" cy="788.2424" fill="#84BE84" rx="3" ry="3" style="stroke:#038048;stroke-width:1.0;"/><text fill="#000000" font-family="sans-serif" font-size="14" lengthAdjust="spacing" textLength="316.0322" x="1683.01" y="792.0334">GetUserHouses(userID: UUID): []web.HouseOut</text><ellipse cx="1674.01" cy="804.7307" fill="#84BE84" rx="3" ry="3" style="stroke:#038048;stroke-width:1.0;"/><text fill="#000000" font-family="sans-serif" font-size="14" lengthAdjust="spacing" textLength="489.4053" x="1683.01" y="808.5217">UpdateUserHouse(house: web.UpdateHouseIn): persistance.HouseModel</text></g><!--class GORMHouseRepository--><g id="elem_GORMHouseRepository"><rect codeLine="58" fill="#F1F1F1" height="113.9531" id="GORMHouseRepository" rx="2.5" ry="2.5" style="stroke:#181818;stroke-width:0.5;" width="585.9727" x="1663.01" y="891.96"/><ellipse cx="1873.4748" cy="907.96" fill="#ADD1B2" rx="11" ry="11" style="stroke:#181818;stroke-width:1.0;"/><path d="M1875.948,914.1031 Q1875.3669,914.4019 1874.7278,914.5513 Q1874.0886,914.7007 1873.383,914.7007 Q1870.8762,914.7007 1869.5564,913.0489 Q1868.2366,911.397 1868.2366,908.2759 Q1868.2366,905.1465 1869.5564,903.4947 Q1870.8762,901.8428 1873.383,901.8428 Q1874.0886,901.8428 1874.7361,901.9922 Q1875.3835,902.1416 1875.948,902.4405 L1875.948,905.1631 Q1875.3171,904.5821 1874.7236,904.3123 Q1874.1301,904.0425 1873.4993,904.0425 Q1872.1545,904.0425 1871.4697,905.1092 Q1870.7849,906.1758 1870.7849,908.2759 Q1870.7849,910.3677 1871.4697,911.4344 Q1872.1545,912.501 1873.4993,912.501 Q1874.1301,912.501 1874.7236,912.2312 Q1875.3171,911.9615 1875.948,911.3804 Z " fill="#000000"/><text fill="#000000" font-family="sans-serif" font-size="14" lengthAdjust="spacing" textLength="156.543" x="1893.9748" y="913.251">GORMHouseRepository</text><line style="stroke:#181818;stroke-width:0.5;" x1="1664.01" x2="2247.9827" y1="923.96" y2="923.96"/><rect fill="none" height="6" style="stroke:#C82930;stroke-width:1.0;" width="6" x="1671.01" y="934.7041"/><text fill="#000000" font-family="sans-serif" font-size="14" lengthAdjust="spacing" textLength="85.5791" x="1683.01" y="941.4952">db: gorm.DB</text><line style="stroke:#181818;stroke-width:0.5;" x1="1664.01" x2="2247.9827" y1="948.4483" y2="948.4483"/><ellipse cx="1674.01" cy="962.1924" fill="#84BE84" rx="3" ry="3" style="stroke:#038048;stroke-width:1.0;"/><text fill="#000000" font-family="sans-serif" font-size="14" lengthAdjust="spacing" textLength="559.9727" x="1683.01" y="965.9834">CreateUserHouse(userId: UUID, house: web.NewHouseIn): persistance.HouseModel</text><ellipse cx="1674.01" cy="978.6807" fill="#84BE84" rx="3" ry="3" style="stroke:#038048;stroke-width:1.0;"/><text fill="#000000" font-family="sans-serif" font-size="14" lengthAdjust="spacing" textLength="316.0322" x="1683.01" y="982.4717">GetUserHouses(userID: UUID): []web.HouseOut</text><ellipse cx="1674.01" cy="995.169" fill="#84BE84" rx="3" ry="3" style="stroke:#038048;stroke-width:1.0;"/><text fill="#000000" font-family="sans-serif" font-size="14" lengthAdjust="spacing" textLength="489.4053" x="1683.01" y="998.96">UpdateUserHouse(house: web.UpdateHouseIn): persistance.HouseModel</text></g><!--class UserRepository--><g id="elem_UserRepository"><rect codeLine="67" fill="#F1F1F1" height="113.9531" id="UserRepository" rx="2.5" ry="2.5" style="stroke:#181818;stroke-width:0.5;" width="398.9756" x="1229.51" y="709.77"/><ellipse cx="1373.5022" cy="725.77" fill="#B4A7E5" rx="11" ry="11" style="stroke:#181818;stroke-width:1.0;"/><path d="M1369.9299,722.0351 L1369.9299,719.8769 L1377.3093,719.8769 L1377.3093,722.0351 L1374.844,722.0351 L1374.844,730.1118 L1377.3093,730.1118 L1377.3093,732.27 L1369.9299,732.27 L1369.9299,730.1118 L1372.3953,730.1118 L1372.3953,722.0351 Z " fill="#000000"/><text fill="#000000" font-family="sans-serif" font-size="14" font-style="italic" lengthAdjust="spacing" textLength="102.4912" x="1394.0022" y="731.061">UserRepository</text><line style="stroke:#181818;stroke-width:0.5;" x1="1230.51" x2="1627.4856" y1="741.77" y2="741.77"/><line style="stroke:#181818;stroke-width:0.5;" x1="1230.51" x2="1627.4856" y1="749.77" y2="749.77"/><ellipse cx="1240.51" cy="763.5141" fill="#84BE84" rx="3" ry="3" style="stroke:#038048;stroke-width:1.0;"/><text fill="#000000" font-family="sans-serif" font-size="14" lengthAdjust="spacing" textLength="237.5898" x="1249.51" y="767.3052">Create(user: web.NewUserIn): error</text><ellipse cx="1240.51" cy="780.0024" fill="#84BE84" rx="3" ry="3" style="stroke:#038048;stroke-width:1.0;"/><text fill="#000000" font-family="sans-serif" font-size="14" lengthAdjust="spacing" textLength="372.9756" x="1249.51" y="783.7934">GetByUsername(username: string): dto.UserDtoSchema</text><ellipse cx="1240.51" cy="796.4907" fill="#84BE84" rx="3" ry="3" style="stroke:#038048;stroke-width:1.0;"/><text fill="#000000" font-family="sans-serif" font-size="14" lengthAdjust="spacing" textLength="241.6982" x="1249.51" y="800.2817">Update(user: web.NewUserIn): error</text><ellipse cx="1240.51" cy="812.979" fill="#84BE84" rx="3" ry="3" style="stroke:#038048;stroke-width:1.0;"/><text fill="#000000" font-family="sans-serif" font-size="14" lengthAdjust="spacing" textLength="319.2725" x="1249.51" y="816.77">GetRequiredById(id: UUID): dto.UserDtoSchema</text></g><!--class GORMUserRepository--><g id="elem_GORMUserRepository"><rect codeLine="74" fill="#F1F1F1" height="130.4414" id="GORMUserRepository" rx="2.5" ry="2.5" style="stroke:#181818;stroke-width:0.5;" width="398.9756" x="1229.51" y="883.72"/><ellipse cx="1352.55" cy="899.72" fill="#ADD1B2" rx="11" ry="11" style="stroke:#181818;stroke-width:1.0;"/><path d="M1355.0232,905.8631 Q1354.4421,906.1619 1353.803,906.3113 Q1353.1638,906.4607 1352.4582,906.4607 Q1349.9514,906.4607 1348.6316,904.8089 Q1347.3118,903.157 1347.3118,900.0359 Q1347.3118,896.9065 1348.6316,895.2547 Q1349.9514,893.6028 1352.4582,893.6028 Q1353.1638,893.6028 1353.8113,893.7522 Q1354.4587,893.9016 1355.0232,894.2005 L1355.0232,896.9231 Q1354.3923,896.3421 1353.7988,896.0723 Q1353.2053,895.8025 1352.5745,895.8025 Q1351.2297,895.8025 1350.5449,896.8692 Q1349.8601,897.9358 1349.8601,900.0359 Q1349.8601,902.1277 1350.5449,903.1944 Q1351.2297,904.261 1352.5745,904.261 Q1353.2053,904.261 1353.7988,903.9912 Q1354.3923,903.7215 1355.0232,903.1404 Z " fill="#000000"/><text fill="#000000" font-family="sans-serif" font-size="14" lengthAdjust="spacing" textLength="144.3955" x="1373.05" y="905.011">GORMUserRepository</text><line style="stroke:#181818;stroke-width:0.5;" x1="1230.51" x2="1627.4856" y1="915.72" y2="915.72"/><rect fill="none" height="6" style="stroke:#C82930;stroke-width:1.0;" width="6" x="1237.51" y="926.4641"/><text fill="#000000" font-family="sans-serif" font-size="14" lengthAdjust="spacing" textLength="85.5791" x="1249.51" y="933.2552">db: gorm.DB</text><line style="stroke:#181818;stroke-width:0.5;" x1="1230.51" x2="1627.4856" y1="940.2083" y2="940.2083"/><ellipse cx="1240.51" cy="953.9524" fill="#84BE84" rx="3" ry="3" style="stroke:#038048;stroke-width:1.0;"/><text fill="#000000" font-family="sans-serif" font-size="14" lengthAdjust="spacing" textLength="237.5898" x="1249.51" y="957.7434">Create(user: web.NewUserIn): error</text><ellipse cx="1240.51" cy="970.4407" fill="#84BE84" rx="3" ry="3" style="stroke:#038048;stroke-width:1.0;"/><text fill="#000000" font-family="sans-serif" font-size="14" lengthAdjust="spacing" textLength="372.9756" x="1249.51" y="974.2317">GetByUsername(username: string): dto.UserDtoSchema</text><ellipse cx="1240.51" cy="986.929" fill="#84BE84" rx="3" ry="3" style="stroke:#038048;stroke-width:1.0;"/><text fill="#000000" font-family="sans-serif" font-size="14" lengthAdjust="spacing" textLength="241.6982" x="1249.51" y="990.72">Update(user: web.NewUserIn): error</text><ellipse cx="1240.51" cy="1003.4173" fill="#84BE84" rx="3" ry="3" style="stroke:#038048;stroke-width:1.0;"/><text fill="#000000" font-family="sans-serif" font-size="14" lengthAdjust="spacing" textLength="319.2725" x="1249.51" y="1007.2083">GetRequiredById(id: UUID): dto.UserDtoSchema</text></g><!--class KafkaSupplier--><g id="elem_KafkaSupplier"><rect codeLine="2" fill="#F1F1F1" height="113.9531" id="KafkaSupplier" rx="2.5" ry="2.5" style="stroke:#181818;stroke-width:0.5;" width="836.6191" x="1426.69" y="496.08"/><ellipse cx="1794.0464" cy="512.08" fill="#ADD1B2" rx="11" ry="11" style="stroke:#181818;stroke-width:1.0;"/><path d="M1796.5196,518.2231 Q1795.9385,518.5219 1795.2994,518.6713 Q1794.6602,518.8207 1793.9546,518.8207 Q1791.4478,518.8207 1790.128,517.1689 Q1788.8082,515.517 1788.8082,512.3959 Q1788.8082,509.2665 1790.128,507.6147 Q1791.4478,505.9628 1793.9546,505.9628 Q1794.6602,505.9628 1795.3077,506.1122 Q1795.9551,506.2616 1796.5196,506.5605 L1796.5196,509.2831 Q1795.8887,508.7021 1795.2952,508.4323 Q1794.7017,508.1625 1794.0709,508.1625 Q1792.7261,508.1625 1792.0413,509.2292 Q1791.3565,510.2958 1791.3565,512.3959 Q1791.3565,514.4877 1792.0413,515.5544 Q1792.7261,516.621 1794.0709,516.621 Q1794.7017,516.621 1795.2952,516.3512 Q1795.8887,516.0815 1796.5196,515.5004 Z " fill="#000000"/><text fill="#000000" font-family="sans-serif" font-size="14" lengthAdjust="spacing" textLength="93.4063" x="1814.5464" y="517.371">KafkaSupplier</text><line style="stroke:#181818;stroke-width:0.5;" x1="1427.69" x2="2262.3091" y1="528.08" y2="528.08"/><rect fill="none" height="6" style="stroke:#C82930;stroke-width:1.0;" width="6" x="1434.69" y="538.8241"/><text fill="#000000" font-family="sans-serif" font-size="14" lengthAdjust="spacing" textLength="246.1826" x="1446.69" y="545.6152">verifyHouseConsumer: kafka.Reader</text><rect fill="none" height="6" style="stroke:#C82930;stroke-width:1.0;" width="6" x="1434.69" y="555.3124"/><text fill="#000000" font-family="sans-serif" font-size="14" lengthAdjust="spacing" textLength="230.8428" x="1446.69" y="562.1034">verifyHouseProducer: kafka.Writer</text><line style="stroke:#181818;stroke-width:0.5;" x1="1427.69" x2="2262.3091" y1="569.0566" y2="569.0566"/><ellipse cx="1437.69" cy="582.8007" fill="#84BE84" rx="3" ry="3" style="stroke:#038048;stroke-width:1.0;"/><text fill="#000000" font-family="sans-serif" font-size="14" lengthAdjust="spacing" textLength="435.7773" x="1446.69" y="586.5917">ReadModuleAdditionTopic(ctx: context.Context): kafka.Message</text><ellipse cx="1437.69" cy="599.289" fill="#84BE84" rx="3" ry="3" style="stroke:#038048;stroke-width:1.0;"/><text fill="#000000" font-family="sans-serif" font-size="14" lengthAdjust="spacing" textLength="810.6191" x="1446.69" y="603.08">SendMessageToModuleVerificationTopic(ctx: context.Context, key: []byte, event: events.ModuleVerificationEvent): error</text></g><!--reverse link HouseRepository to GORMHouseRepository--><g id="link_HouseRepository_GORMHouseRepository"><path codeLine="65" d="M1956,833.56 C1956,856.91 1956,867.17 1956,891.57 " fill="none" id="HouseRepository-backto-GORMHouseRepository" style="stroke:#181818;stroke-width:1.0;"/><polygon fill="none" points="1956,815.56,1950,833.56,1962,833.56,1956,815.56" style="stroke:#181818;stroke-width:1.0;"/></g><!--reverse link UserRepository to GORMUserRepository--><g id="link_UserRepository_GORMUserRepository"><path codeLine="82" d="M1429,841.77 C1429,860.68 1429,863.93 1429,883.44 " fill="none" id="UserRepository-backto-GORMUserRepository" style="stroke:#181818;stroke-width:1.0;"/><polygon fill="none" points="1429,823.77,1423,841.77,1435,841.77,1429,823.77" style="stroke:#181818;stroke-width:1.0;"/></g><!--link Container to AuthService--><g id="link_Container_AuthService"><path codeLine="97" d="M273.14,155.37 C283.65,160.83 294.07,166.41 304,171.95 C341.11,192.68 375.5771,213.6902 410.8471,236.1202 " fill="none" id="Container-to-AuthService" style="stroke:#181818;stroke-width:1.0;"/><polygon fill="#181818" points="415.91,239.34,410.4621,231.1351,411.6909,236.6569,406.1691,237.8856,415.91,239.34" style="stroke:#181818;stroke-width:1.0;"/></g><!--link Container to UserService--><g id="link_Container_UserService"><path codeLine="98" d="M237.2,155.25 C242.26,160.53 246.93,166.11 251,171.95 C316.5,266.1 240.28,342.67 326,418.86 C404.66,488.78 671.1409,522.8995 863.2309,538.9795 " fill="none" id="Container-to-UserService" style="stroke:#181818;stroke-width:1.0;"/><polygon fill="#181818" points="869.21,539.48,860.575,534.7432,864.2274,539.0629,859.9077,542.7153,869.21,539.48" style="stroke:#181818;stroke-width:1.0;"/></g><!--link Container to HouseService--><g id="link_Container_HouseService"><path codeLine="99" d="M288.41,106.16 C405.35,114.79 579.1,133.26 726,171.95 C768.46,183.14 807.0649,196.1534 849.0549,212.4134 " fill="none" id="Container-to-HouseService" style="stroke:#181818;stroke-width:1.0;"/><polygon fill="#181818" points="854.65,214.58,847.7017,207.5999,849.9874,212.7745,844.8129,215.0601,854.65,214.58" style="stroke:#181818;stroke-width:1.0;"/></g><!--link Container to AppSettings--><g id="link_Container_AppSettings"><path codeLine="100" d="M155,155.26 C155,178.45 155,199.77 155,225.05 " fill="none" id="Container-to-AppSettings" style="stroke:#181818;stroke-width:1.0;"/><polygon fill="#181818" points="155,231.05,159,222.05,155,226.05,151,222.05,155,231.05" style="stroke:#181818;stroke-width:1.0;"/></g><!--link HouseService to HouseRepository--><g id="link_HouseService_HouseRepository"><path codeLine="102" d="M1394.97,334.5 C1733.85,359.06 2223.08,405.42 2281,471.35 C2335.98,533.92 2329.83,591.28 2281,658.77 C2262.98,683.67 2244.2154,699.9851 2217.3654,714.7751 " fill="none" id="HouseService-to-HouseRepository" style="stroke:#181818;stroke-width:1.0;"/><polygon fill="#181818" points="2212.11,717.67,2221.9231,716.8313,2216.4895,715.2576,2218.0632,709.824,2212.11,717.67" style="stroke:#181818;stroke-width:1.0;"/></g><!--link HouseService to KafkaSupplier--><g id="link_HouseService_KafkaSupplier"><path codeLine="103" d="M1387.43,411.77 C1480.5,440.31 1573.3535,468.7713 1655.0935,493.8313 " fill="none" id="HouseService-to-KafkaSupplier" style="stroke:#181818;stroke-width:1.0;"/><polygon fill="#181818" points="1660.83,495.59,1653.3978,489.1276,1656.0496,494.1244,1651.0528,496.7763,1660.83,495.59" style="stroke:#181818;stroke-width:1.0;"/></g><!--link HouseService to UserService--><g id="link_HouseService_UserService"><path codeLine="104" d="M1069,411.6 C1069,431.36 1069,445.94 1069,465.06 " fill="none" id="HouseService-to-UserService" style="stroke:#181818;stroke-width:1.0;"/><polygon fill="#181818" points="1069,471.06,1073,462.06,1069,466.06,1065,462.06,1069,471.06" style="stroke:#181818;stroke-width:1.0;"/></g><!--link UserService to UserRepository--><g id="link_UserService_UserRepository"><path codeLine="106" d="M1206.9,635.14 C1249.06,659.93 1289.3084,683.5979 1328.0184,706.3679 " fill="none" id="UserService-to-UserRepository" style="stroke:#181818;stroke-width:1.0;"/><polygon fill="#181818" points="1333.19,709.41,1327.4606,701.3991,1328.8803,706.8749,1323.4045,708.2947,1333.19,709.41" style="stroke:#181818;stroke-width:1.0;"/></g><!--SRC=[vLRDRjf04Bxp5AkSG0ayW5LL2b0bgCsFS6WFLLKjzW0hZDVTNPEWDk_UtJNW6Ti4oB7b06Rd_zlvnXCbN6lscS-MFCopB16WsEyMivykMuCIiysjp3KCPAhp5QY0BPrgRmmy1bNNUrGopgDIxviIPgjtoPpHdPKdS1t7mWYPFibCHEt8l0Giagc15zCR5B-TdOSxq9hFOUiYX3JUdZp9mjTN5rr4_6r_Lsm9cu1z_p7T6BXYi8RK1CMFxjKTVN82cmCe9LNhjTNAUBIqGTc5Nd05ySKMfCZ3vs9maUwXAtAzpiqY1BKM4GHC5myzT8XK9rPSKqM7IDN3NDF5fpY5B0l1697ETO3_U9LNMbTXJ0j3sQBIken7aRs44285PWSg4YkOAT2B0_9BTWCMAsxWshjvaaj8spP_bVALgyaecsDdzz1WDoxydsxubISYhWGqxZlqciXqa72nqWsc9EPHMujiYIA-70BZmWd6a4ajZ5IsFTN-kRZHKeQibfYi0UKkKijnJpNtqa21hSp9V3GFvIYssfFHyAh8Bc3FCFsfemMikExTmxFN7AKTAl2d3xaXbsNsdZLntN4jSSHwaiKajOPa2fKodmoK5jhmTCS7Isj8A1kKN4F1zb5gLPF4ixsfS9JiLCg45aQdc1yMXwROTiJqkGQlXnpPOUdQiSaPdKzxu_r4glKOkc3IOgwo0nqs8IAKLoZcwIJpe7Z4tRKxPOzo6RzG_YBdeax2AvRPh9wbYX4_ggR51PuOnw8-o9Lou3GmFZRIrpCqClJjGItxcydMvXt6O_YL2plp-vjHt1PbMpIRqQbQmhqRhC8sXffnUqqLXfDtnwdCf8myoe06JWuf9y_ZuZaS9Erwyp2-Ern_byNJWCsbMlM6_Vy2bIeM7_vqkqqWjIezH3dSq4Adi-lz73cNn-SIgj8t1sj-kst-6IGgzUzRfJBFZosjQ1qaVJFitqfj6fQeON_YwseGF5Q6FH7U8_oebLHDSVn2qrTsnMeC5jwtwOhd9swvWdUx7_7UMf7WHOXAo0fTSOSsvnRPvlQ62FYQ0jtGQcASKWk_ntT2vFil]--></g></svg>