<svg xmlns="http://www.w3.org/2000/svg" xmlns:xlink="http://www.w3.org/1999/xlink" contentStyleType="text/css" height="831px" preserveAspectRatio="none" style="width:980px;height:831px;background:#FFFFFF;" version="1.1" viewBox="0 0 980 831" width="980px" zoomAndPan="magnify"><defs/><g><!--class AuthService--><g id="elem_AuthService"><rect codeLine="3" fill="#F1F1F1" height="146.9297" id="AuthService" rx="2.5" ry="2.5" style="stroke:#181818;stroke-width:0.5;" width="349.9072" x="7" y="23.49"/><ellipse cx="137.9014" cy="39.49" fill="#ADD1B2" rx="11" ry="11" style="stroke:#181818;stroke-width:1.0;"/><path d="M140.3745,45.6331 Q139.7935,45.9319 139.1543,46.0813 Q138.5151,46.2307 137.8096,46.2307 Q135.3027,46.2307 133.9829,44.5789 Q132.6631,42.927 132.6631,39.8059 Q132.6631,36.6765 133.9829,35.0247 Q135.3027,33.3728 137.8096,33.3728 Q138.5151,33.3728 139.1626,33.5222 Q139.8101,33.6716 140.3745,33.9705 L140.3745,36.6931 Q139.7437,36.1121 139.1501,35.8423 Q138.5566,35.5725 137.9258,35.5725 Q136.5811,35.5725 135.8962,36.6392 Q135.2114,37.7058 135.2114,39.8059 Q135.2114,41.8977 135.8962,42.9644 Q136.5811,44.031 137.9258,44.031 Q138.5566,44.031 139.1501,43.7612 Q139.7437,43.4915 140.3745,42.9104 Z " fill="#000000"/><text fill="#000000" font-family="sans-serif" font-size="14" lengthAdjust="spacing" textLength="79.6045" x="158.4014" y="44.781">AuthService</text><line style="stroke:#181818;stroke-width:0.5;" x1="8" x2="355.9072" y1="55.49" y2="55.49"/><text fill="#000000" font-family="sans-serif" font-size="14" lengthAdjust="spacing" textLength="141.9482" x="13" y="73.0252">-accessSecret: string</text><text fill="#000000" font-family="sans-serif" font-size="14" lengthAdjust="spacing" textLength="145.8311" x="13" y="89.5134">-refreshSecret: string</text><line style="stroke:#181818;stroke-width:0.5;" x1="8" x2="355.9072" y1="96.4666" y2="96.4666"/><text fill="#000000" font-family="sans-serif" font-size="14" lengthAdjust="spacing" textLength="332.8281" x="13" y="114.0017">+GenerateAccessToken(username: string): string</text><text fill="#000000" font-family="sans-serif" font-size="14" lengthAdjust="spacing" textLength="337.9072" x="13" y="130.49">+GenerateRefreshToken(username: string): string</text><text fill="#000000" font-family="sans-serif" font-size="14" lengthAdjust="spacing" textLength="328.8086" x="13" y="146.9783">+ValidateAccessToken(tokenString: string): bool</text><text fill="#000000" font-family="sans-serif" font-size="14" lengthAdjust="spacing" textLength="333.8877" x="13" y="163.4666">+ValidateRefreshToken(tokenString: string): bool</text></g><!--class HouseService--><g id="elem_HouseService"><rect codeLine="12" fill="#F1F1F1" height="179.9063" id="HouseService" rx="2.5" ry="2.5" style="stroke:#181818;stroke-width:0.5;" width="427.5361" x="392.19" y="7"/><ellipse cx="556.7857" cy="23" fill="#ADD1B2" rx="11" ry="11" style="stroke:#181818;stroke-width:1.0;"/><path d="M559.2588,29.1431 Q558.6778,29.4419 558.0386,29.5913 Q557.3995,29.7407 556.6939,29.7407 Q554.1871,29.7407 552.8672,28.0889 Q551.5474,26.437 551.5474,23.3159 Q551.5474,20.1865 552.8672,18.5347 Q554.1871,16.8828 556.6939,16.8828 Q557.3995,16.8828 558.0469,17.0322 Q558.6944,17.1816 559.2588,17.4805 L559.2588,20.2031 Q558.628,19.6221 558.0345,19.3523 Q557.441,19.0825 556.8101,19.0825 Q555.4654,19.0825 554.7806,20.1492 Q554.0958,21.2158 554.0958,23.3159 Q554.0958,25.4077 554.7806,26.4744 Q555.4654,27.541 556.8101,27.541 Q557.441,27.541 558.0345,27.2712 Q558.628,27.0015 559.2588,26.4204 Z " fill="#000000"/><text fill="#000000" font-family="sans-serif" font-size="14" lengthAdjust="spacing" textLength="89.8447" x="577.2857" y="28.291">HouseService</text><line style="stroke:#181818;stroke-width:0.5;" x1="393.19" x2="818.7261" y1="39" y2="39"/><text fill="#000000" font-family="sans-serif" font-size="14" lengthAdjust="spacing" textLength="162.5381" x="398.19" y="56.5352">-repo: HouseRepository</text><text fill="#000000" font-family="sans-serif" font-size="14" lengthAdjust="spacing" textLength="202.8154" x="398.19" y="73.0234">-kafkaSupplier: KafkaSupplier</text><text fill="#000000" font-family="sans-serif" font-size="14" lengthAdjust="spacing" textLength="171.3428" x="398.19" y="89.5117">-userService: UserService</text><line style="stroke:#181818;stroke-width:0.5;" x1="393.19" x2="818.7261" y1="96.4648" y2="96.4648"/><text fill="#000000" font-family="sans-serif" font-size="14" lengthAdjust="spacing" textLength="395.1719" x="398.19" y="114">+CreateUserHouse(userId: uint, house: NewHouseIn): void</text><text fill="#000000" font-family="sans-serif" font-size="14" lengthAdjust="spacing" textLength="325.1104" x="398.19" y="130.4883">+GetUserHouses(userID: uint): List&lt;HouseOut&gt;</text><text fill="#000000" font-family="sans-serif" font-size="14" lengthAdjust="spacing" textLength="331.8643" x="398.19" y="146.9766">+UpdateUserHouse(house: UpdateHouseIn): void</text><text fill="#000000" font-family="sans-serif" font-size="14" lengthAdjust="spacing" textLength="369.2979" x="398.19" y="163.4648">-verifyUserAndHouse(userId: uint, houseId: uint): bool</text><text fill="#000000" font-family="sans-serif" font-size="14" lengthAdjust="spacing" textLength="415.5361" x="398.19" y="179.9531">+ApproveModuleInstallation(userId: uint, houseId: uint): void</text></g><!--class UserService--><g id="elem_UserService"><rect codeLine="23" fill="#F1F1F1" height="163.418" id="UserService" rx="2.5" ry="2.5" style="stroke:#181818;stroke-width:0.5;" width="369.0273" x="9.44" y="263.91"/><ellipse cx="150.855" cy="279.91" fill="#ADD1B2" rx="11" ry="11" style="stroke:#181818;stroke-width:1.0;"/><path d="M153.3282,286.0531 Q152.7471,286.3519 152.108,286.5013 Q151.4688,286.6507 150.7632,286.6507 Q148.2564,286.6507 146.9366,284.9989 Q145.6168,283.347 145.6168,280.2259 Q145.6168,277.0965 146.9366,275.4447 Q148.2564,273.7928 150.7632,273.7928 Q151.4688,273.7928 152.1163,273.9422 Q152.7637,274.0916 153.3282,274.3905 L153.3282,277.1131 Q152.6973,276.5321 152.1038,276.2623 Q151.5103,275.9925 150.8795,275.9925 Q149.5347,275.9925 148.8499,277.0592 Q148.1651,278.1258 148.1651,280.2259 Q148.1651,282.3177 148.8499,283.3844 Q149.5347,284.451 150.8795,284.451 Q151.5103,284.451 152.1038,284.1812 Q152.6973,283.9115 153.3282,283.3304 Z " fill="#000000"/><text fill="#000000" font-family="sans-serif" font-size="14" lengthAdjust="spacing" textLength="77.6973" x="171.355" y="285.201">UserService</text><line style="stroke:#181818;stroke-width:0.5;" x1="10.44" x2="377.4673" y1="295.91" y2="295.91"/><text fill="#000000" font-family="sans-serif" font-size="14" lengthAdjust="spacing" textLength="150.3906" x="15.44" y="313.4452">-repo: UserRepository</text><line style="stroke:#181818;stroke-width:0.5;" x1="10.44" x2="377.4673" y1="320.3983" y2="320.3983"/><text fill="#000000" font-family="sans-serif" font-size="14" lengthAdjust="spacing" textLength="215.5439" x="15.44" y="337.9334">+SignUp(user: NewUserIn): void</text><text fill="#000000" font-family="sans-serif" font-size="14" lengthAdjust="spacing" textLength="332.4248" x="15.44" y="354.4217">+Login(username: string, password: string): void</text><text fill="#000000" font-family="sans-serif" font-size="14" lengthAdjust="spacing" textLength="216.1182" x="15.44" y="370.91">+Update(user: NewUserIn): void</text><text fill="#000000" font-family="sans-serif" font-size="14" lengthAdjust="spacing" textLength="325.5615" x="15.44" y="387.3983">+GetCurrent(username: string): UserDtoSchema</text><text fill="#000000" font-family="sans-serif" font-size="14" lengthAdjust="spacing" textLength="357.0273" x="15.44" y="403.8866">+GetByUsername(username: string): UserDtoSchema</text><text fill="#000000" font-family="sans-serif" font-size="14" lengthAdjust="spacing" textLength="296.0645" x="15.44" y="420.3748">+GetRequiredById(id: uint): UserDtoSchema</text></g><!--class KafkaSupplier--><g id="elem_KafkaSupplier"><rect codeLine="33" fill="#F1F1F1" height="130.4414" id="KafkaSupplier" rx="2.5" ry="2.5" style="stroke:#181818;stroke-width:0.5;" width="360.0107" x="413.95" y="280.39"/><ellipse cx="543.0022" cy="296.39" fill="#ADD1B2" rx="11" ry="11" style="stroke:#181818;stroke-width:1.0;"/><path d="M545.4754,302.5331 Q544.8943,302.8319 544.2552,302.9813 Q543.616,303.1307 542.9104,303.1307 Q540.4036,303.1307 539.0838,301.4789 Q537.764,299.827 537.764,296.7059 Q537.764,293.5765 539.0838,291.9247 Q540.4036,290.2728 542.9104,290.2728 Q543.616,290.2728 544.2635,290.4222 Q544.9109,290.5716 545.4754,290.8705 L545.4754,293.5931 Q544.8445,293.0121 544.251,292.7423 Q543.6575,292.4725 543.0267,292.4725 Q541.6819,292.4725 540.9971,293.5392 Q540.3123,294.6058 540.3123,296.7059 Q540.3123,298.7977 540.9971,299.8644 Q541.6819,300.931 543.0267,300.931 Q543.6575,300.931 544.251,300.6612 Q544.8445,300.3915 545.4754,299.8104 Z " fill="#000000"/><text fill="#000000" font-family="sans-serif" font-size="14" lengthAdjust="spacing" textLength="93.4063" x="563.5022" y="301.681">KafkaSupplier</text><line style="stroke:#181818;stroke-width:0.5;" x1="414.95" x2="772.9607" y1="312.39" y2="312.39"/><text fill="#000000" font-family="sans-serif" font-size="14" lengthAdjust="spacing" textLength="225.709" x="419.95" y="329.9252">-moduleAdditionProducer: string</text><text fill="#000000" font-family="sans-serif" font-size="14" lengthAdjust="spacing" textLength="254.3379" x="419.95" y="346.4134">-moduleVerificationConsumer: string</text><line style="stroke:#181818;stroke-width:0.5;" x1="414.95" x2="772.9607" y1="353.3666" y2="353.3666"/><text fill="#000000" font-family="sans-serif" font-size="14" lengthAdjust="spacing" textLength="348.0107" x="419.95" y="370.9017">+SendMessage(topic: string, message: string): void</text><text fill="#000000" font-family="sans-serif" font-size="14" lengthAdjust="spacing" textLength="242.5391" x="419.95" y="387.39">+ReadMessage(topic: string): string</text><text fill="#000000" font-family="sans-serif" font-size="14" lengthAdjust="spacing" textLength="95.0674" x="419.95" y="403.8783">+Close(): void</text></g><!--class GormRepository--><g id="elem_GormRepository"><rect codeLine="41" fill="#F1F1F1" height="64.4883" id="GormRepository" rx="2.5" ry="2.5" style="stroke:#181818;stroke-width:0.5;" width="141.6416" x="587.13" y="759.74"/><ellipse cx="602.13" cy="775.74" fill="#ADD1B2" rx="11" ry="11" style="stroke:#181818;stroke-width:1.0;"/><path d="M604.6031,781.8831 Q604.0221,782.1819 603.3829,782.3313 Q602.7438,782.4807 602.0382,782.4807 Q599.5314,782.4807 598.2115,780.8289 Q596.8917,779.177 596.8917,776.0559 Q596.8917,772.9265 598.2115,771.2747 Q599.5314,769.6228 602.0382,769.6228 Q602.7438,769.6228 603.3912,769.7722 Q604.0387,769.9216 604.6031,770.2205 L604.6031,772.9431 Q603.9723,772.3621 603.3788,772.0923 Q602.7853,771.8225 602.1544,771.8225 Q600.8097,771.8225 600.1249,772.8892 Q599.4401,773.9558 599.4401,776.0559 Q599.4401,778.1477 600.1249,779.2144 Q600.8097,780.281 602.1544,780.281 Q602.7853,780.281 603.3788,780.0112 Q603.9723,779.7415 604.6031,779.1604 Z " fill="#000000"/><text fill="#000000" font-family="sans-serif" font-size="14" lengthAdjust="spacing" textLength="109.6416" x="616.13" y="781.031">GormRepository</text><line style="stroke:#181818;stroke-width:0.5;" x1="588.13" x2="727.7716" y1="791.74" y2="791.74"/><text fill="#000000" font-family="sans-serif" font-size="14" lengthAdjust="spacing" textLength="69.4531" x="593.13" y="809.2752">&#171;abstract&#187;</text><line style="stroke:#181818;stroke-width:0.5;" x1="588.13" x2="727.7716" y1="816.2283" y2="816.2283"/></g><!--class HouseRepository--><g id="elem_HouseRepository"><rect codeLine="45" fill="#F1F1F1" height="97.4648" id="HouseRepository" rx="2.5" ry="2.5" style="stroke:#181818;stroke-width:0.5;" width="343.8643" x="630.02" y="457.32"/><ellipse cx="740.3828" cy="473.32" fill="#ADD1B2" rx="11" ry="11" style="stroke:#181818;stroke-width:1.0;"/><path d="M742.8559,479.4631 Q742.2749,479.7619 741.6357,479.9113 Q740.9966,480.0607 740.291,480.0607 Q737.7842,480.0607 736.4643,478.4089 Q735.1445,476.757 735.1445,473.6359 Q735.1445,470.5065 736.4643,468.8547 Q737.7842,467.2028 740.291,467.2028 Q740.9966,467.2028 741.644,467.3522 Q742.2915,467.5016 742.8559,467.8005 L742.8559,470.5231 Q742.2251,469.9421 741.6316,469.6723 Q741.0381,469.4025 740.4072,469.4025 Q739.0625,469.4025 738.3777,470.4692 Q737.6929,471.5358 737.6929,473.6359 Q737.6929,475.7277 738.3777,476.7944 Q739.0625,477.861 740.4072,477.861 Q741.0381,477.861 741.6316,477.5912 Q742.2251,477.3215 742.8559,476.7404 Z " fill="#000000"/><text fill="#000000" font-family="sans-serif" font-size="14" lengthAdjust="spacing" textLength="114.6387" x="760.8828" y="478.611">HouseRepository</text><line style="stroke:#181818;stroke-width:0.5;" x1="631.02" x2="972.8843" y1="489.32" y2="489.32"/><line style="stroke:#181818;stroke-width:0.5;" x1="631.02" x2="972.8843" y1="497.32" y2="497.32"/><text fill="#000000" font-family="sans-serif" font-size="14" lengthAdjust="spacing" textLength="308.5947" x="636.02" y="514.8552">+CreateUserHouse(house: NewHouseIn): void</text><text fill="#000000" font-family="sans-serif" font-size="14" lengthAdjust="spacing" textLength="270.1563" x="636.02" y="531.3434">+GetUserHouse(userId: uint): HouseOut</text><text fill="#000000" font-family="sans-serif" font-size="14" lengthAdjust="spacing" textLength="331.8643" x="636.02" y="547.8317">+UpdateUserHouse(house: UpdateHouseIn): void</text></g><!--class UserRepository--><g id="elem_UserRepository"><rect codeLine="51" fill="#F1F1F1" height="113.9531" id="UserRepository" rx="2.5" ry="2.5" style="stroke:#181818;stroke-width:0.5;" width="369.0273" x="305.44" y="584.79"/><ellipse cx="434.4581" cy="600.79" fill="#ADD1B2" rx="11" ry="11" style="stroke:#181818;stroke-width:1.0;"/><path d="M436.9312,606.9331 Q436.3502,607.2319 435.711,607.3813 Q435.0718,607.5307 434.3663,607.5307 Q431.8594,607.5307 430.5396,605.8789 Q429.2198,604.227 429.2198,601.1059 Q429.2198,597.9765 430.5396,596.3247 Q431.8594,594.6728 434.3663,594.6728 Q435.0718,594.6728 435.7193,594.8222 Q436.3668,594.9716 436.9312,595.2705 L436.9312,597.9931 Q436.3004,597.4121 435.7068,597.1423 Q435.1133,596.8725 434.4825,596.8725 Q433.1378,596.8725 432.4529,597.9392 Q431.7681,599.0058 431.7681,601.1059 Q431.7681,603.1977 432.4529,604.2644 Q433.1378,605.331 434.4825,605.331 Q435.1133,605.331 435.7068,605.0612 Q436.3004,604.7915 436.9312,604.2104 Z " fill="#000000"/><text fill="#000000" font-family="sans-serif" font-size="14" lengthAdjust="spacing" textLength="102.4912" x="454.9581" y="606.081">UserRepository</text><line style="stroke:#181818;stroke-width:0.5;" x1="306.44" x2="673.4673" y1="616.79" y2="616.79"/><line style="stroke:#181818;stroke-width:0.5;" x1="306.44" x2="673.4673" y1="624.79" y2="624.79"/><text fill="#000000" font-family="sans-serif" font-size="14" lengthAdjust="spacing" textLength="212.0098" x="311.44" y="642.3252">+Create(user: NewUserIn): void</text><text fill="#000000" font-family="sans-serif" font-size="14" lengthAdjust="spacing" textLength="357.0273" x="311.44" y="658.8134">+GetByUsername(username: string): UserDtoSchema</text><text fill="#000000" font-family="sans-serif" font-size="14" lengthAdjust="spacing" textLength="216.1182" x="311.44" y="675.3017">+Update(user: NewUserIn): void</text><text fill="#000000" font-family="sans-serif" font-size="14" lengthAdjust="spacing" textLength="296.0645" x="311.44" y="691.79">+GetRequiredById(id: uint): UserDtoSchema</text></g><!--link AuthService to UserService--><g id="link_AuthService_UserService"><path codeLine="58" d="M185.49,170.63 C186.91,199.9 188.2688,227.7871 189.7288,257.8371 " fill="none" id="AuthService-to-UserService" style="stroke:#181818;stroke-width:1.0;"/><polygon fill="#181818" points="190.02,263.83,193.5785,254.6465,189.7774,258.8359,185.588,255.0347,190.02,263.83" style="stroke:#181818;stroke-width:1.0;"/><text fill="#000000" font-family="sans-serif" font-size="13" lengthAdjust="spacing" textLength="103.7842" x="189.31" y="230.4784">Validates tokens</text></g><!--link HouseService to HouseRepository--><g id="link_HouseService_HouseRepository"><path codeLine="59" d="M743.1284,195.6797 C766.1384,217.9197 778.44,235.35 791.95,263.91 C821.16,325.65 818.0184,400.582 811.3084,451.202 " fill="none" id="HouseService-HouseRepository" style="stroke:#181818;stroke-width:1.0;"/><polygon fill="#181818" points="734.5,187.34,736.0343,194.386,743.1284,195.6797,741.5941,188.6337,734.5,187.34" style="stroke:#181818;stroke-width:1.0;"/><polygon fill="#181818" points="810.52,457.15,815.668,448.7537,811.177,452.1934,807.7373,447.7024,810.52,457.15" style="stroke:#181818;stroke-width:1.0;"/><text fill="#000000" font-family="sans-serif" font-size="13" lengthAdjust="spacing" textLength="29.5039" x="773.48" y="230.4784">Uses</text></g><!--link HouseService to UserService--><g id="link_HouseService_UserService"><path codeLine="60" d="M446.3344,193.5145 C404.7644,218.4045 375.3082,236.0384 334.5782,260.4184 " fill="none" id="HouseService-UserService" style="stroke:#181818;stroke-width:1.0;"/><polygon fill="#181818" points="456.63,187.35,449.4274,187.0004,446.3344,193.5145,453.537,193.8641,456.63,187.35" style="stroke:#181818;stroke-width:1.0;"/><polygon fill="#181818" points="329.43,263.5,339.2067,262.3098,333.7202,260.932,335.0979,255.4455,329.43,263.5" style="stroke:#181818;stroke-width:1.0;"/><text fill="#000000" font-family="sans-serif" font-size="13" lengthAdjust="spacing" textLength="29.5039" x="400.95" y="230.4784">Uses</text></g><!--link HouseService to KafkaSupplier--><g id="link_HouseService_KafkaSupplier"><path codeLine="61" d="M601.0192,199.3359 C599.5292,230.0859 598.7516,245.8971 597.3716,274.2571 " fill="none" id="HouseService-KafkaSupplier" style="stroke:#181818;stroke-width:1.0;"/><polygon fill="#181818" points="601.6,187.35,597.3143,193.1494,601.0192,199.3359,605.3049,193.5366,601.6,187.35" style="stroke:#181818;stroke-width:1.0;"/><polygon fill="#181818" points="597.08,280.25,601.5127,271.455,597.323,275.2559,593.5222,271.0662,597.08,280.25" style="stroke:#181818;stroke-width:1.0;"/><text fill="#000000" font-family="sans-serif" font-size="13" lengthAdjust="spacing" textLength="82.0054" x="600.95" y="230.4784">Sends events</text></g><!--link UserService to UserRepository--><g id="link_UserService_UserRepository"><path codeLine="62" d="M284.1316,436.2289 C334.2716,486.0589 384.4436,535.9212 429.1236,580.3112 " fill="none" id="UserService-UserRepository" style="stroke:#181818;stroke-width:1.0;"/><polygon fill="#181818" points="275.62,427.77,277.0561,434.8366,284.1316,436.2289,282.6954,429.1623,275.62,427.77" style="stroke:#181818;stroke-width:1.0;"/><polygon fill="#181818" points="433.38,584.54,429.8146,575.3592,429.833,581.016,424.1761,581.0344,433.38,584.54" style="stroke:#181818;stroke-width:1.0;"/><text fill="#000000" font-family="sans-serif" font-size="13" lengthAdjust="spacing" textLength="29.5039" x="403.49" y="511.1284">Uses</text></g><!--link HouseRepository to GormRepository--><g id="link_HouseRepository_GormRepository"><path codeLine="64" d="M777.53,555.22 C748,613.44 707.2817,693.7166 682.1417,743.2866 " fill="none" id="HouseRepository-to-GormRepository" style="stroke:#181818;stroke-width:1.0;"/><polygon fill="none" points="674,759.34,687.4928,746.0005,676.7905,740.5727,674,759.34" style="stroke:#181818;stroke-width:1.0;"/></g><!--link UserRepository to GormRepository--><g id="link_UserRepository_GormRepository"><path codeLine="65" d="M553.95,699.22 C577.13,719.68 588.9751,730.1183 608.8351,747.6483 " fill="none" id="UserRepository-to-GormRepository" style="stroke:#181818;stroke-width:1.0;"/><polygon fill="none" points="622.33,759.56,612.8057,743.15,604.8645,752.1466,622.33,759.56" style="stroke:#181818;stroke-width:1.0;"/></g><!--SRC=[bLLDRwCm4BtpAtnijqNQCueYqLJgHcrtLs7JksDF4YjWKzjGPJ_- -zf3GZ2GDhr4iUUzcU7D6p0x8KkgQK5OJer9hTLYLLcOCoKpyHl8roZ224ahkyr0ru81-HCH4XFA61YJ0TDW4s8SKsume66jmMm7aHlo018qjP0YzPVQWRog36X92pW2hqSPYoRd9PGNcWlUAsBzRuQO3ccbL1vGWYhlSFuTLVccN2-XB1fAbJI1XVjhX5LwZv4TNUzeLfLbBa0dvB5xH81_haEoX2nF1-nnfi5rw6ynDuemvmcfXBItPEll4l8TtZ0wbwxLMWb-4D6sFDCGxnkYGpq9OoSO-b7PAUAN9GzA7P8truFyCQb1Y_NUurF9ptPtF7Q5JyjIgngU5QzobzHOckVK2YK_I82bsobqf0g6uE-36ToGJ6paiiJig9Q7X68zgOqOMkoMbAxIczAyuuMMqoZpNbOtWbcbDKWxvbwFlxSgOriew15_XufwvCMK1RnMGWE_sy_vbJZ95O9RtG877fGhS1GfvyAFuQTsH-QVghFV3UJ53rqmdDPCILCL0Sn93P8_kmsa6t2xL0fsqh9ehiUaN00TPuLBFikLSzd02GzA5wU9uoDD9dJbY9JPwRItk3taSCSktgh0hjU7zNVxzEbr2ZnzfhyFVFPPtrnatekTrVrEnF4qsCsaVT4QWczN4mKlq2-Uq9yCrXW3XfdFW4AB9sXAGw1sYsYYReOsvR1qr6yfZlzEUrQBUjGHo7y0]--></g></svg>