<svg xmlns="http://www.w3.org/2000/svg" xmlns:xlink="http://www.w3.org/1999/xlink" contentStyleType="text/css" height="1109px" preserveAspectRatio="none" style="width:2652px;height:1109px;background:#FFFFFF;" version="1.1" viewBox="0 0 2652 1109" width="2652px" zoomAndPan="magnify"><title>User Service Code Architecture</title><defs/><g><text fill="#000000" font-family="sans-serif" font-size="14" font-weight="bold" lengthAdjust="spacing" textLength="222.7422" x="1207.6289" y="23.5352">User Service Code Architecture</text><!--cluster suppliers--><g id="cluster_suppliers"><path d="M1515.5,506.8083 L1583.752,506.8083 A3.75,3.75 0 0 1 1586.252,509.3083 L1593.252,529.2966 L2378.5,529.2966 A2.5,2.5 0 0 1 2381,531.7966 L2381,669.2583 A2.5,2.5 0 0 1 2378.5,671.7583 L1515.5,671.7583 A2.5,2.5 0 0 1 1513,669.2583 L1513,509.3083 A2.5,2.5 0 0 1 1515.5,506.8083 " fill="none" style="stroke:#000000;stroke-width:1.5;"/><line style="stroke:#000000;stroke-width:1.5;" x1="1513" x2="1593.252" y1="529.2966" y2="529.2966"/><text fill="#000000" font-family="sans-serif" font-size="14" font-weight="bold" lengthAdjust="spacing" textLength="67.252" x="1517" y="522.3434">suppliers</text></g><!--cluster shared--><g id="cluster_shared"><path d="M8.5,43.4883 L58.6846,43.4883 A3.75,3.75 0 0 1 61.1846,45.9883 L68.1846,65.9766 L301.5,65.9766 A2.5,2.5 0 0 1 304,68.4766 L304,437.5983 A2.5,2.5 0 0 1 301.5,440.0983 L8.5,440.0983 A2.5,2.5 0 0 1 6,437.5983 L6,45.9883 A2.5,2.5 0 0 1 8.5,43.4883 " fill="none" style="stroke:#000000;stroke-width:1.5;"/><line style="stroke:#000000;stroke-width:1.5;" x1="6" x2="68.1846" y1="65.9766" y2="65.9766"/><text fill="#000000" font-family="sans-serif" font-size="14" font-weight="bold" lengthAdjust="spacing" textLength="49.1846" x="10" y="59.0234">shared</text></g><!--cluster service--><g id="cluster_service"><path d="M330.5,200.9483 L382.4961,200.9483 A3.75,3.75 0 0 1 384.9961,203.4483 L391.9961,223.4366 L1486.5,223.4366 A2.5,2.5 0 0 1 1489,225.9366 L1489,909.1683 A2.5,2.5 0 0 1 1486.5,911.6683 L330.5,911.6683 A2.5,2.5 0 0 1 328,909.1683 L328,203.4483 A2.5,2.5 0 0 1 330.5,200.9483 " fill="none" style="stroke:#000000;stroke-width:1.5;"/><line style="stroke:#000000;stroke-width:1.5;" x1="328" x2="391.9961" y1="223.4366" y2="223.4366"/><text fill="#000000" font-family="sans-serif" font-size="14" font-weight="bold" lengthAdjust="spacing" textLength="50.9961" x="332" y="216.4834">service</text></g><!--cluster repository--><g id="cluster_repository"><path d="M1596.5,730.2283 L1671.8955,730.2283 A3.75,3.75 0 0 1 1674.3955,732.7283 L1681.3955,752.7166 L2642.5,752.7166 A2.5,2.5 0 0 1 2645,755.2166 L2645,1099.6083 A2.5,2.5 0 0 1 2642.5,1102.1083 L1596.5,1102.1083 A2.5,2.5 0 0 1 1594,1099.6083 L1594,732.7283 A2.5,2.5 0 0 1 1596.5,730.2283 " fill="none" style="stroke:#000000;stroke-width:1.5;"/><line style="stroke:#000000;stroke-width:1.5;" x1="1594" x2="1681.3955" y1="752.7166" y2="752.7166"/><text fill="#000000" font-family="sans-serif" font-size="14" font-weight="bold" lengthAdjust="spacing" textLength="74.3955" x="1598" y="745.7634">repository</text></g><!--class KafkaSupplier--><g id="elem_KafkaSupplier"><rect codeLine="4" fill="#F1F1F1" height="113.9531" id="KafkaSupplier" rx="2.5" ry="2.5" style="stroke:#181818;stroke-width:0.5;" width="836.6191" x="1528.69" y="541.8083"/><ellipse cx="1896.0464" cy="557.8083" fill="#ADD1B2" rx="11" ry="11" style="stroke:#181818;stroke-width:1.0;"/><path d="M1898.5196,563.9513 Q1897.9385,564.2502 1897.2994,564.3996 Q1896.6602,564.549 1895.9546,564.549 Q1893.4478,564.549 1892.128,562.8971 Q1890.8082,561.2453 1890.8082,558.1242 Q1890.8082,554.9948 1892.128,553.3429 Q1893.4478,551.6911 1895.9546,551.6911 Q1896.6602,551.6911 1897.3077,551.8405 Q1897.9551,551.9899 1898.5196,552.2887 L1898.5196,555.0114 Q1897.8887,554.4304 1897.2952,554.1606 Q1896.7017,553.8908 1896.0709,553.8908 Q1894.7261,553.8908 1894.0413,554.9575 Q1893.3565,556.0241 1893.3565,558.1242 Q1893.3565,560.216 1894.0413,561.2826 Q1894.7261,562.3493 1896.0709,562.3493 Q1896.7017,562.3493 1897.2952,562.0795 Q1897.8887,561.8097 1898.5196,561.2287 Z " fill="#000000"/><text fill="#000000" font-family="sans-serif" font-size="14" lengthAdjust="spacing" textLength="93.4063" x="1916.5464" y="563.0993">KafkaSupplier</text><line style="stroke:#181818;stroke-width:0.5;" x1="1529.69" x2="2364.3091" y1="573.8083" y2="573.8083"/><rect fill="none" height="6" style="stroke:#C82930;stroke-width:1.0;" width="6" x="1536.69" y="584.5524"/><text fill="#000000" font-family="sans-serif" font-size="14" lengthAdjust="spacing" textLength="246.1826" x="1548.69" y="591.3434">verifyHouseConsumer: kafka.Reader</text><rect fill="none" height="6" style="stroke:#C82930;stroke-width:1.0;" width="6" x="1536.69" y="601.0407"/><text fill="#000000" font-family="sans-serif" font-size="14" lengthAdjust="spacing" textLength="230.8428" x="1548.69" y="607.8317">verifyHouseProducer: kafka.Writer</text><line style="stroke:#181818;stroke-width:0.5;" x1="1529.69" x2="2364.3091" y1="614.7848" y2="614.7848"/><ellipse cx="1539.69" cy="628.529" fill="#84BE84" rx="3" ry="3" style="stroke:#038048;stroke-width:1.0;"/><text fill="#000000" font-family="sans-serif" font-size="14" lengthAdjust="spacing" textLength="435.7773" x="1548.69" y="632.32">ReadModuleAdditionTopic(ctx: context.Context): kafka.Message</text><ellipse cx="1539.69" cy="645.0173" fill="#84BE84" rx="3" ry="3" style="stroke:#038048;stroke-width:1.0;"/><text fill="#000000" font-family="sans-serif" font-size="14" lengthAdjust="spacing" textLength="810.6191" x="1548.69" y="648.8083">SendMessageToModuleVerificationTopic(ctx: context.Context, key: []byte, event: events.ModuleVerificationEvent): error</text></g><!--class Container--><g id="elem_Container"><rect codeLine="13" fill="#F1F1F1" height="97.4648" id="Container" rx="2.5" ry="2.5" style="stroke:#181818;stroke-width:0.5;" width="265.9072" x="22.05" y="78.4883"/><ellipse cx="117.6506" cy="94.4883" fill="#ADD1B2" rx="11" ry="11" style="stroke:#181818;stroke-width:1.0;"/><path d="M120.1237,100.6313 Q119.5427,100.9302 118.9035,101.0796 Q118.2644,101.229 117.5588,101.229 Q115.052,101.229 113.7321,99.5771 Q112.4123,97.9253 112.4123,94.8042 Q112.4123,91.6748 113.7321,90.0229 Q115.052,88.3711 117.5588,88.3711 Q118.2644,88.3711 118.9118,88.5205 Q119.5593,88.6699 120.1237,88.9688 L120.1237,91.6914 Q119.4929,91.1104 118.8994,90.8406 Q118.3059,90.5708 117.675,90.5708 Q116.3303,90.5708 115.6455,91.6375 Q114.9606,92.7041 114.9606,94.8042 Q114.9606,96.896 115.6455,97.9626 Q116.3303,99.0293 117.675,99.0293 Q118.3059,99.0293 118.8994,98.7595 Q119.4929,98.4897 120.1237,97.9087 Z " fill="#000000"/><text fill="#000000" font-family="sans-serif" font-size="14" lengthAdjust="spacing" textLength="66.2061" x="138.1506" y="99.7793">Container</text><line style="stroke:#181818;stroke-width:0.5;" x1="23.05" x2="286.9572" y1="110.4883" y2="110.4883"/><ellipse cx="33.05" cy="124.2324" fill="none" rx="3" ry="3" style="stroke:#038048;stroke-width:1.0;"/><text fill="#000000" font-family="sans-serif" font-size="14" lengthAdjust="spacing" textLength="215.6123" x="42.05" y="128.0234">UserService: service.UserService</text><ellipse cx="33.05" cy="140.7207" fill="none" rx="3" ry="3" style="stroke:#038048;stroke-width:1.0;"/><text fill="#000000" font-family="sans-serif" font-size="14" lengthAdjust="spacing" textLength="239.9072" x="42.05" y="144.5117">HouseService: service.HouseService</text><ellipse cx="33.05" cy="157.209" fill="none" rx="3" ry="3" style="stroke:#038048;stroke-width:1.0;"/><text fill="#000000" font-family="sans-serif" font-size="14" lengthAdjust="spacing" textLength="172.252" x="42.05" y="161">AppSettings: AppSettings</text><line style="stroke:#181818;stroke-width:0.5;" x1="23.05" x2="286.9572" y1="167.9531" y2="167.9531"/></g><!--class AppSettings--><g id="elem_AppSettings"><rect codeLine="98" fill="#F1F1F1" height="163.418" id="AppSettings" rx="2.5" ry="2.5" style="stroke:#181818;stroke-width:0.5;" width="156.6348" x="76.68" y="260.6783"/><ellipse cx="111.0023" cy="276.6783" fill="#ADD1B2" rx="11" ry="11" style="stroke:#181818;stroke-width:1.0;"/><path d="M113.4755,282.8213 Q112.8944,283.1202 112.2552,283.2696 Q111.6161,283.419 110.9105,283.419 Q108.4037,283.419 107.0839,281.7671 Q105.764,280.1153 105.764,276.9942 Q105.764,273.8648 107.0839,272.2129 Q108.4037,270.5611 110.9105,270.5611 Q111.6161,270.5611 112.2635,270.7105 Q112.911,270.8599 113.4755,271.1587 L113.4755,273.8814 Q112.8446,273.3004 112.2511,273.0306 Q111.6576,272.7608 111.0267,272.7608 Q109.682,272.7608 108.9972,273.8275 Q108.3124,274.8941 108.3124,276.9942 Q108.3124,279.086 108.9972,280.1526 Q109.682,281.2193 111.0267,281.2193 Q111.6576,281.2193 112.2511,280.9495 Q112.8446,280.6797 113.4755,280.0987 Z " fill="#000000"/><text fill="#000000" font-family="sans-serif" font-size="14" lengthAdjust="spacing" textLength="81.6963" x="129.2962" y="281.9693">AppSettings</text><line style="stroke:#181818;stroke-width:0.5;" x1="77.68" x2="232.3148" y1="292.6783" y2="292.6783"/><ellipse cx="87.68" cy="306.4224" fill="none" rx="3" ry="3" style="stroke:#038048;stroke-width:1.0;"/><text fill="#000000" font-family="sans-serif" font-size="14" lengthAdjust="spacing" textLength="98.2256" x="96.68" y="310.2134">DBHost: string</text><ellipse cx="87.68" cy="322.9107" fill="none" rx="3" ry="3" style="stroke:#038048;stroke-width:1.0;"/><text fill="#000000" font-family="sans-serif" font-size="14" lengthAdjust="spacing" textLength="97.3301" x="96.68" y="326.7017">DBUser: string</text><ellipse cx="87.68" cy="339.399" fill="none" rx="3" ry="3" style="stroke:#038048;stroke-width:1.0;"/><text fill="#000000" font-family="sans-serif" font-size="14" lengthAdjust="spacing" textLength="130.6348" x="96.68" y="343.19">DBPassword: string</text><ellipse cx="87.68" cy="355.8873" fill="none" rx="3" ry="3" style="stroke:#038048;stroke-width:1.0;"/><text fill="#000000" font-family="sans-serif" font-size="14" lengthAdjust="spacing" textLength="105.9092" x="96.68" y="359.6783">DBName: string</text><ellipse cx="87.68" cy="372.3755" fill="none" rx="3" ry="3" style="stroke:#038048;stroke-width:1.0;"/><text fill="#000000" font-family="sans-serif" font-size="14" lengthAdjust="spacing" textLength="94.2676" x="96.68" y="376.1666">DBPort: string</text><ellipse cx="87.68" cy="388.8638" fill="none" rx="3" ry="3" style="stroke:#038048;stroke-width:1.0;"/><text fill="#000000" font-family="sans-serif" font-size="14" lengthAdjust="spacing" textLength="130.4502" x="96.68" y="392.6548">KafkaBroker: string</text><line style="stroke:#181818;stroke-width:0.5;" x1="77.68" x2="232.3148" y1="399.608" y2="399.608"/><ellipse cx="87.68" cy="413.3521" fill="#84BE84" rx="3" ry="3" style="stroke:#038048;stroke-width:1.0;"/><text fill="#000000" font-family="sans-serif" font-size="14" lengthAdjust="spacing" textLength="85.9004" x="96.68" y="417.1431">DSN(): string</text></g><!--class AuthService--><g id="elem_AuthService"><rect codeLine="21" fill="#F1F1F1" height="146.9297" id="AuthService" rx="2.5" ry="2.5" style="stroke:#181818;stroke-width:0.5;" width="364.4199" x="360.79" y="748.7383"/><ellipse cx="498.9477" cy="764.7383" fill="#ADD1B2" rx="11" ry="11" style="stroke:#181818;stroke-width:1.0;"/><path d="M501.4209,770.8813 Q500.8398,771.1802 500.2006,771.3296 Q499.5615,771.479 498.8559,771.479 Q496.3491,771.479 495.0293,769.8271 Q493.7094,768.1753 493.7094,765.0542 Q493.7094,761.9248 495.0293,760.2729 Q496.3491,758.6211 498.8559,758.6211 Q499.5615,758.6211 500.2089,758.7705 Q500.8564,758.9199 501.4209,759.2187 L501.4209,761.9414 Q500.79,761.3604 500.1965,761.0906 Q499.603,760.8208 498.9721,760.8208 Q497.6274,760.8208 496.9426,761.8875 Q496.2578,762.9541 496.2578,765.0542 Q496.2578,767.146 496.9426,768.2126 Q497.6274,769.2793 498.9721,769.2793 Q499.603,769.2793 500.1965,769.0095 Q500.79,768.7397 501.4209,768.1587 Z " fill="#000000"/><text fill="#000000" font-family="sans-serif" font-size="14" lengthAdjust="spacing" textLength="79.6045" x="519.4477" y="770.0293">AuthService</text><line style="stroke:#181818;stroke-width:0.5;" x1="361.79" x2="724.2099" y1="780.7383" y2="780.7383"/><rect fill="none" height="6" style="stroke:#C82930;stroke-width:1.0;" width="6" x="368.79" y="791.4824"/><text fill="#000000" font-family="sans-serif" font-size="14" lengthAdjust="spacing" textLength="132.5488" x="380.79" y="798.2734">accessSecret: []byte</text><rect fill="none" height="6" style="stroke:#C82930;stroke-width:1.0;" width="6" x="368.79" y="807.9707"/><text fill="#000000" font-family="sans-serif" font-size="14" lengthAdjust="spacing" textLength="136.4316" x="380.79" y="814.7617">refreshSecret: []byte</text><line style="stroke:#181818;stroke-width:0.5;" x1="361.79" x2="724.2099" y1="821.7148" y2="821.7148"/><ellipse cx="371.79" cy="835.459" fill="#84BE84" rx="3" ry="3" style="stroke:#038048;stroke-width:1.0;"/><text fill="#000000" font-family="sans-serif" font-size="14" lengthAdjust="spacing" textLength="321.6992" x="380.79" y="839.25">GenerateAccessToken(username: string): string</text><ellipse cx="371.79" cy="851.9473" fill="#84BE84" rx="3" ry="3" style="stroke:#038048;stroke-width:1.0;"/><text fill="#000000" font-family="sans-serif" font-size="14" lengthAdjust="spacing" textLength="326.7783" x="380.79" y="855.7383">GenerateRefreshToken(username: string): string</text><ellipse cx="371.79" cy="868.4355" fill="#84BE84" rx="3" ry="3" style="stroke:#038048;stroke-width:1.0;"/><text fill="#000000" font-family="sans-serif" font-size="14" lengthAdjust="spacing" textLength="333.3408" x="380.79" y="872.2266">ValidateAccessToken(tokenString: string): Claims</text><ellipse cx="371.79" cy="884.9238" fill="#84BE84" rx="3" ry="3" style="stroke:#038048;stroke-width:1.0;"/><text fill="#000000" font-family="sans-serif" font-size="14" lengthAdjust="spacing" textLength="338.4199" x="380.79" y="888.7148">ValidateRefreshToken(tokenString: string): Claims</text></g><!--class HouseService--><g id="elem_HouseService"><rect codeLine="30" fill="#F1F1F1" height="212.8828" id="HouseService" rx="2.5" ry="2.5" style="stroke:#181818;stroke-width:0.5;" width="651.0371" x="799.48" y="235.9483"/><ellipse cx="1075.8262" cy="251.9483" fill="#ADD1B2" rx="11" ry="11" style="stroke:#181818;stroke-width:1.0;"/><path d="M1078.2993,258.0913 Q1077.7183,258.3902 1077.0791,258.5396 Q1076.44,258.689 1075.7344,258.689 Q1073.2276,258.689 1071.9077,257.0371 Q1070.5879,255.3853 1070.5879,252.2642 Q1070.5879,249.1348 1071.9077,247.4829 Q1073.2276,245.8311 1075.7344,245.8311 Q1076.44,245.8311 1077.0874,245.9805 Q1077.7349,246.1299 1078.2993,246.4287 L1078.2993,249.1514 Q1077.6685,248.5704 1077.075,248.3006 Q1076.4815,248.0308 1075.8506,248.0308 Q1074.5059,248.0308 1073.8211,249.0975 Q1073.1363,250.1641 1073.1363,252.2642 Q1073.1363,254.356 1073.8211,255.4226 Q1074.5059,256.4893 1075.8506,256.4893 Q1076.4815,256.4893 1077.075,256.2195 Q1077.6685,255.9497 1078.2993,255.3687 Z " fill="#000000"/><text fill="#000000" font-family="sans-serif" font-size="14" lengthAdjust="spacing" textLength="89.8447" x="1096.3262" y="257.2393">HouseService</text><line style="stroke:#181818;stroke-width:0.5;" x1="800.48" x2="1449.5171" y1="267.9483" y2="267.9483"/><rect fill="none" height="6" style="stroke:#C82930;stroke-width:1.0;" width="6" x="807.48" y="278.6924"/><text fill="#000000" font-family="sans-serif" font-size="14" lengthAdjust="spacing" textLength="309.9688" x="819.48" y="285.4834">houseRepository: repository.HouseRepository</text><rect fill="none" height="6" style="stroke:#C82930;stroke-width:1.0;" width="6" x="807.48" y="295.1807"/><text fill="#000000" font-family="sans-serif" font-size="14" lengthAdjust="spacing" textLength="261.3516" x="819.48" y="301.9717">kafkaSupplier: suppliers.KafkaSupplier</text><rect fill="none" height="6" style="stroke:#C82930;stroke-width:1.0;" width="6" x="807.48" y="311.669"/><text fill="#000000" font-family="sans-serif" font-size="14" lengthAdjust="spacing" textLength="163.2422" x="819.48" y="318.46">userService: UserService</text><rect fill="none" height="6" style="stroke:#C82930;stroke-width:1.0;" width="6" x="807.48" y="328.1573"/><text fill="#000000" font-family="sans-serif" font-size="14" lengthAdjust="spacing" textLength="257.2021" x="819.48" y="334.9483">verifyService: VerifyConnectionService</text><line style="stroke:#181818;stroke-width:0.5;" x1="800.48" x2="1449.5171" y1="341.9014" y2="341.9014"/><ellipse cx="810.48" cy="355.6455" fill="#84BE84" rx="3" ry="3" style="stroke:#038048;stroke-width:1.0;"/><text fill="#000000" font-family="sans-serif" font-size="14" lengthAdjust="spacing" textLength="625.0371" x="819.48" y="359.4366">CreateUserHouse(userId: UUID, house: web_schemas.NewHouseIn): web_schemas.HouseOut</text><ellipse cx="810.48" cy="372.1338" fill="#84BE84" rx="3" ry="3" style="stroke:#038048;stroke-width:1.0;"/><text fill="#000000" font-family="sans-serif" font-size="14" lengthAdjust="spacing" textLength="380.0918" x="819.48" y="375.9248">GetUserHouses(userId: UUID): []web_schemas.HouseOut</text><ellipse cx="810.48" cy="388.6221" fill="#84BE84" rx="3" ry="3" style="stroke:#038048;stroke-width:1.0;"/><text fill="#000000" font-family="sans-serif" font-size="14" lengthAdjust="spacing" textLength="555.1396" x="819.48" y="392.4131">UpdateUserHouse(house: web_schemas.UpdateHouseIn): persistance.HouseModel</text><ellipse cx="810.48" cy="405.1104" fill="#84BE84" rx="3" ry="3" style="stroke:#038048;stroke-width:1.0;"/><text fill="#000000" font-family="sans-serif" font-size="14" lengthAdjust="spacing" textLength="420.2803" x="819.48" y="408.9014">ApproveModuleInstallation(userId: UUID, houseId: UUID): bool</text><ellipse cx="810.48" cy="421.5987" fill="#84BE84" rx="3" ry="3" style="stroke:#038048;stroke-width:1.0;"/><text fill="#000000" font-family="sans-serif" font-size="14" lengthAdjust="spacing" textLength="440.6309" x="819.48" y="425.3897">GetModuleAdditionEvent(ctx: context.Context): events.BaseEvent</text><ellipse cx="810.48" cy="438.087" fill="#84BE84" rx="3" ry="3" style="stroke:#038048;stroke-width:1.0;"/><text fill="#000000" font-family="sans-serif" font-size="14" lengthAdjust="spacing" textLength="408.5703" x="819.48" y="441.878">ProcessModuleAdditionEvent(event: events.BaseEvent): error</text></g><!--class UserService--><g id="elem_UserService"><rect codeLine="43" fill="#F1F1F1" height="179.9063" id="UserService" rx="2.5" ry="2.5" style="stroke:#181818;stroke-width:0.5;" width="398.9756" x="343.51" y="508.8283"/><ellipse cx="499.8992" cy="524.8283" fill="#ADD1B2" rx="11" ry="11" style="stroke:#181818;stroke-width:1.0;"/><path d="M502.3723,530.9713 Q501.7913,531.2702 501.1521,531.4196 Q500.5129,531.569 499.8074,531.569 Q497.3005,531.569 495.9807,529.9171 Q494.6609,528.2653 494.6609,525.1442 Q494.6609,522.0148 495.9807,520.3629 Q497.3005,518.7111 499.8074,518.7111 Q500.5129,518.7111 501.1604,518.8605 Q501.8079,519.0099 502.3723,519.3087 L502.3723,522.0314 Q501.7414,521.4504 501.1479,521.1806 Q500.5544,520.9108 499.9236,520.9108 Q498.5788,520.9108 497.894,521.9775 Q497.2092,523.0441 497.2092,525.1442 Q497.2092,527.236 497.894,528.3026 Q498.5788,529.3693 499.9236,529.3693 Q500.5544,529.3693 501.1479,529.0995 Q501.7414,528.8297 502.3723,528.2487 Z " fill="#000000"/><text fill="#000000" font-family="sans-serif" font-size="14" lengthAdjust="spacing" textLength="77.6973" x="520.3992" y="530.1193">UserService</text><line style="stroke:#181818;stroke-width:0.5;" x1="344.51" x2="741.4856" y1="540.8283" y2="540.8283"/><rect fill="none" height="6" style="stroke:#C82930;stroke-width:1.0;" width="6" x="351.51" y="551.5724"/><text fill="#000000" font-family="sans-serif" font-size="14" lengthAdjust="spacing" textLength="286.2617" x="363.51" y="558.3634">userRepository: repository.UserRepository</text><rect fill="none" height="6" style="stroke:#C82930;stroke-width:1.0;" width="6" x="351.51" y="568.0607"/><text fill="#000000" font-family="sans-serif" font-size="14" lengthAdjust="spacing" textLength="166.1406" x="363.51" y="574.8517">authService: AuthService</text><line style="stroke:#181818;stroke-width:0.5;" x1="344.51" x2="741.4856" y1="581.8048" y2="581.8048"/><ellipse cx="354.51" cy="595.549" fill="#84BE84" rx="3" ry="3" style="stroke:#038048;stroke-width:1.0;"/><text fill="#000000" font-family="sans-serif" font-size="14" lengthAdjust="spacing" textLength="241.124" x="363.51" y="599.34">SignUp(user: web.NewUserIn): error</text><ellipse cx="354.51" cy="612.0373" fill="#84BE84" rx="3" ry="3" style="stroke:#038048;stroke-width:1.0;"/><text fill="#000000" font-family="sans-serif" font-size="14" lengthAdjust="spacing" textLength="326.1768" x="363.51" y="615.8283">Login(username: string, password: string): error</text><ellipse cx="354.51" cy="628.5255" fill="#84BE84" rx="3" ry="3" style="stroke:#038048;stroke-width:1.0;"/><text fill="#000000" font-family="sans-serif" font-size="14" lengthAdjust="spacing" textLength="241.6982" x="363.51" y="632.3166">Update(user: web.NewUserIn): error</text><ellipse cx="354.51" cy="645.0138" fill="#84BE84" rx="3" ry="3" style="stroke:#038048;stroke-width:1.0;"/><text fill="#000000" font-family="sans-serif" font-size="14" lengthAdjust="spacing" textLength="341.5098" x="363.51" y="648.8048">GetCurrent(username: string): dto.UserDtoSchema</text><ellipse cx="354.51" cy="661.5021" fill="#84BE84" rx="3" ry="3" style="stroke:#038048;stroke-width:1.0;"/><text fill="#000000" font-family="sans-serif" font-size="14" lengthAdjust="spacing" textLength="372.9756" x="363.51" y="665.2931">GetByUsername(username: string): dto.UserDtoSchema</text><ellipse cx="354.51" cy="677.9904" fill="#84BE84" rx="3" ry="3" style="stroke:#038048;stroke-width:1.0;"/><text fill="#000000" font-family="sans-serif" font-size="14" lengthAdjust="spacing" textLength="319.2725" x="363.51" y="681.7814">GetRequiredById(id: UUID): dto.UserDtoSchema</text></g><!--class VerifyConnectionService--><g id="elem_VerifyConnectionService"><rect codeLine="54" fill="#F1F1F1" height="130.4414" id="VerifyConnectionService" rx="2.5" ry="2.5" style="stroke:#181818;stroke-width:0.5;" width="695.0605" x="777.47" y="533.5683"/><ellipse cx="1038.8865" cy="549.5683" fill="#ADD1B2" rx="11" ry="11" style="stroke:#181818;stroke-width:1.0;"/><path d="M1041.3596,555.7113 Q1040.7786,556.0102 1040.1394,556.1596 Q1039.5003,556.309 1038.7947,556.309 Q1036.2879,556.309 1034.968,554.6571 Q1033.6482,553.0053 1033.6482,549.8842 Q1033.6482,546.7548 1034.968,545.1029 Q1036.2879,543.4511 1038.7947,543.4511 Q1039.5003,543.4511 1040.1477,543.6005 Q1040.7952,543.7499 1041.3596,544.0487 L1041.3596,546.7714 Q1040.7288,546.1904 1040.1353,545.9206 Q1039.5418,545.6508 1038.9109,545.6508 Q1037.5662,545.6508 1036.8814,546.7175 Q1036.1966,547.7841 1036.1966,549.8842 Q1036.1966,551.976 1036.8814,553.0426 Q1037.5662,554.1093 1038.9109,554.1093 Q1039.5418,554.1093 1040.1353,553.8395 Q1040.7288,553.5697 1041.3596,552.9887 Z " fill="#000000"/><text fill="#000000" font-family="sans-serif" font-size="14" lengthAdjust="spacing" textLength="163.7275" x="1059.3865" y="554.8593">VerifyConnectionService</text><line style="stroke:#181818;stroke-width:0.5;" x1="778.47" x2="1471.5305" y1="565.5683" y2="565.5683"/><rect fill="none" height="6" style="stroke:#C82930;stroke-width:1.0;" width="6" x="785.47" y="576.3124"/><text fill="#000000" font-family="sans-serif" font-size="14" lengthAdjust="spacing" textLength="129.4316" x="797.47" y="583.1034">minSquare: float64</text><rect fill="none" height="6" style="stroke:#C82930;stroke-width:1.0;" width="6" x="785.47" y="592.8007"/><text fill="#000000" font-family="sans-serif" font-size="14" lengthAdjust="spacing" textLength="133.0137" x="797.47" y="599.5917">maxSquare: float64</text><line style="stroke:#181818;stroke-width:0.5;" x1="778.47" x2="1471.5305" y1="606.5448" y2="606.5448"/><ellipse cx="788.47" cy="620.289" fill="#84BE84" rx="3" ry="3" style="stroke:#038048;stroke-width:1.0;"/><text fill="#000000" font-family="sans-serif" font-size="14" lengthAdjust="spacing" textLength="669.0605" x="797.47" y="624.08">VerifyModuleConnection(verifyingUser: web.UserOut, verifyingHouse: web.HouseOut): (bool, error)</text><ellipse cx="788.47" cy="636.7773" fill="#84BE84" rx="3" ry="3" style="stroke:#038048;stroke-width:1.0;"/><text fill="#000000" font-family="sans-serif" font-size="14" lengthAdjust="spacing" textLength="300.6377" x="797.47" y="640.5683">verifyUser(verifyingUser: web.UserOut): bool</text><ellipse cx="788.47" cy="653.2655" fill="#84BE84" rx="3" ry="3" style="stroke:#038048;stroke-width:1.0;"/><text fill="#000000" font-family="sans-serif" font-size="14" lengthAdjust="spacing" textLength="337.0801" x="797.47" y="657.0566">verifyHouse(verifyingHouse: web.HouseOut): bool</text></g><!--class HouseRepository--><g id="elem_HouseRepository"><rect codeLine="64" fill="#F1F1F1" height="97.4648" id="HouseRepository" rx="2.5" ry="2.5" style="stroke:#181818;stroke-width:0.5;" width="585.9727" x="2043.01" y="773.4683"/><ellipse cx="2274.427" cy="789.4683" fill="#B4A7E5" rx="11" ry="11" style="stroke:#181818;stroke-width:1.0;"/><path d="M2270.8547,785.7334 L2270.8547,783.5752 L2278.2341,783.5752 L2278.2341,785.7334 L2275.7688,785.7334 L2275.7688,793.8101 L2278.2341,793.8101 L2278.2341,795.9683 L2270.8547,795.9683 L2270.8547,793.8101 L2273.3201,793.8101 L2273.3201,785.7334 Z " fill="#000000"/><text fill="#000000" font-family="sans-serif" font-size="14" font-style="italic" lengthAdjust="spacing" textLength="114.6387" x="2294.927" y="794.7593">HouseRepository</text><line style="stroke:#181818;stroke-width:0.5;" x1="2044.01" x2="2627.9827" y1="805.4683" y2="805.4683"/><line style="stroke:#181818;stroke-width:0.5;" x1="2044.01" x2="2627.9827" y1="813.4683" y2="813.4683"/><ellipse cx="2054.01" cy="827.2124" fill="#84BE84" rx="3" ry="3" style="stroke:#038048;stroke-width:1.0;"/><text fill="#000000" font-family="sans-serif" font-size="14" lengthAdjust="spacing" textLength="559.9727" x="2063.01" y="831.0034">CreateUserHouse(userId: UUID, house: web.NewHouseIn): persistance.HouseModel</text><ellipse cx="2054.01" cy="843.7007" fill="#84BE84" rx="3" ry="3" style="stroke:#038048;stroke-width:1.0;"/><text fill="#000000" font-family="sans-serif" font-size="14" lengthAdjust="spacing" textLength="316.0322" x="2063.01" y="847.4917">GetUserHouses(userID: UUID): []web.HouseOut</text><ellipse cx="2054.01" cy="860.189" fill="#84BE84" rx="3" ry="3" style="stroke:#038048;stroke-width:1.0;"/><text fill="#000000" font-family="sans-serif" font-size="14" lengthAdjust="spacing" textLength="489.4053" x="2063.01" y="863.98">UpdateUserHouse(house: web.UpdateHouseIn): persistance.HouseModel</text></g><!--class GORMHouseRepository--><g id="elem_GORMHouseRepository"><rect codeLine="70" fill="#F1F1F1" height="113.9531" id="GORMHouseRepository" rx="2.5" ry="2.5" style="stroke:#181818;stroke-width:0.5;" width="585.9727" x="2043.01" y="963.9083"/><ellipse cx="2253.4748" cy="979.9083" fill="#ADD1B2" rx="11" ry="11" style="stroke:#181818;stroke-width:1.0;"/><path d="M2255.948,986.0513 Q2255.3669,986.3502 2254.7278,986.4996 Q2254.0886,986.649 2253.383,986.649 Q2250.8762,986.649 2249.5564,984.9971 Q2248.2366,983.3453 2248.2366,980.2242 Q2248.2366,977.0948 2249.5564,975.4429 Q2250.8762,973.7911 2253.383,973.7911 Q2254.0886,973.7911 2254.7361,973.9405 Q2255.3835,974.0899 2255.948,974.3887 L2255.948,977.1114 Q2255.3171,976.5304 2254.7236,976.2606 Q2254.1301,975.9908 2253.4993,975.9908 Q2252.1545,975.9908 2251.4697,977.0575 Q2250.7849,978.1241 2250.7849,980.2242 Q2250.7849,982.316 2251.4697,983.3826 Q2252.1545,984.4493 2253.4993,984.4493 Q2254.1301,984.4493 2254.7236,984.1795 Q2255.3171,983.9097 2255.948,983.3287 Z " fill="#000000"/><text fill="#000000" font-family="sans-serif" font-size="14" lengthAdjust="spacing" textLength="156.543" x="2273.9748" y="985.1993">GORMHouseRepository</text><line style="stroke:#181818;stroke-width:0.5;" x1="2044.01" x2="2627.9827" y1="995.9083" y2="995.9083"/><rect fill="none" height="6" style="stroke:#C82930;stroke-width:1.0;" width="6" x="2051.01" y="1006.6524"/><text fill="#000000" font-family="sans-serif" font-size="14" lengthAdjust="spacing" textLength="85.5791" x="2063.01" y="1013.4434">db: gorm.DB</text><line style="stroke:#181818;stroke-width:0.5;" x1="2044.01" x2="2627.9827" y1="1020.3966" y2="1020.3966"/><ellipse cx="2054.01" cy="1034.1407" fill="#84BE84" rx="3" ry="3" style="stroke:#038048;stroke-width:1.0;"/><text fill="#000000" font-family="sans-serif" font-size="14" lengthAdjust="spacing" textLength="559.9727" x="2063.01" y="1037.9317">CreateUserHouse(userId: UUID, house: web.NewHouseIn): persistance.HouseModel</text><ellipse cx="2054.01" cy="1050.629" fill="#84BE84" rx="3" ry="3" style="stroke:#038048;stroke-width:1.0;"/><text fill="#000000" font-family="sans-serif" font-size="14" lengthAdjust="spacing" textLength="316.0322" x="2063.01" y="1054.42">GetUserHouses(userID: UUID): []web.HouseOut</text><ellipse cx="2054.01" cy="1067.1173" fill="#84BE84" rx="3" ry="3" style="stroke:#038048;stroke-width:1.0;"/><text fill="#000000" font-family="sans-serif" font-size="14" lengthAdjust="spacing" textLength="489.4053" x="2063.01" y="1070.9083">UpdateUserHouse(house: web.UpdateHouseIn): persistance.HouseModel</text></g><!--class UserRepository--><g id="elem_UserRepository"><rect codeLine="79" fill="#F1F1F1" height="113.9531" id="UserRepository" rx="2.5" ry="2.5" style="stroke:#181818;stroke-width:0.5;" width="398.9756" x="1609.51" y="765.2283"/><ellipse cx="1753.5022" cy="781.2283" fill="#B4A7E5" rx="11" ry="11" style="stroke:#181818;stroke-width:1.0;"/><path d="M1749.9299,777.4934 L1749.9299,775.3352 L1757.3093,775.3352 L1757.3093,777.4934 L1754.844,777.4934 L1754.844,785.5701 L1757.3093,785.5701 L1757.3093,787.7283 L1749.9299,787.7283 L1749.9299,785.5701 L1752.3953,785.5701 L1752.3953,777.4934 Z " fill="#000000"/><text fill="#000000" font-family="sans-serif" font-size="14" font-style="italic" lengthAdjust="spacing" textLength="102.4912" x="1774.0022" y="786.5193">UserRepository</text><line style="stroke:#181818;stroke-width:0.5;" x1="1610.51" x2="2007.4856" y1="797.2283" y2="797.2283"/><line style="stroke:#181818;stroke-width:0.5;" x1="1610.51" x2="2007.4856" y1="805.2283" y2="805.2283"/><ellipse cx="1620.51" cy="818.9724" fill="#84BE84" rx="3" ry="3" style="stroke:#038048;stroke-width:1.0;"/><text fill="#000000" font-family="sans-serif" font-size="14" lengthAdjust="spacing" textLength="237.5898" x="1629.51" y="822.7634">Create(user: web.NewUserIn): error</text><ellipse cx="1620.51" cy="835.4607" fill="#84BE84" rx="3" ry="3" style="stroke:#038048;stroke-width:1.0;"/><text fill="#000000" font-family="sans-serif" font-size="14" lengthAdjust="spacing" textLength="372.9756" x="1629.51" y="839.2517">GetByUsername(username: string): dto.UserDtoSchema</text><ellipse cx="1620.51" cy="851.949" fill="#84BE84" rx="3" ry="3" style="stroke:#038048;stroke-width:1.0;"/><text fill="#000000" font-family="sans-serif" font-size="14" lengthAdjust="spacing" textLength="241.6982" x="1629.51" y="855.74">Update(user: web.NewUserIn): error</text><ellipse cx="1620.51" cy="868.4373" fill="#84BE84" rx="3" ry="3" style="stroke:#038048;stroke-width:1.0;"/><text fill="#000000" font-family="sans-serif" font-size="14" lengthAdjust="spacing" textLength="319.2725" x="1629.51" y="872.2283">GetRequiredById(id: UUID): dto.UserDtoSchema</text></g><!--class GORMUserRepository--><g id="elem_GORMUserRepository"><rect codeLine="86" fill="#F1F1F1" height="130.4414" id="GORMUserRepository" rx="2.5" ry="2.5" style="stroke:#181818;stroke-width:0.5;" width="398.9756" x="1609.51" y="955.6683"/><ellipse cx="1732.55" cy="971.6683" fill="#ADD1B2" rx="11" ry="11" style="stroke:#181818;stroke-width:1.0;"/><path d="M1735.0232,977.8113 Q1734.4421,978.1102 1733.803,978.2596 Q1733.1638,978.409 1732.4582,978.409 Q1729.9514,978.409 1728.6316,976.7571 Q1727.3118,975.1053 1727.3118,971.9842 Q1727.3118,968.8548 1728.6316,967.2029 Q1729.9514,965.5511 1732.4582,965.5511 Q1733.1638,965.5511 1733.8113,965.7005 Q1734.4587,965.8499 1735.0232,966.1487 L1735.0232,968.8714 Q1734.3923,968.2904 1733.7988,968.0206 Q1733.2053,967.7508 1732.5745,967.7508 Q1731.2297,967.7508 1730.5449,968.8175 Q1729.8601,969.8841 1729.8601,971.9842 Q1729.8601,974.076 1730.5449,975.1426 Q1731.2297,976.2093 1732.5745,976.2093 Q1733.2053,976.2093 1733.7988,975.9395 Q1734.3923,975.6697 1735.0232,975.0887 Z " fill="#000000"/><text fill="#000000" font-family="sans-serif" font-size="14" lengthAdjust="spacing" textLength="144.3955" x="1753.05" y="976.9593">GORMUserRepository</text><line style="stroke:#181818;stroke-width:0.5;" x1="1610.51" x2="2007.4856" y1="987.6683" y2="987.6683"/><rect fill="none" height="6" style="stroke:#C82930;stroke-width:1.0;" width="6" x="1617.51" y="998.4124"/><text fill="#000000" font-family="sans-serif" font-size="14" lengthAdjust="spacing" textLength="85.5791" x="1629.51" y="1005.2034">db: gorm.DB</text><line style="stroke:#181818;stroke-width:0.5;" x1="1610.51" x2="2007.4856" y1="1012.1566" y2="1012.1566"/><ellipse cx="1620.51" cy="1025.9007" fill="#84BE84" rx="3" ry="3" style="stroke:#038048;stroke-width:1.0;"/><text fill="#000000" font-family="sans-serif" font-size="14" lengthAdjust="spacing" textLength="237.5898" x="1629.51" y="1029.6917">Create(user: web.NewUserIn): error</text><ellipse cx="1620.51" cy="1042.389" fill="#84BE84" rx="3" ry="3" style="stroke:#038048;stroke-width:1.0;"/><text fill="#000000" font-family="sans-serif" font-size="14" lengthAdjust="spacing" textLength="372.9756" x="1629.51" y="1046.18">GetByUsername(username: string): dto.UserDtoSchema</text><ellipse cx="1620.51" cy="1058.8773" fill="#84BE84" rx="3" ry="3" style="stroke:#038048;stroke-width:1.0;"/><text fill="#000000" font-family="sans-serif" font-size="14" lengthAdjust="spacing" textLength="241.6982" x="1629.51" y="1062.6683">Update(user: web.NewUserIn): error</text><ellipse cx="1620.51" cy="1075.3655" fill="#84BE84" rx="3" ry="3" style="stroke:#038048;stroke-width:1.0;"/><text fill="#000000" font-family="sans-serif" font-size="14" lengthAdjust="spacing" textLength="319.2725" x="1629.51" y="1079.1566">GetRequiredById(id: UUID): dto.UserDtoSchema</text></g><!--reverse link HouseRepository to GORMHouseRepository--><g id="link_HouseRepository_GORMHouseRepository"><path codeLine="77" d="M2336,889.3183 C2336,917.1783 2336,934.3983 2336,963.5483 " fill="none" id="HouseRepository-backto-GORMHouseRepository" style="stroke:#181818;stroke-width:1.0;"/><polygon fill="none" points="2336,871.3183,2330,889.3183,2342,889.3183,2336,871.3183" style="stroke:#181818;stroke-width:1.0;"/></g><!--reverse link UserRepository to GORMUserRepository--><g id="link_UserRepository_GORMUserRepository"><path codeLine="94" d="M1809,897.5683 C1809,921.1783 1809,930.7583 1809,955.1983 " fill="none" id="UserRepository-backto-GORMUserRepository" style="stroke:#181818;stroke-width:1.0;"/><polygon fill="none" points="1809,879.5683,1803,897.5683,1815,897.5683,1809,879.5683" style="stroke:#181818;stroke-width:1.0;"/></g><!--link Container to UserService--><g id="link_Container_UserService"><path codeLine="109" d="M231.88,176.3683 C238.6,181.6583 245.08,187.2083 251,192.9483 C349.8,288.6783 435.2273,416.2349 488.2473,503.2249 " fill="none" id="Container-to-UserService" style="stroke:#181818;stroke-width:1.0;"/><polygon fill="#181818" points="491.37,508.3483,490.1016,498.5814,488.7678,504.0788,483.2704,502.745,491.37,508.3483" style="stroke:#181818;stroke-width:1.0;"/></g><!--link Container to HouseService--><g id="link_Container_HouseService"><path codeLine="110" d="M288.35,157.5183 C419.47,186.3383 618.8799,230.1603 793.2799,268.4903 " fill="none" id="Container-to-HouseService" style="stroke:#181818;stroke-width:1.0;"/><polygon fill="#181818" points="799.14,269.7783,791.2084,263.9396,794.2566,268.705,789.4912,271.7531,799.14,269.7783" style="stroke:#181818;stroke-width:1.0;"/></g><!--link Container to AppSettings--><g id="link_Container_AppSettings"><path codeLine="111" d="M155,176.3183 C155,201.1283 155,226.0583 155,254.4083 " fill="none" id="Container-to-AppSettings" style="stroke:#181818;stroke-width:1.0;"/><polygon fill="#181818" points="155,260.4083,159,251.4083,155,255.4083,151,251.4083,155,260.4083" style="stroke:#181818;stroke-width:1.0;"/></g><!--link HouseService to HouseRepository--><g id="link_HouseService_HouseRepository"><path codeLine="113" d="M1450.87,361.6283 C1802.33,384.7083 2320.13,429.9483 2381,498.8083 C2448.37,575.0283 2401.4717,698.1011 2366.0817,767.6311 " fill="none" id="HouseService-to-HouseRepository" style="stroke:#181818;stroke-width:1.0;"/><polygon fill="#181818" points="2363.36,772.9783,2371.0073,766.7719,2365.6281,768.5223,2363.8777,763.143,2363.36,772.9783" style="stroke:#181818;stroke-width:1.0;"/></g><!--link HouseService to KafkaSupplier--><g id="link_HouseService_KafkaSupplier"><path codeLine="114" d="M1450.76,444.2083 C1557.59,477.2683 1666.7082,511.0445 1758.9982,539.6045 " fill="none" id="HouseService-to-KafkaSupplier" style="stroke:#181818;stroke-width:1.0;"/><polygon fill="#181818" points="1764.73,541.3783,1757.3148,534.8964,1759.9535,539.9001,1754.9498,542.5388,1764.73,541.3783" style="stroke:#181818;stroke-width:1.0;"/></g><!--link HouseService to UserService--><g id="link_HouseService_UserService"><path codeLine="115" d="M874.3,449.1483 C835.94,465.6083 796.87,482.5583 760,498.8083 C752.9,501.9383 751.1541,502.7142 743.8541,505.9542 " fill="none" id="HouseService-to-UserService" style="stroke:#181818;stroke-width:1.0;"/><polygon fill="#181818" points="738.37,508.3883,748.2189,508.3933,742.9401,506.3599,744.9735,501.0811,738.37,508.3883" style="stroke:#181818;stroke-width:1.0;"/></g><!--link HouseService to VerifyConnectionService--><g id="link_HouseService_VerifyConnectionService"><path codeLine="116" d="M1125,449.0683 C1125,477.5983 1125,501.6183 1125,527.1583 " fill="none" id="HouseService-to-VerifyConnectionService" style="stroke:#181818;stroke-width:1.0;"/><polygon fill="#181818" points="1125,533.1583,1129,524.1583,1125,528.1583,1121,524.1583,1125,533.1583" style="stroke:#181818;stroke-width:1.0;"/></g><!--link UserService to UserRepository--><g id="link_UserService_UserRepository"><path codeLine="118" d="M742.9,684.5883 C748.63,686.0983 754.33,687.4883 760,688.7383 C1076.7,758.7183 1169.5,666.4183 1489,722.2283 C1543.99,731.8283 1597.0262,746.3174 1648.9862,762.9674 " fill="none" id="UserService-to-UserRepository" style="stroke:#181818;stroke-width:1.0;"/><polygon fill="#181818" points="1654.7,764.7983,1647.3499,758.2427,1649.9385,763.2725,1644.9087,765.8611,1654.7,764.7983" style="stroke:#181818;stroke-width:1.0;"/></g><!--link UserService to AuthService--><g id="link_UserService_AuthService"><path codeLine="119" d="M543,689.2083 C543,708.8883 543,723.5083 543,742.4383 " fill="none" id="UserService-to-AuthService" style="stroke:#181818;stroke-width:1.0;"/><polygon fill="#181818" points="543,748.4383,547,739.4383,543,743.4383,539,739.4383,543,748.4383" style="stroke:#181818;stroke-width:1.0;"/></g><!--SRC=[vLTBRziu4BxxLn0zsOZjKz63K1JmOz4ORTB2Yhk7HL4mqjWcB8iAIIKnTlFVouSb3MKgJhAtNHzYnVFWFBxvE59CPK1M4WI9GTop1CYCfq0c8jao1Oag1VHw1KrsT0FadIoB8cCWv3loTu_eJv9HASaNkjxH-2WxIindHEv1iFNXafSIPZoNvHv4H7P6VRm4ce88wtuNF2sJHlTFeODfT2-8CRxIEXbCqfGfnlCRNh2adwZ7Y2GyL_2enZFtFQYyN86KEWta9eOyFVvwmvs_7oOAbj3dVGx93WuH-UldxK71aC0zv2foNt9ywkWF8z1nW13SfV7KUy9rtL81gLzKSn9bkLVG2zkgOwSY8jt36Fs8L6qbJtJnhqXvKXGnACNoZOpmFw5WdR4VxQHKsmf1600qINHzOqW4gAfUI2nWBK1kE-GNv3Fe0b054-lcXkyWx-luHKxt9YSbT8o3wY5WjtJ-NsxuWsOiRHsepD_OQYBJMKRPNWPClJFFskhADbN4pV7Ak3M29HHSCiM5Hfwedrr76ncosk6vrCTNqpls1XOPb1XT8LHLKrehMPGVD5PpJHOQwQV8cWdGHJ7ERA2s2ujKkryjvaENM4GUuFQNJBQmft9y3GzMSv4FV87zzLkfl3whshFqN0yCcivOhuhK2oqGZ5DfuYbq-PXKDAz6IGyxPFuW2NuFZWCMkLRDCii1eSHHiBUSPtvYFhzP2kdYjoFnJAa4guSSQIerI0uvyrchDcxn588dGeI7JfDP1pXNdWWJGqCO4MOFpCviawyAMpVR58CCuyyseWdHAN_b6tOwuaDIwC0Vk4ZHzBLDNOzVU8vkpAmKmjGlm2UfuZRbkUAnHP1lEJsiZZPlC5x2NSdqDJ4zBD8-Qv0JDlCQrp6bNXFtB8_lIdqFHMITSQe-lCT2-jWbl3XwTmXhpkWxfj2fhUh2cYSzWaDIooxhaQi7LAVKDzCmTBKVe9EScV7oZFVJOKARHV_CoRMbV-SrYAwkFQPdJwofBcABVxth-gNavvFUMP89qDxSfxtNqTrhQCu3rkTlowlk_4SalOt8XelzU3xzNrIbNOkF_un6eIBrMXZoQJ80ePUpqzivvhKy-2y8oPIaC-VdOVEVgKGh_neghIlpt7i2MjOztCodbrogm8exdphA30Y-jovBJtYDwkTRSH4wnowPKw4NuE1XyNNVNy0jupPlFQFH9sy5zINUQumlmcylFM-ZhWrHUKyKkhRa4qKSt8cmQo_kuHsgyeB2QOlnPlGR]--></g></svg>